<svg xmlns="http://www.w3.org/2000/svg" xmlns:xlink="http://www.w3.org/1999/xlink" width="810" zoomAndPan="magnify" viewBox="0 0 810 809.999993" height="809.999993" preserveAspectRatio="xMidYMid meet" version="1.0"><path fill="rgb(74.119568%, 51.368713%, 100%)" d="M 207.589844 276.144531 L 207.589844 624.074219 C 207.589844 630.265625 202.566406 635.285156 196.375 635.285156 C 190.183594 635.285156 185.160156 630.265625 185.160156 624.074219 L 185.160156 264.980469 C 185.101562 260.921875 187.292969 257.152344 190.828125 255.179688 L 191.023438 255.070312 L 191.261719 254.945312 L 191.511719 254.824219 L 191.753906 254.707031 L 192.007812 254.59375 L 192.257812 254.492188 L 192.515625 254.398438 L 192.78125 254.300781 L 193.039062 254.21875 L 193.300781 254.140625 L 193.570312 254.066406 L 194.117188 253.941406 L 194.390625 253.890625 L 194.671875 253.84375 L 194.949219 253.804688 L 195.230469 253.769531 L 195.511719 253.75 L 195.800781 253.726562 L 196.085938 253.71875 L 196.375 253.714844 L 219.820312 253.714844 C 226.011719 253.714844 231.03125 258.738281 231.03125 264.929688 C 231.03125 271.121094 226.011719 276.144531 219.820312 276.144531 L 207.589844 276.144531 " fill-opacity="1" fill-rule="evenodd"/><path fill="rgb(74.119568%, 51.368713%, 100%)" d="M 288.933594 268.828125 L 288.933594 624.074219 C 288.933594 630.265625 283.914062 635.285156 277.71875 635.285156 C 271.527344 635.285156 266.507812 630.265625 266.507812 624.074219 L 266.507812 268.828125 C 266.507812 262.636719 271.527344 257.613281 277.71875 257.613281 C 283.914062 257.613281 288.933594 262.636719 288.933594 268.828125 " fill-opacity="1" fill-rule="evenodd"/><path fill="rgb(74.119568%, 51.368713%, 100%)" d="M 370.285156 265.011719 L 370.285156 624.074219 C 370.285156 630.265625 365.265625 635.285156 359.074219 635.285156 C 352.878906 635.285156 347.859375 630.265625 347.859375 624.074219 L 347.859375 276.144531 L 335.34375 276.144531 C 329.148438 276.144531 324.128906 271.121094 324.128906 264.929688 C 324.128906 258.738281 329.148438 253.714844 335.34375 253.714844 L 359.125 253.714844 L 359.359375 253.71875 L 359.648438 253.726562 L 360.214844 253.769531 L 360.496094 253.804688 L 360.777344 253.84375 L 361.058594 253.890625 L 361.332031 253.941406 L 361.605469 254.003906 L 361.875 254.066406 L 362.144531 254.140625 L 362.671875 254.300781 L 363.1875 254.492188 L 363.441406 254.59375 L 363.691406 254.707031 L 363.9375 254.824219 L 364.179688 254.945312 L 364.425781 255.070312 L 364.621094 255.183594 C 368.152344 257.160156 370.34375 260.921875 370.285156 264.980469 L 370.285156 265.011719 " fill-opacity="1" fill-rule="evenodd"/><path fill="rgb(74.119568%, 51.368713%, 100%)" d="M 212.34375 279.542969 L 212.34375 251.546875 C 212.34375 247.429688 215.671875 244.085938 219.796875 244.074219 L 219.820312 244.105469 L 253.589844 244.003906 C 253.816406 243.984375 254.042969 243.972656 254.277344 243.972656 C 258.402344 243.972656 261.75 247.320312 261.75 251.445312 L 261.75 279.542969 C 261.75 283.671875 258.402344 287.023438 254.277344 287.023438 L 219.820312 287.023438 C 215.6875 287.023438 212.34375 283.671875 212.34375 279.542969 " fill-opacity="1" fill-rule="nonzero"/><path fill="rgb(74.119568%, 51.368713%, 100%)" d="M 259.328125 253.714844 L 300.121094 253.714844 C 306.316406 253.714844 311.335938 258.738281 311.335938 264.929688 C 311.335938 271.121094 306.316406 276.144531 300.121094 276.144531 L 259.328125 276.144531 C 253.128906 276.144531 248.109375 271.121094 248.109375 264.929688 C 248.109375 258.738281 253.128906 253.714844 259.328125 253.714844 " fill-opacity="1" fill-rule="evenodd"/><path fill="rgb(74.119568%, 51.368713%, 100%)" d="M 293.96875 279.542969 L 293.96875 251.546875 C 293.96875 247.429688 297.300781 244.085938 301.417969 244.074219 L 301.441406 244.105469 L 334.660156 244.003906 C 334.886719 243.984375 335.113281 243.972656 335.34375 243.972656 C 339.472656 243.972656 342.820312 247.320312 342.820312 251.445312 L 342.820312 279.542969 C 342.820312 283.671875 339.472656 287.023438 335.34375 287.023438 L 301.441406 287.023438 C 297.308594 287.023438 293.96875 283.671875 293.96875 279.542969 " fill-opacity="1" fill-rule="nonzero"/><path fill="rgb(74.119568%, 51.368713%, 100%)" d="M 502.011719 314.929688 C 502.425781 314.925781 502.847656 314.949219 503.269531 315.015625 L 503.335938 315.027344 L 503.425781 315.042969 C 504.09375 315.152344 504.730469 315.355469 505.316406 315.628906 L 505.605469 315.773438 L 505.71875 315.832031 L 505.722656 315.832031 L 505.734375 315.839844 L 505.878906 315.925781 C 506.507812 316.285156 507.070312 316.726562 507.558594 317.234375 L 525.636719 335.308594 C 527.09375 336.769531 527.824219 338.679688 527.824219 340.597656 L 527.824219 627.691406 C 527.824219 632.222656 525.964844 636.355469 522.957031 639.367188 L 522.960938 639.367188 L 522.949219 639.382812 L 522.960938 639.398438 C 522.773438 639.585938 522.582031 639.757812 522.382812 639.921875 C 519.421875 642.613281 515.515625 644.261719 511.253906 644.261719 L 437.082031 644.261719 C 432.546875 644.261719 428.417969 642.402344 425.398438 639.398438 L 425.382812 639.382812 L 425.367188 639.398438 C 425.179688 639.214844 425.007812 639.019531 424.847656 638.820312 C 422.152344 635.863281 420.507812 631.957031 420.507812 627.691406 L 420.507812 340.597656 C 420.507812 338.515625 421.359375 336.632812 422.730469 335.277344 L 440.855469 317.15625 L 440.882812 317.121094 L 441.015625 316.996094 L 441.027344 316.988281 L 441.144531 316.871094 L 441.148438 316.871094 C 441.320312 316.714844 441.503906 316.5625 441.6875 316.425781 L 441.707031 316.410156 C 442.039062 316.164062 442.390625 315.945312 442.753906 315.761719 L 442.785156 315.742188 L 442.9375 315.664062 L 443.085938 315.601562 L 443.117188 315.585938 L 443.246094 315.527344 L 443.296875 315.507812 L 443.394531 315.46875 L 443.546875 315.40625 L 443.667969 315.363281 L 443.722656 315.347656 L 443.839844 315.304688 L 443.898438 315.285156 L 444.035156 315.246094 L 444.054688 315.238281 L 444.214844 315.195312 L 444.222656 315.1875 C 444.511719 315.113281 444.800781 315.050781 445.097656 315.011719 L 445.109375 315.007812 L 445.269531 314.988281 L 445.300781 314.980469 L 445.449219 314.964844 L 445.480469 314.964844 L 445.625 314.949219 L 445.675781 314.949219 L 445.808594 314.941406 L 445.8125 314.941406 L 445.980469 314.9375 L 445.992188 314.9375 L 446.171875 314.929688 L 502.011719 314.929688 " fill-opacity="1" fill-rule="nonzero"/><path fill="rgb(74.119568%, 51.368713%, 100%)" d="M 468.164062 165.738281 L 480.171875 165.738281 C 484.699219 165.738281 488.835938 167.597656 491.847656 170.601562 L 491.863281 170.617188 L 491.878906 170.601562 C 492.0625 170.785156 492.238281 170.980469 492.398438 171.179688 C 495.09375 174.136719 496.738281 178.042969 496.738281 182.308594 L 496.738281 322.410156 C 496.738281 326.539062 493.390625 329.890625 489.261719 329.890625 L 459.066406 329.890625 C 454.941406 329.890625 451.59375 326.539062 451.59375 322.410156 L 451.59375 182.308594 C 451.59375 177.777344 453.453125 173.644531 456.457031 170.632812 L 456.453125 170.632812 L 456.464844 170.617188 L 456.453125 170.601562 C 456.640625 170.414062 456.832031 170.242188 457.035156 170.078125 C 459.992188 167.386719 463.898438 165.738281 468.164062 165.738281 " fill-opacity="1" fill-rule="nonzero"/><path fill="rgb(74.119568%, 51.368713%, 100%)" d="M 589.074219 558.554688 C 598.949219 558.554688 607.890625 562.558594 614.367188 569.027344 C 620.835938 575.503906 624.839844 584.445312 624.839844 594.320312 C 624.839844 604.199219 620.835938 613.144531 614.367188 619.613281 C 607.890625 626.082031 598.949219 630.089844 589.074219 630.089844 C 579.195312 630.089844 570.257812 626.082031 563.78125 619.613281 C 557.3125 613.144531 553.304688 604.199219 553.304688 594.320312 C 553.304688 584.445312 557.3125 575.503906 563.78125 569.027344 C 570.257812 562.558594 579.195312 558.554688 589.074219 558.554688 " fill-opacity="1" fill-rule="nonzero"/><path fill="rgb(74.119568%, 51.368713%, 100%)" d="M 405 0 C 627.753906 0 810 182.246094 810 405 C 810 627.753906 627.753906 810 405 810 C 182.246094 810 0 627.753906 0 405 C 0 182.246094 182.246094 0 405 0 Z M 405 44.859375 C 206.921875 44.859375 44.859375 206.921875 44.859375 405 C 44.859375 603.078125 206.921875 765.140625 405 765.140625 C 603.074219 765.140625 765.140625 603.078125 765.140625 405 C 765.140625 206.921875 603.074219 44.859375 405 44.859375 " fill-opacity="1" fill-rule="evenodd"/></svg>