<svg xmlns="http://www.w3.org/2000/svg" xmlns:xlink="http://www.w3.org/1999/xlink" width="810" zoomAndPan="magnify" viewBox="0 0 810 809.999993" height="809.999993" preserveAspectRatio="xMidYMid meet" version="1.0"><path fill="rgb(74.119568%, 51.368713%, 100%)" d="M 748.125 61.875 L 748.125 92.769531 C 744.785156 94.789062 740.984375 95.824219 737.007812 95.824219 C 725.054688 95.824219 715.339844 86.109375 715.339844 74.15625 C 715.339844 69.699219 716.660156 65.5 719.164062 61.875 Z M 748.125 748.101562 L 720.066406 748.101562 C 717.011719 744.28125 715.339844 739.578125 715.339844 734.65625 C 715.339844 722.703125 725.054688 712.992188 737.007812 712.992188 C 740.960938 712.992188 744.742188 714.046875 748.125 716.089844 Z M 61.875 748.101562 L 61.875 716.066406 C 65.238281 714.046875 69.039062 712.992188 73.015625 712.992188 C 84.96875 712.992188 94.679688 722.703125 94.679688 734.65625 C 94.679688 739.554688 93.011719 744.257812 89.933594 748.101562 Z M 61.875 61.875 L 90.835938 61.875 C 93.363281 65.480469 94.679688 69.699219 94.679688 74.15625 C 94.679688 86.109375 84.96875 95.824219 73.015625 95.824219 C 69.039062 95.824219 65.238281 94.769531 61.875 92.746094 Z M 737.007812 107.074219 C 740.808594 107.074219 744.566406 106.371094 748.125 105.09375 L 748.125 703.71875 C 744.585938 702.421875 740.851562 701.742188 737.007812 701.742188 C 718.855469 701.742188 704.089844 716.507812 704.089844 734.65625 C 704.089844 739.378906 705.167969 743.929688 707.078125 748.101562 L 102.917969 748.101562 C 104.832031 743.90625 105.929688 739.378906 105.929688 734.65625 C 105.929688 716.507812 91.164062 701.742188 73.015625 701.742188 C 69.214844 701.742188 65.433594 702.445312 61.875 703.738281 L 61.875 105.117188 C 65.414062 106.390625 69.148438 107.074219 73.015625 107.074219 C 91.164062 107.074219 105.929688 92.308594 105.929688 74.15625 C 105.929688 69.917969 105.050781 65.765625 103.46875 61.875 L 706.550781 61.875 C 704.96875 65.765625 704.089844 69.917969 704.089844 74.15625 C 704.089844 92.308594 718.855469 107.074219 737.007812 107.074219 Z M 96.109375 50.625 L 50.625 50.625 L 50.625 759.375 L 759.375 759.375 L 759.375 50.625 Z M 627.121094 687.855469 C 621.34375 687.855469 616.640625 683.152344 616.640625 677.351562 C 616.640625 671.59375 621.34375 666.871094 627.121094 666.871094 C 632.898438 666.871094 637.601562 671.59375 637.601562 677.351562 C 637.601562 683.152344 632.898438 687.855469 627.121094 687.855469 Z M 608.269531 687.855469 L 201.730469 687.855469 C 203.464844 684.734375 204.457031 681.175781 204.457031 677.351562 C 204.457031 673.570312 203.464844 669.988281 201.730469 666.871094 L 608.269531 666.871094 C 606.53125 669.988281 605.542969 673.570312 605.542969 677.351562 C 605.542969 681.175781 606.53125 684.734375 608.269531 687.855469 Z M 182.878906 687.855469 C 177.097656 687.855469 172.398438 683.152344 172.398438 677.351562 C 172.398438 671.59375 177.097656 666.871094 182.878906 666.871094 C 188.65625 666.871094 193.382812 671.59375 193.382812 677.351562 C 193.382812 683.152344 188.65625 687.855469 182.878906 687.855469 Z M 627.121094 655.773438 L 182.878906 655.773438 C 170.992188 655.773438 161.300781 665.464844 161.300781 677.351562 C 161.300781 689.261719 170.992188 698.949219 182.878906 698.949219 L 627.121094 698.949219 C 639.03125 698.949219 648.699219 689.261719 648.699219 677.351562 C 648.699219 665.464844 639.03125 655.773438 627.121094 655.773438 Z M 627.121094 143.109375 C 621.34375 143.109375 616.640625 138.40625 616.640625 132.628906 C 616.640625 126.847656 621.34375 122.144531 627.121094 122.144531 C 632.898438 122.144531 637.601562 126.847656 637.601562 132.628906 C 637.601562 138.40625 632.898438 143.109375 627.121094 143.109375 Z M 608.269531 143.109375 L 201.730469 143.109375 C 203.464844 140.011719 204.457031 136.429688 204.457031 132.628906 C 204.457031 128.824219 203.464844 125.246094 201.730469 122.144531 L 608.269531 122.144531 C 606.53125 125.246094 605.542969 128.824219 605.542969 132.628906 C 605.542969 136.429688 606.53125 140.011719 608.269531 143.109375 Z M 182.878906 143.109375 C 177.097656 143.109375 172.398438 138.40625 172.398438 132.628906 C 172.398438 126.847656 177.097656 122.144531 182.878906 122.144531 C 188.65625 122.144531 193.382812 126.847656 193.382812 132.628906 C 193.382812 138.40625 188.65625 143.109375 182.878906 143.109375 Z M 627.121094 111.050781 L 182.878906 111.050781 C 170.992188 111.050781 161.300781 120.738281 161.300781 132.628906 C 161.300781 144.535156 170.992188 154.203125 182.878906 154.203125 L 627.121094 154.203125 C 639.03125 154.203125 648.699219 144.535156 648.699219 132.628906 C 648.699219 120.738281 639.03125 111.050781 627.121094 111.050781 Z M 677.371094 193.359375 C 671.59375 193.359375 666.890625 188.65625 666.890625 182.878906 C 666.890625 177.101562 671.59375 172.398438 677.371094 172.398438 C 683.152344 172.398438 687.855469 177.101562 687.855469 182.878906 C 687.855469 188.65625 683.152344 193.359375 677.371094 193.359375 Z M 687.855469 608.269531 C 684.753906 606.53125 681.175781 605.542969 677.371094 605.542969 C 673.570312 605.542969 669.988281 606.53125 666.890625 608.269531 L 666.890625 201.730469 C 669.988281 203.46875 673.570312 204.457031 677.371094 204.457031 C 681.175781 204.457031 684.753906 203.46875 687.855469 201.730469 Z M 677.371094 637.601562 C 671.59375 637.601562 666.890625 632.898438 666.890625 627.121094 C 666.890625 621.34375 671.59375 616.617188 677.371094 616.617188 C 683.152344 616.617188 687.855469 621.34375 687.855469 627.121094 C 687.855469 632.898438 683.152344 637.601562 677.371094 637.601562 Z M 677.371094 161.300781 C 665.464844 161.300781 655.796875 170.992188 655.796875 182.878906 L 655.796875 627.121094 C 655.796875 639.007812 665.464844 648.699219 677.371094 648.699219 C 689.261719 648.699219 698.949219 639.007812 698.949219 627.121094 L 698.949219 182.878906 C 698.949219 170.992188 689.261719 161.300781 677.371094 161.300781 Z M 132.625 193.359375 C 126.847656 193.359375 122.144531 188.65625 122.144531 182.878906 C 122.144531 177.101562 126.847656 172.398438 132.625 172.398438 C 138.40625 172.398438 143.128906 177.101562 143.128906 182.878906 C 143.128906 188.65625 138.40625 193.359375 132.625 193.359375 Z M 143.128906 608.269531 C 140.007812 606.53125 136.449219 605.542969 132.625 605.542969 C 128.824219 605.542969 125.265625 606.53125 122.144531 608.269531 L 122.144531 201.730469 C 125.265625 203.46875 128.824219 204.457031 132.625 204.457031 C 136.449219 204.457031 140.007812 203.46875 143.128906 201.730469 Z M 132.625 637.601562 C 126.847656 637.601562 122.144531 632.898438 122.144531 627.121094 C 122.144531 621.34375 126.847656 616.617188 132.625 616.617188 C 138.40625 616.617188 143.128906 621.34375 143.128906 627.121094 C 143.128906 632.898438 138.40625 637.601562 132.625 637.601562 Z M 132.625 161.300781 C 120.738281 161.300781 111.050781 170.992188 111.050781 182.878906 L 111.050781 627.121094 C 111.050781 639.007812 120.738281 648.699219 132.625 648.699219 C 144.535156 648.699219 154.203125 639.007812 154.203125 627.121094 L 154.203125 182.878906 C 154.203125 170.992188 144.535156 161.300781 132.625 161.300781 Z M 798.902344 756.453125 C 798.902344 779.851562 779.851562 798.902344 756.453125 798.902344 L 53.546875 798.902344 C 30.148438 798.902344 11.097656 779.851562 11.097656 756.453125 L 11.097656 53.546875 C 11.097656 30.148438 30.148438 11.097656 53.546875 11.097656 L 756.453125 11.097656 C 779.851562 11.097656 798.902344 30.148438 798.902344 53.546875 Z M 756.453125 0 L 53.546875 0 C 24.015625 0 0 24.015625 0 53.546875 L 0 756.453125 C 0 785.984375 24.015625 810 53.546875 810 L 756.453125 810 C 785.984375 810 810 785.984375 810 756.453125 L 810 53.546875 C 810 24.015625 785.984375 0 756.453125 0 Z M 403.921875 424.421875 C 404.296875 424.445312 404.648438 424.46875 405 424.46875 C 405.375 424.46875 405.726562 424.445312 406.078125 424.421875 C 407.613281 430.464844 408.84375 437.71875 408.84375 445.472656 C 408.84375 454.988281 407 463.734375 405 470.433594 C 403 463.734375 401.175781 454.988281 401.175781 445.472656 C 401.175781 437.71875 402.386719 430.464844 403.921875 424.421875 Z M 350.574219 467.136719 C 355.101562 465.535156 372.371094 458.746094 386.9375 444.175781 C 388.082031 443.035156 389.15625 441.890625 390.210938 440.726562 C 390.125 442.289062 390.058594 443.871094 390.058594 445.472656 C 390.058594 466.148438 397.527344 483.222656 399.574219 487.484375 C 380.875 486.253906 363.84375 478.785156 350.574219 467.136719 Z M 322.535156 410.425781 C 326.800781 412.46875 343.851562 419.941406 364.527344 419.941406 C 366.152344 419.941406 367.710938 419.875 369.292969 419.789062 C 368.128906 420.84375 366.964844 421.917969 365.824219 423.0625 C 351.253906 437.628906 344.464844 454.898438 342.859375 459.425781 C 331.214844 446.15625 323.746094 429.125 322.535156 410.425781 Z M 342.859375 350.550781 C 344.464844 355.101562 351.253906 372.371094 365.824219 386.9375 C 366.964844 388.082031 368.128906 389.15625 369.292969 390.210938 C 367.710938 390.125 366.152344 390.058594 364.527344 390.058594 C 343.851562 390.058594 326.800781 397.53125 322.535156 399.574219 C 323.746094 380.875 331.214844 363.84375 342.859375 350.550781 Z M 373.667969 379.09375 C 366.941406 372.371094 362.042969 364.878906 358.726562 358.726562 C 364.878906 362.042969 372.371094 366.945312 379.09375 373.667969 C 384.585938 379.160156 388.828125 385.136719 392.035156 390.519531 C 391.488281 391.003906 390.980469 391.488281 390.496094 392.035156 C 385.160156 388.851562 379.183594 384.585938 373.667969 379.09375 Z M 385.574219 403.921875 C 385.554688 404.273438 385.53125 404.625 385.53125 405 C 385.53125 405.375 385.554688 405.726562 385.574219 406.078125 C 379.535156 407.613281 372.304688 408.84375 364.527344 408.84375 C 355.011719 408.84375 346.246094 406.976562 339.542969 405 C 346.222656 403 354.96875 401.15625 364.527344 401.15625 C 372.28125 401.15625 379.535156 402.386719 385.574219 403.921875 Z M 373.667969 430.90625 C 379.160156 425.414062 385.160156 421.171875 390.519531 417.964844 C 391.003906 418.511719 391.507812 419.019531 392.035156 419.5 C 388.851562 424.839844 384.609375 430.816406 379.09375 436.332031 C 372.371094 443.054688 364.855469 447.957031 358.703125 451.296875 C 362.019531 445.144531 366.921875 437.652344 373.667969 430.90625 Z M 399.574219 322.515625 C 397.527344 326.777344 390.058594 343.851562 390.058594 364.527344 C 390.058594 366.128906 390.125 367.710938 390.210938 369.273438 C 389.15625 368.109375 388.082031 366.964844 386.9375 365.824219 C 372.371094 351.253906 355.101562 344.464844 350.574219 342.863281 C 363.84375 331.214844 380.875 323.746094 399.574219 322.515625 Z M 405.023438 339.523438 C 407 346.222656 408.84375 354.96875 408.84375 364.527344 C 408.84375 372.28125 407.613281 379.535156 406.078125 385.578125 C 405.726562 385.554688 405.375 385.511719 405 385.511719 C 404.625 385.511719 404.273438 385.554688 403.921875 385.578125 C 402.386719 379.535156 401.175781 372.304688 401.175781 364.527344 C 401.175781 355.011719 403.023438 346.222656 405.023438 339.523438 Z M 419.941406 445.472656 C 419.941406 443.871094 419.875 442.289062 419.808594 440.707031 C 420.84375 441.890625 421.917969 443.035156 423.0625 444.175781 C 437.628906 458.746094 454.898438 465.535156 459.449219 467.136719 C 446.15625 478.785156 429.125 486.253906 410.425781 487.484375 C 412.46875 483.222656 419.941406 466.148438 419.941406 445.472656 Z M 459.449219 342.863281 C 454.898438 344.464844 437.628906 351.253906 423.0625 365.824219 C 421.917969 366.964844 420.84375 368.109375 419.808594 369.273438 C 419.875 367.710938 419.941406 366.128906 419.941406 364.527344 C 419.941406 343.851562 412.46875 326.777344 410.425781 322.515625 C 429.148438 323.746094 446.15625 331.214844 459.449219 342.863281 Z M 487.484375 399.574219 C 483.222656 397.53125 466.171875 390.058594 445.472656 390.058594 C 443.871094 390.058594 442.289062 390.125 440.726562 390.210938 C 441.890625 389.15625 443.035156 388.082031 444.175781 386.9375 C 458.746094 372.371094 465.535156 355.101562 467.136719 350.550781 C 478.785156 363.84375 486.253906 380.875 487.484375 399.574219 Z M 419.5 417.964844 C 424.863281 421.171875 430.839844 425.414062 436.332031 430.90625 C 443.078125 437.628906 447.957031 445.144531 451.296875 451.296875 C 445.164062 447.976562 437.652344 443.078125 430.90625 436.332031 C 425.414062 430.839844 421.171875 424.839844 417.984375 419.480469 C 418.511719 419.019531 419.019531 418.511719 419.5 417.964844 Z M 436.332031 379.09375 C 430.839844 384.585938 424.863281 388.828125 419.5 392.015625 C 419.019531 391.488281 418.511719 390.980469 417.964844 390.5 C 421.148438 385.160156 425.414062 379.160156 430.90625 373.667969 C 437.628906 366.945312 445.121094 362.042969 451.273438 358.726562 C 447.957031 364.878906 443.054688 372.371094 436.332031 379.09375 Z M 424.421875 403.921875 C 430.488281 402.386719 437.71875 401.15625 445.472656 401.15625 C 455.007812 401.15625 463.777344 403 470.476562 405 C 463.796875 407 455.03125 408.84375 445.472656 408.84375 C 437.71875 408.84375 430.488281 407.613281 424.421875 406.078125 C 424.445312 405.703125 424.488281 405.351562 424.488281 405 C 424.488281 404.625 424.445312 404.273438 424.421875 403.921875 Z M 467.136719 459.449219 C 465.535156 454.898438 458.746094 437.628906 444.175781 423.0625 C 443.035156 421.917969 441.871094 420.84375 440.707031 419.789062 C 442.289062 419.875 443.871094 419.941406 445.472656 419.941406 C 466.171875 419.941406 483.222656 412.46875 487.484375 410.425781 C 486.253906 429.125 478.785156 446.15625 467.136719 459.449219 Z M 498.777344 405 C 498.777344 353.296875 456.703125 311.222656 405 311.222656 C 353.296875 311.222656 311.242188 353.296875 311.242188 405 C 311.242188 456.703125 353.296875 498.777344 405 498.777344 C 456.703125 498.777344 498.777344 456.703125 498.777344 405 " fill-opacity="1" fill-rule="nonzero"/></svg>