<svg xmlns="http://www.w3.org/2000/svg" xmlns:xlink="http://www.w3.org/1999/xlink" width="810" zoomAndPan="magnify" viewBox="0 0 810 809.999993" height="809.999993" preserveAspectRatio="xMidYMid meet" version="1.0"><path fill="rgb(87.838745%, 31.759644%, 69.799805%)" d="M 810.015625 404.949219 L 404.960938 810 L 0.046875 405.089844 L 405.101562 0.0351562 Z M 404.960938 798.414062 L 798.433594 404.949219 L 405.101562 11.617188 L 11.632812 405.089844 L 404.960938 798.414062 " fill-opacity="1" fill-rule="nonzero"/><path fill="rgb(87.838745%, 31.759644%, 69.799805%)" d="M 404.960938 766.691406 L 43.371094 405.089844 L 405.101562 43.351562 L 766.695312 404.949219 L 404.960938 766.691406 " fill-opacity="1" fill-rule="nonzero"/><path fill="rgb(87.838745%, 31.759644%, 69.799805%)" d="M 144.316406 405.089844 L 100.886719 448.535156 L 57.445312 405.089844 L 100.886719 361.652344 L 144.316406 405.089844 " fill-opacity="1" fill-rule="nonzero"/><path fill="rgb(100%, 100%, 100%)" d="M 187.761719 361.65625 L 144.316406 405.089844 L 100.886719 361.652344 L 144.316406 318.210938 L 187.761719 361.65625 " fill-opacity="1" fill-rule="nonzero"/><path fill="rgb(87.838745%, 31.759644%, 69.799805%)" d="M 231.359375 318.050781 L 187.921875 361.488281 L 144.480469 318.050781 L 187.921875 274.609375 L 231.359375 318.050781 " fill-opacity="1" fill-rule="nonzero"/><path fill="rgb(100%, 100%, 100%)" d="M 274.800781 274.609375 L 231.359375 318.050781 L 187.921875 274.609375 L 231.359375 231.167969 L 274.800781 274.609375 " fill-opacity="1" fill-rule="nonzero"/><path fill="rgb(87.838745%, 31.759644%, 69.799805%)" d="M 318.253906 231.167969 L 274.800781 274.609375 L 231.359375 231.167969 L 274.800781 187.730469 L 318.253906 231.167969 " fill-opacity="1" fill-rule="nonzero"/><path fill="rgb(100%, 100%, 100%)" d="M 361.6875 187.730469 L 318.253906 231.167969 L 274.800781 187.730469 L 318.253906 144.289062 L 361.6875 187.730469 " fill-opacity="1" fill-rule="nonzero"/><path fill="rgb(87.838745%, 31.759644%, 69.799805%)" d="M 405.125 144.289062 L 361.6875 187.730469 L 318.253906 144.289062 L 361.6875 100.84375 L 405.125 144.289062 " fill-opacity="1" fill-rule="nonzero"/><path fill="rgb(100%, 100%, 100%)" d="M 448.570312 100.855469 L 405.125 144.289062 L 361.6875 100.84375 L 405.125 57.40625 L 448.570312 100.855469 " fill-opacity="1" fill-rule="nonzero"/><path fill="rgb(87.838745%, 31.759644%, 69.799805%)" d="M 448.648438 187.652344 L 492.082031 144.210938 L 448.640625 100.769531 L 405.207031 144.207031 L 448.648438 187.652344 " fill-opacity="1" fill-rule="nonzero"/><path fill="rgb(100%, 100%, 100%)" d="M 405.207031 231.078125 L 448.648438 187.652344 L 405.207031 144.207031 L 361.769531 187.652344 L 405.207031 231.078125 " fill-opacity="1" fill-rule="nonzero"/><path fill="rgb(87.838745%, 31.759644%, 69.799805%)" d="M 361.59375 274.691406 L 405.046875 231.253906 L 361.59375 187.808594 L 318.164062 231.253906 L 361.59375 274.691406 " fill-opacity="1" fill-rule="nonzero"/><path fill="rgb(100%, 100%, 100%)" d="M 318.164062 318.132812 L 361.59375 274.691406 L 318.164062 231.253906 L 274.714844 274.691406 L 318.164062 318.132812 " fill-opacity="1" fill-rule="nonzero"/><path fill="rgb(87.838745%, 31.759644%, 69.799805%)" d="M 274.714844 361.578125 L 318.164062 318.132812 L 274.714844 274.691406 L 231.289062 318.132812 L 274.714844 361.578125 " fill-opacity="1" fill-rule="nonzero"/><path fill="rgb(100%, 100%, 100%)" d="M 231.289062 405.015625 L 274.714844 361.578125 L 231.289062 318.132812 L 187.839844 361.578125 L 231.289062 405.015625 " fill-opacity="1" fill-rule="nonzero"/><path fill="rgb(87.838745%, 31.759644%, 69.799805%)" d="M 187.839844 448.449219 L 231.289062 405.015625 L 187.839844 361.578125 L 144.410156 405.007812 L 187.839844 448.449219 " fill-opacity="1" fill-rule="nonzero"/><path fill="rgb(100%, 100%, 100%)" d="M 144.410156 491.886719 L 187.839844 448.449219 L 144.410156 405.007812 L 100.964844 448.449219 L 144.410156 491.886719 " fill-opacity="1" fill-rule="nonzero"/><path fill="rgb(87.838745%, 31.759644%, 69.799805%)" d="M 231.160156 492.011719 L 187.722656 535.457031 L 144.285156 492.011719 L 187.722656 448.566406 L 231.160156 492.011719 " fill-opacity="1" fill-rule="nonzero"/><path fill="rgb(100%, 100%, 100%)" d="M 274.605469 448.566406 L 231.160156 492.011719 L 187.722656 448.566406 L 231.160156 405.132812 L 274.605469 448.566406 " fill-opacity="1" fill-rule="nonzero"/><path fill="rgb(87.838745%, 31.759644%, 69.799805%)" d="M 318.199219 404.96875 L 274.765625 448.414062 L 231.324219 404.96875 L 274.765625 361.539062 L 318.199219 404.96875 " fill-opacity="1" fill-rule="nonzero"/><path fill="rgb(100%, 100%, 100%)" d="M 361.648438 361.527344 L 318.199219 404.96875 L 274.765625 361.539062 L 318.199219 318.089844 L 361.648438 361.527344 " fill-opacity="1" fill-rule="nonzero"/><path fill="rgb(87.838745%, 31.759644%, 69.799805%)" d="M 405.082031 318.089844 L 361.648438 361.527344 L 318.199219 318.089844 L 361.648438 274.644531 L 405.082031 318.089844 " fill-opacity="1" fill-rule="nonzero"/><path fill="rgb(100%, 100%, 100%)" d="M 448.527344 274.644531 L 405.082031 318.089844 L 361.648438 274.644531 L 405.089844 231.207031 L 448.527344 274.644531 " fill-opacity="1" fill-rule="nonzero"/><path fill="rgb(87.838745%, 31.759644%, 69.799805%)" d="M 491.972656 231.203125 L 448.527344 274.644531 L 405.089844 231.207031 L 448.527344 187.773438 L 491.972656 231.203125 " fill-opacity="1" fill-rule="nonzero"/><path fill="rgb(100%, 100%, 100%)" d="M 535.398438 187.773438 L 491.972656 231.203125 L 448.527344 187.773438 L 491.972656 144.332031 L 535.398438 187.773438 " fill-opacity="1" fill-rule="nonzero"/><path fill="rgb(87.838745%, 31.759644%, 69.799805%)" d="M 535.488281 274.558594 L 578.925781 231.125 L 535.488281 187.691406 L 492.046875 231.125 L 535.488281 274.558594 " fill-opacity="1" fill-rule="nonzero"/><path fill="rgb(100%, 100%, 100%)" d="M 492.046875 318.007812 L 535.488281 274.558594 L 492.046875 231.125 L 448.605469 274.558594 L 492.046875 318.007812 " fill-opacity="1" fill-rule="nonzero"/><path fill="rgb(87.838745%, 31.759644%, 69.799805%)" d="M 448.445312 361.613281 L 491.886719 318.179688 L 448.445312 274.738281 L 405.003906 318.179688 L 448.445312 361.613281 " fill-opacity="1" fill-rule="nonzero"/><path fill="rgb(100%, 100%, 100%)" d="M 405.003906 405.054688 L 448.445312 361.613281 L 405.003906 318.179688 L 361.558594 361.613281 L 405.003906 405.054688 " fill-opacity="1" fill-rule="nonzero"/><path fill="rgb(87.838745%, 31.759644%, 69.799805%)" d="M 361.558594 448.492188 L 405.003906 405.054688 L 361.558594 361.613281 L 318.117188 405.054688 L 361.558594 448.492188 " fill-opacity="1" fill-rule="nonzero"/><path fill="rgb(100%, 100%, 100%)" d="M 318.117188 491.933594 L 361.558594 448.492188 L 318.117188 405.054688 L 274.6875 448.492188 L 318.117188 491.933594 " fill-opacity="1" fill-rule="nonzero"/><path fill="rgb(87.838745%, 31.759644%, 69.799805%)" d="M 274.6875 535.375 L 318.117188 491.933594 L 274.6875 448.492188 L 231.238281 491.933594 L 274.6875 535.375 " fill-opacity="1" fill-rule="nonzero"/><path fill="rgb(100%, 100%, 100%)" d="M 231.238281 578.804688 L 274.6875 535.375 L 231.238281 491.933594 L 187.796875 535.375 L 231.238281 578.804688 " fill-opacity="1" fill-rule="nonzero"/><path fill="rgb(87.838745%, 31.759644%, 69.799805%)" d="M 318.015625 578.914062 L 274.574219 622.359375 L 231.144531 578.914062 L 274.574219 535.464844 L 318.015625 578.914062 " fill-opacity="1" fill-rule="nonzero"/><path fill="rgb(100%, 100%, 100%)" d="M 361.457031 535.464844 L 318.015625 578.914062 L 274.574219 535.464844 L 318.015625 492.035156 L 361.457031 535.464844 " fill-opacity="1" fill-rule="nonzero"/><path fill="rgb(87.838745%, 31.759644%, 69.799805%)" d="M 405.070312 491.867188 L 361.632812 535.308594 L 318.191406 491.867188 L 361.617188 448.429688 L 405.070312 491.867188 " fill-opacity="1" fill-rule="nonzero"/><path fill="rgb(100%, 100%, 100%)" d="M 448.511719 448.429688 L 405.070312 491.867188 L 361.617188 448.429688 L 405.070312 404.988281 L 448.511719 448.429688 " fill-opacity="1" fill-rule="nonzero"/><path fill="rgb(87.838745%, 31.759644%, 69.799805%)" d="M 491.949219 404.988281 L 448.511719 448.429688 L 405.070312 404.988281 L 448.5 361.558594 L 491.949219 404.988281 " fill-opacity="1" fill-rule="nonzero"/><path fill="rgb(100%, 100%, 100%)" d="M 535.390625 361.558594 L 491.949219 404.988281 L 448.5 361.558594 L 491.949219 318.109375 L 535.390625 361.558594 " fill-opacity="1" fill-rule="nonzero"/><path fill="rgb(87.838745%, 31.759644%, 69.799805%)" d="M 578.820312 318.109375 L 535.390625 361.558594 L 491.949219 318.109375 L 535.390625 274.675781 L 578.820312 318.109375 " fill-opacity="1" fill-rule="nonzero"/><path fill="rgb(100%, 100%, 100%)" d="M 622.265625 274.675781 L 578.820312 318.109375 L 535.390625 274.675781 L 578.820312 231.230469 L 622.265625 274.675781 " fill-opacity="1" fill-rule="nonzero"/><path fill="rgb(87.838745%, 31.759644%, 69.799805%)" d="M 622.347656 361.460938 L 665.777344 318.027344 L 622.347656 274.585938 L 578.894531 318.027344 L 622.347656 361.460938 " fill-opacity="1" fill-rule="nonzero"/><path fill="rgb(100%, 100%, 100%)" d="M 578.894531 404.910156 L 622.347656 361.460938 L 578.894531 318.027344 L 535.464844 361.460938 L 578.894531 404.910156 " fill-opacity="1" fill-rule="nonzero"/><path fill="rgb(87.838745%, 31.759644%, 69.799805%)" d="M 535.304688 448.515625 L 578.742188 405.074219 L 535.304688 361.632812 L 491.863281 405.074219 L 535.304688 448.515625 " fill-opacity="1" fill-rule="nonzero"/><path fill="rgb(100%, 100%, 100%)" d="M 491.863281 491.953125 L 535.304688 448.515625 L 491.863281 405.074219 L 448.421875 448.515625 L 491.863281 491.953125 " fill-opacity="1" fill-rule="nonzero"/><path fill="rgb(87.838745%, 31.759644%, 69.799805%)" d="M 448.421875 535.386719 L 491.863281 491.953125 L 448.421875 448.515625 L 404.980469 491.953125 L 448.421875 535.386719 " fill-opacity="1" fill-rule="nonzero"/><path fill="rgb(100%, 100%, 100%)" d="M 404.980469 578.824219 L 448.421875 535.386719 L 404.980469 491.953125 L 361.539062 535.394531 L 404.980469 578.824219 " fill-opacity="1" fill-rule="nonzero"/><path fill="rgb(87.838745%, 31.759644%, 69.799805%)" d="M 361.539062 622.277344 L 404.980469 578.824219 L 361.539062 535.394531 L 318.101562 578.824219 L 361.539062 622.277344 " fill-opacity="1" fill-rule="nonzero"/><path fill="rgb(100%, 100%, 100%)" d="M 318.101562 665.710938 L 361.539062 622.277344 L 318.101562 578.824219 L 274.664062 622.277344 L 318.101562 665.710938 " fill-opacity="1" fill-rule="nonzero"/><path fill="rgb(87.838745%, 31.759644%, 69.799805%)" d="M 404.863281 665.832031 L 361.417969 709.269531 L 317.976562 665.832031 L 361.417969 622.390625 L 404.863281 665.832031 " fill-opacity="1" fill-rule="nonzero"/><path fill="rgb(100%, 100%, 100%)" d="M 448.292969 622.390625 L 404.863281 665.832031 L 361.417969 622.390625 L 404.863281 578.953125 L 448.292969 622.390625 " fill-opacity="1" fill-rule="nonzero"/><path fill="rgb(87.838745%, 31.759644%, 69.799805%)" d="M 491.902344 578.789062 L 448.464844 622.234375 L 405.023438 578.789062 L 448.464844 535.351562 L 491.902344 578.789062 " fill-opacity="1" fill-rule="nonzero"/><path fill="rgb(100%, 100%, 100%)" d="M 535.339844 535.351562 L 491.902344 578.789062 L 448.464844 535.351562 L 491.902344 491.90625 L 535.339844 535.351562 " fill-opacity="1" fill-rule="nonzero"/><path fill="rgb(87.838745%, 31.759644%, 69.799805%)" d="M 578.777344 491.910156 L 535.339844 535.351562 L 491.902344 491.90625 L 535.339844 448.46875 L 578.777344 491.910156 " fill-opacity="1" fill-rule="nonzero"/><path fill="rgb(100%, 100%, 100%)" d="M 622.21875 448.46875 L 578.777344 491.910156 L 535.339844 448.46875 L 578.777344 405.035156 L 622.21875 448.46875 " fill-opacity="1" fill-rule="nonzero"/><path fill="rgb(87.838745%, 31.759644%, 69.799805%)" d="M 665.660156 405.035156 L 622.21875 448.46875 L 578.777344 405.035156 L 622.21875 361.59375 L 665.660156 405.035156 " fill-opacity="1" fill-rule="nonzero"/><path fill="rgb(100%, 100%, 100%)" d="M 709.089844 361.59375 L 665.660156 405.035156 L 622.21875 361.59375 L 665.660156 318.152344 L 709.089844 361.59375 " fill-opacity="1" fill-rule="nonzero"/><path fill="rgb(87.838745%, 31.759644%, 69.799805%)" d="M 709.183594 448.390625 L 752.621094 404.949219 L 709.183594 361.511719 L 665.738281 404.949219 L 709.183594 448.390625 " fill-opacity="1" fill-rule="nonzero"/><path fill="rgb(100%, 100%, 100%)" d="M 665.738281 491.828125 L 709.183594 448.390625 L 665.738281 404.949219 L 622.300781 448.390625 L 665.738281 491.828125 " fill-opacity="1" fill-rule="nonzero"/><path fill="rgb(87.838745%, 31.759644%, 69.799805%)" d="M 622.140625 535.433594 L 665.578125 491.996094 L 622.140625 448.550781 L 578.699219 491.988281 L 622.140625 535.433594 " fill-opacity="1" fill-rule="nonzero"/><path fill="rgb(100%, 100%, 100%)" d="M 578.699219 578.875 L 622.140625 535.433594 L 578.699219 491.988281 L 535.265625 535.433594 L 578.699219 578.875 " fill-opacity="1" fill-rule="nonzero"/><path fill="rgb(87.838745%, 31.759644%, 69.799805%)" d="M 535.265625 622.316406 L 578.699219 578.875 L 535.265625 535.433594 L 491.828125 578.875 L 535.265625 622.316406 " fill-opacity="1" fill-rule="nonzero"/><path fill="rgb(100%, 100%, 100%)" d="M 491.828125 665.753906 L 535.265625 622.316406 L 491.828125 578.875 L 448.371094 622.316406 L 491.828125 665.753906 " fill-opacity="1" fill-rule="nonzero"/><path fill="rgb(87.838745%, 31.759644%, 69.799805%)" d="M 448.371094 709.199219 L 491.828125 665.753906 L 448.371094 622.316406 L 404.933594 665.753906 L 448.371094 709.199219 " fill-opacity="1" fill-rule="nonzero"/><path fill="rgb(100%, 100%, 100%)" d="M 404.941406 752.628906 L 448.371094 709.199219 L 404.933594 665.753906 L 361.5 709.195312 L 404.941406 752.628906 " fill-opacity="1" fill-rule="nonzero"/><path fill="rgb(100%, 100%, 100%)" d="M 569.828125 552.996094 C 559.648438 552.996094 551.355469 544.699219 551.355469 534.511719 C 551.355469 528.621094 554.136719 523.28125 558.554688 519.875 C 558.378906 518.828125 558.304688 517.757812 558.304688 516.679688 C 558.304688 507.839844 563.960938 500.300781 571.84375 497.480469 L 581.433594 409.460938 C 577.273438 406.972656 574.476562 402.425781 574.476562 397.226562 C 574.476562 394.746094 575.109375 392.417969 576.226562 390.382812 L 570.78125 386.703125 L 570.78125 347.9375 L 620.394531 347.9375 L 620.394531 360.054688 L 620.828125 360.054688 L 620.828125 347.9375 L 670.4375 347.9375 L 670.4375 386.703125 L 664.992188 390.382812 C 666.109375 392.417969 666.738281 394.746094 666.738281 397.226562 C 666.738281 402.425781 663.945312 406.972656 659.777344 409.460938 L 669.339844 497.1875 C 677.683594 499.730469 683.78125 507.507812 683.78125 516.679688 C 683.78125 517.550781 683.726562 518.410156 683.609375 519.265625 C 688.492188 522.601562 691.628906 528.199219 691.628906 534.511719 C 691.628906 544.699219 683.347656 552.996094 673.152344 552.996094 L 569.828125 552.996094 " fill-opacity="1" fill-rule="nonzero"/><path fill="rgb(86.669922%, 54.508972%, 76.469421%)" d="M 674.296875 523.574219 C 675.566406 521.574219 676.308594 519.21875 676.308594 516.679688 C 676.308594 509.558594 670.527344 503.777344 663.40625 503.777344 L 662.539062 503.777344 L 651.667969 403.996094 L 652.503906 403.996094 C 656.242188 403.996094 659.273438 400.960938 659.273438 397.226562 C 659.273438 393.480469 656.242188 390.453125 652.503906 390.453125 L 651.539062 390.453125 L 662.957031 382.738281 L 662.957031 355.40625 L 628.296875 355.40625 L 628.296875 367.523438 L 612.921875 367.523438 L 612.921875 355.40625 L 578.257812 355.40625 L 578.257812 382.738281 L 589.679688 390.453125 L 588.714844 390.453125 C 584.980469 390.453125 581.941406 393.480469 581.941406 397.226562 C 581.941406 400.960938 584.980469 403.996094 588.714844 403.996094 L 589.542969 403.996094 L 578.675781 503.777344 C 571.546875 503.777344 565.773438 509.558594 565.773438 516.679688 C 565.773438 519.269531 566.542969 521.679688 567.855469 523.691406 C 562.722656 524.640625 558.832031 529.117188 558.832031 534.511719 C 558.832031 540.59375 563.75 545.527344 569.828125 545.527344 L 673.152344 545.527344 C 679.230469 545.527344 684.164062 540.59375 684.164062 534.511719 C 684.164062 528.820312 679.839844 524.144531 674.296875 523.574219 Z M 582.917969 379.0625 L 582.917969 359.179688 L 591.265625 359.179688 L 590.832031 379.0625 L 594.34375 386.855469 Z M 580.542969 525.375 L 579.800781 525.375 C 575 525.375 571.121094 521.488281 571.121094 516.695312 C 571.121094 511.902344 575 508.015625 579.800781 508.015625 L 580.542969 508.015625 C 577.578125 509.769531 575.578125 513 575.578125 516.695312 C 575.578125 520.398438 577.578125 523.613281 580.542969 525.375 Z M 594.34375 504.167969 L 585.550781 503.972656 L 595.65625 405.316406 L 600.421875 405.316406 L 594.34375 504.167969 " fill-opacity="1" fill-rule="nonzero"/><path fill="rgb(100%, 100%, 100%)" d="M 449.21875 577.808594 C 437.605469 577.808594 428.171875 568.355469 428.171875 556.75 C 428.171875 550.035156 431.335938 543.957031 436.371094 540.082031 C 436.175781 538.882812 436.078125 537.65625 436.078125 536.429688 C 436.078125 524.550781 445.058594 514.710938 456.597656 513.375 C 474.246094 489.132812 482.214844 432.808594 483.917969 387.332031 C 475.03125 386.242188 468.132812 378.648438 468.132812 369.476562 C 468.132812 363.617188 470.957031 358.402344 475.320312 355.105469 C 475.183594 354.261719 475.125 353.394531 475.125 352.523438 C 475.125 346.054688 478.550781 340.378906 483.683594 337.210938 C 481.117188 328.644531 476.632812 318.222656 468.738281 308.277344 L 457.777344 294.476562 L 481.835938 294.476562 C 484.761719 290.117188 489.273438 286.449219 494.867188 283.816406 C 494.664062 282.734375 494.5625 281.613281 494.5625 280.488281 C 494.5625 269.707031 503.992188 260.929688 515.585938 260.929688 C 527.179688 260.929688 536.617188 269.707031 536.617188 280.488281 C 536.617188 281.613281 536.511719 282.734375 536.3125 283.832031 C 541.910156 286.449219 546.410156 290.117188 549.332031 294.476562 L 573.394531 294.476562 L 562.4375 308.277344 C 554.542969 318.222656 550.046875 328.644531 547.496094 337.210938 C 552.621094 340.378906 556.046875 346.054688 556.046875 352.523438 C 556.046875 353.394531 555.984375 354.261719 555.859375 355.105469 C 560.222656 358.402344 563.03125 363.617188 563.03125 369.476562 C 563.03125 378.648438 556.144531 386.242188 547.265625 387.332031 C 548.96875 432.917969 556.972656 489.382812 574.703125 513.535156 C 585.667969 515.378906 594.058594 524.941406 594.058594 536.429688 C 594.058594 537.421875 593.996094 538.402344 593.871094 539.375 C 599.433594 543.175781 603.011719 549.5625 603.011719 556.75 C 603.011719 568.355469 593.566406 577.808594 581.957031 577.808594 L 449.21875 577.808594 " fill-opacity="1" fill-rule="nonzero"/><path fill="rgb(87.838745%, 31.759644%, 69.799805%)" d="M 583.257812 544.277344 C 584.699219 542.015625 585.546875 539.320312 585.546875 536.429688 C 585.546875 528.3125 578.964844 521.730469 570.847656 521.730469 L 570.335938 521.730469 C 542.191406 488.871094 538.878906 397.4375 538.5 378.957031 L 545.046875 378.957031 C 550.277344 378.957031 554.527344 374.710938 554.527344 369.476562 C 554.527344 364.238281 550.277344 360 545.046875 360 L 543.855469 360 C 546.09375 358.273438 547.535156 355.566406 547.535156 352.523438 C 547.535156 347.289062 543.289062 343.046875 538.058594 343.046875 L 537.253906 343.046875 C 539.292969 333.113281 544.167969 317.601562 555.773438 302.980469 L 544.066406 302.980469 C 542.054688 296.175781 534.167969 290.691406 523.882812 288.738281 C 526.464844 286.714844 528.101562 283.777344 528.101562 280.488281 C 528.101562 274.390625 522.507812 269.441406 515.585938 269.441406 C 508.683594 269.441406 503.066406 274.390625 503.066406 280.488281 C 503.066406 283.777344 504.710938 286.714844 507.292969 288.738281 C 497 290.691406 489.121094 296.175781 487.109375 302.980469 L 475.398438 302.980469 C 486.996094 317.601562 491.878906 333.113281 493.921875 343.046875 L 493.121094 343.046875 C 487.890625 343.046875 483.636719 347.289062 483.636719 352.523438 C 483.636719 355.566406 485.082031 358.273438 487.320312 360 L 486.128906 360 C 480.898438 360 476.652344 364.238281 476.652344 369.476562 C 476.652344 374.710938 480.898438 378.957031 486.128906 378.957031 L 492.679688 378.957031 C 492.289062 397.4375 488.984375 488.871094 460.839844 521.730469 L 459.296875 521.730469 C 451.179688 521.730469 444.59375 528.3125 444.59375 536.429688 C 444.59375 539.378906 445.472656 542.125 446.96875 544.425781 C 441.125 545.480469 436.675781 550.601562 436.675781 556.75 C 436.675781 563.679688 442.296875 569.28125 449.21875 569.28125 L 581.957031 569.28125 C 588.878906 569.28125 594.492188 563.679688 594.492188 556.75 C 594.492188 550.269531 589.570312 544.933594 583.257812 544.277344 Z M 488.863281 308.234375 L 500.128906 308.234375 C 502.796875 326.65625 500.128906 340.910156 500.128906 340.910156 C 498.625 327.777344 488.863281 308.234375 488.863281 308.234375 Z M 461.878906 545.90625 L 461.039062 545.90625 C 455.570312 545.90625 451.144531 541.472656 451.144531 536.007812 C 451.144531 530.550781 455.570312 526.121094 461.039062 526.121094 L 461.878906 526.121094 C 458.5 528.121094 456.226562 531.796875 456.226562 536.007812 C 456.226562 540.226562 458.5 543.898438 461.878906 545.90625 Z M 484.925781 521.734375 L 471.222656 521.734375 C 496.546875 486.691406 498.625 379.195312 498.625 379.195312 L 503.128906 379.195312 C 505.632812 473.683594 484.925781 521.734375 484.925781 521.734375 " fill-opacity="1" fill-rule="nonzero"/><path fill="rgb(100%, 100%, 100%)" d="M 137.71875 554.28125 C 127.078125 554.28125 118.4375 545.621094 118.4375 534.988281 C 118.4375 528.832031 121.328125 523.257812 125.9375 519.707031 C 125.769531 518.609375 125.679688 517.496094 125.679688 516.371094 C 125.679688 507.640625 131.082031 499.929688 138.878906 496.710938 C 140.636719 492.4375 143.621094 488.21875 147.617188 484.382812 C 145.34375 481.472656 143.019531 478.03125 141.0625 474.195312 C 133.121094 458.652344 135.519531 440.613281 147.347656 427.128906 C 150.761719 423.234375 154.761719 419.957031 158.832031 416.878906 C 156.660156 418.242188 153.988281 418.984375 150.984375 418.984375 C 146.554688 418.984375 142.570312 417.390625 141.8125 417.070312 C 140.050781 416.363281 135.003906 414.308594 133.402344 409.671875 C 131.09375 408.324219 129.464844 406.132812 128.644531 403.902344 C 124.722656 394.8125 124.210938 387.015625 127.148438 380.703125 C 129.730469 375.132812 134.089844 372.617188 136.433594 371.617188 L 152.621094 360.828125 C 153.511719 358.707031 154.933594 356.429688 156.882812 354 L 157.660156 353.007812 L 167.492188 346.613281 L 159.019531 322.539062 L 186.671875 335.707031 C 191.621094 334.121094 196.75 333.316406 201.953125 333.316406 C 217.582031 333.316406 232.421875 340.378906 246.066406 354.328125 C 268.851562 377.601562 266.921875 419.992188 252.066406 445.90625 C 247.5625 453.765625 241.917969 459.941406 236.453125 465.902344 C 232.8125 469.902344 229.359375 473.675781 226.316406 477.835938 C 234.523438 483.035156 240.625 489.738281 243.480469 496.710938 C 251.269531 499.929688 256.664062 507.640625 256.664062 516.371094 C 256.664062 517.269531 256.609375 518.179688 256.5 519.066406 C 261.59375 522.550781 264.878906 528.40625 264.878906 534.988281 C 264.878906 545.621094 256.21875 554.28125 245.574219 554.28125 Z M 163.886719 410.871094 C 163.109375 412.753906 161.96875 414.367188 160.519531 415.636719 C 161.410156 414.976562 162.324219 414.308594 163.226562 413.660156 C 166.792969 411.066406 170.257812 408.554688 173.238281 405.875 C 173.085938 405.796875 172.9375 405.710938 172.785156 405.625 L 163.886719 410.871094 " fill-opacity="1" fill-rule="nonzero"/><path fill="rgb(86.669922%, 54.508972%, 76.469421%)" d="M 246.773438 523.558594 C 248.09375 521.472656 248.871094 519.015625 248.871094 516.371094 C 248.871094 509.566406 243.828125 503.957031 237.273438 503.046875 C 235.84375 495.183594 227.6875 486.511719 215.960938 481.0625 C 216.996094 476.929688 219.226562 474.320312 219.875 473.433594 C 227.894531 462.363281 238.332031 454.183594 245.308594 442.023438 C 258.496094 419 260.652344 380.375 240.484375 359.773438 C 217.492188 336.289062 196.382812 340.101562 186.25 344.148438 L 172.613281 337.652344 L 176.890625 349.808594 L 162.96875 358.859375 C 162.96875 358.859375 159.304688 363.445312 159.304688 365.738281 L 140.039062 378.582031 C 140.039062 378.582031 127.65625 382.253906 135.910156 401.058594 C 135.910156 401.058594 136.828125 404.039062 139.582031 403.011719 L 147.957031 397.527344 C 148.167969 396.78125 148.835938 396 149.8125 395.539062 C 151.273438 394.824219 152.863281 395.066406 153.335938 396.066406 C 153.820312 397.070312 153.015625 398.457031 151.558594 399.160156 C 151.003906 399.425781 150.441406 399.554688 149.925781 399.570312 L 141.648438 405.417969 C 141.648438 405.417969 138.082031 407.136719 144.851562 409.886719 C 144.851562 409.886719 156.238281 414.707031 157.199219 405.765625 L 172.953125 396.464844 C 172.953125 396.464844 178.84375 401.046875 186.304688 402.5 C 178.765625 415.015625 162.699219 421.4375 153.210938 432.261719 C 143.65625 443.160156 141.367188 457.652344 148.003906 470.65625 C 150.71875 475.949219 154.648438 481.097656 158.8125 485.351562 C 151.222656 490.507812 146.175781 497.019531 145.082031 503.046875 C 138.53125 503.957031 133.476562 509.566406 133.476562 516.371094 C 133.476562 519.066406 134.277344 521.582031 135.660156 523.691406 C 130.292969 524.664062 126.230469 529.347656 126.230469 534.988281 C 126.230469 541.332031 131.375 546.472656 137.71875 546.472656 L 245.574219 546.472656 C 251.929688 546.472656 257.074219 541.332031 257.074219 534.988281 C 257.074219 529.042969 252.558594 524.160156 246.773438 523.558594 Z M 169.160156 363.804688 C 169.160156 363.804688 164.757812 369.617188 165.453125 373.132812 L 145.039062 386.046875 C 145.039062 386.046875 137.234375 390.039062 138.589844 394.527344 C 138.589844 394.527344 133.308594 386.925781 143.511719 381.6875 L 162.003906 370.222656 C 162.003906 370.222656 163.386719 364.007812 167.050781 361.140625 L 182.648438 352.800781 Z M 150.203125 526.046875 L 149.425781 526.046875 C 144.417969 526.046875 140.355469 521.980469 140.355469 516.980469 C 140.355469 511.976562 144.417969 507.925781 149.425781 507.925781 L 150.203125 507.925781 C 147.105469 509.753906 145.019531 513.125 145.019531 516.980469 C 145.019531 520.84375 147.105469 524.21875 150.203125 526.046875 Z M 179.824219 486.355469 C 169.277344 489.117188 163.308594 503.335938 163.308594 503.335938 L 153.6875 503.335938 C 159.644531 489.117188 168.816406 486.355469 168.816406 486.355469 C 130.742188 454.484375 162.855469 429.488281 162.855469 429.488281 C 176.804688 420.742188 191.648438 405.636719 191.648438 405.636719 C 188.078125 417.566406 168.375 432.242188 168.375 432.242188 C 137.660156 462.054688 179.824219 486.355469 179.824219 486.355469 " fill-opacity="1" fill-rule="nonzero"/><path fill="rgb(100%, 100%, 100%)" d="M 233.234375 577.882812 C 222.019531 577.882812 212.886719 568.746094 212.886719 557.527344 C 212.886719 551.03125 215.949219 545.164062 220.816406 541.410156 C 220.632812 540.246094 220.539062 539.074219 220.539062 537.878906 C 220.539062 526.277344 229.394531 516.699219 240.703125 515.5625 C 258.789062 493.640625 264.476562 460.5 266.261719 442.710938 C 257.226562 442.085938 250.078125 434.539062 250.078125 425.355469 C 250.078125 419.691406 252.800781 414.652344 257.011719 411.476562 C 256.890625 410.648438 256.828125 409.816406 256.828125 408.964844 C 256.828125 403.054688 259.789062 397.828125 264.316406 394.679688 C 257.367188 376.417969 251.964844 345.453125 278.894531 319.308594 C 278.539062 317.855469 278.355469 316.347656 278.355469 314.820312 C 278.355469 304.316406 286.902344 295.785156 297.390625 295.785156 C 307.894531 295.785156 316.429688 304.316406 316.429688 314.820312 C 316.429688 316.347656 316.253906 317.855469 315.898438 319.308594 C 342.835938 345.453125 337.421875 376.417969 330.480469 394.679688 C 334.992188 397.828125 337.96875 403.054688 337.96875 408.964844 C 337.96875 409.816406 337.902344 410.648438 337.78125 411.476562 C 341.996094 414.652344 344.71875 419.691406 344.71875 425.355469 C 344.71875 434.539062 337.566406 442.085938 328.539062 442.710938 C 330.332031 460.546875 336.042969 493.796875 354.214844 515.699219 C 364.980469 517.347656 373.253906 526.671875 373.253906 537.878906 C 373.253906 538.84375 373.1875 539.789062 373.074219 540.726562 C 378.453125 544.402344 381.90625 550.585938 381.90625 557.527344 C 381.90625 568.746094 372.773438 577.882812 361.554688 577.882812 L 233.234375 577.882812 " fill-opacity="1" fill-rule="nonzero"/><path fill="rgb(87.838745%, 31.759644%, 69.799805%)" d="M 362.816406 545.480469 C 364.207031 543.28125 365.03125 540.675781 365.03125 537.878906 C 365.03125 530.039062 358.664062 523.671875 350.808594 523.671875 L 350.238281 523.671875 C 324.773438 495.695312 320.394531 448.671875 319.644531 434.527344 L 327.332031 434.527344 C 332.386719 434.527344 336.496094 430.429688 336.496094 425.355469 C 336.496094 420.304688 332.386719 416.199219 327.332031 416.199219 L 326.179688 416.199219 C 328.339844 414.527344 329.734375 411.910156 329.734375 408.964844 C 329.734375 403.90625 325.636719 399.804688 320.570312 399.804688 L 319.257812 399.804688 C 327.296875 383.726562 338.734375 348.878906 305.941406 321.410156 C 307.351562 319.589844 308.199219 317.300781 308.199219 314.820312 C 308.199219 308.851562 303.367188 304.015625 297.390625 304.015625 C 291.429688 304.015625 286.585938 308.851562 286.585938 314.820312 C 286.585938 317.304688 287.4375 319.589844 288.851562 321.410156 C 256.0625 348.878906 267.503906 383.726562 275.542969 399.804688 L 274.226562 399.804688 C 269.167969 399.804688 265.058594 403.90625 265.058594 408.964844 C 265.058594 411.910156 266.457031 414.527344 268.617188 416.199219 L 267.46875 416.199219 C 262.410156 416.199219 258.308594 420.304688 258.308594 425.355469 C 258.308594 430.429688 262.410156 434.527344 267.46875 434.527344 L 275.140625 434.527344 C 274.394531 448.671875 270.027344 495.695312 244.5625 523.671875 L 242.96875 523.671875 C 235.125 523.671875 228.765625 530.039062 228.765625 537.878906 C 228.765625 540.734375 229.621094 543.386719 231.0625 545.617188 C 225.410156 546.636719 221.117188 551.582031 221.117188 557.527344 C 221.117188 564.214844 226.542969 569.648438 233.234375 569.648438 L 361.554688 569.648438 C 368.25 569.648438 373.679688 564.214844 373.679688 557.527344 C 373.679688 551.257812 368.917969 546.097656 362.816406 545.480469 Z M 246.445312 548.101562 L 245.636719 548.101562 C 240.351562 548.101562 236.066406 543.816406 236.066406 538.539062 C 236.066406 533.253906 240.351562 528.972656 245.636719 528.972656 L 246.445312 528.972656 C 243.179688 530.90625 240.976562 534.460938 240.976562 538.539062 C 240.976562 542.605469 243.179688 546.15625 246.445312 548.101562 Z M 269.171875 524.132812 L 253.695312 524.132812 C 280 491.171875 280.792969 433.644531 280.792969 433.644531 L 284.664062 433.644531 C 281.273438 507.679688 269.171875 524.132812 269.171875 524.132812 Z M 277.890625 364.441406 C 277.890625 364.441406 276.914062 383.796875 283.199219 399.046875 C 279.78125 390.738281 275.4375 383.613281 273.734375 374.53125 C 270.933594 359.699219 273.617188 343.269531 285.398438 332.8125 C 293.378906 325.730469 305.363281 326.847656 311.269531 336.378906 C 311.269531 336.378906 284.664062 325.25 277.890625 364.441406 " fill-opacity="1" fill-rule="nonzero"/><path fill="rgb(100%, 100%, 100%)" d="M 320.511719 612.839844 C 306.882812 612.839844 295.78125 601.738281 295.78125 588.101562 C 295.78125 579.902344 299.800781 572.511719 306.121094 567.996094 C 305.785156 566.296875 305.625 564.578125 305.625 562.835938 C 305.625 548.582031 316.558594 536.832031 330.488281 535.535156 C 357.695312 499.140625 363.757812 410.835938 365.085938 377.414062 L 364.542969 377.414062 C 353.003906 377.414062 343.617188 368.019531 343.617188 356.484375 C 343.617188 349.351562 347.203125 343.046875 352.667969 339.269531 C 352.425781 338.007812 352.300781 336.71875 352.300781 335.390625 C 352.300781 330.03125 354.339844 325.019531 357.835938 321.222656 C 350.222656 297.9375 345.476562 274.628906 345.476562 267.726562 C 345.476562 254.996094 357.976562 243.269531 377.152344 237.480469 C 378.945312 232.679688 382.527344 228.75 387.078125 226.5 L 387.078125 208.757812 C 387.078125 199.949219 394.234375 192.78125 403.046875 192.78125 C 411.847656 192.78125 419.007812 199.949219 419.007812 208.757812 L 419.007812 226.5 C 423.566406 228.75 427.144531 232.679688 428.933594 237.480469 C 448.109375 243.269531 460.601562 254.996094 460.601562 267.726562 C 460.601562 274.625 455.855469 297.9375 448.257812 321.222656 C 451.738281 325.019531 453.777344 330.03125 453.777344 335.390625 C 453.777344 336.71875 453.65625 338.007812 453.421875 339.269531 C 458.878906 343.046875 462.464844 349.351562 462.464844 356.484375 C 462.464844 368.019531 453.078125 377.414062 441.539062 377.414062 L 441.003906 377.414062 C 442.339844 410.894531 448.417969 499.425781 475.730469 535.703125 C 488.972656 537.640625 499.171875 549.066406 499.171875 562.835938 C 499.171875 564.300781 499.058594 565.75 498.816406 567.195312 C 505.773438 571.585938 510.296875 579.34375 510.296875 588.101562 C 510.296875 601.738281 499.210938 612.839844 485.570312 612.839844 L 320.511719 612.839844 " fill-opacity="1" fill-rule="nonzero"/><path fill="rgb(86.669922%, 54.508972%, 76.469421%)" d="M 487.191406 572.59375 C 488.976562 569.773438 490.035156 566.429688 490.035156 562.835938 C 490.035156 552.742188 481.851562 544.554688 471.746094 544.554688 L 471.117188 544.554688 C 436.714844 504.398438 432.152344 393.828125 431.5625 368.273438 L 441.539062 368.273438 C 448.039062 368.273438 453.324219 362.996094 453.324219 356.484375 C 453.324219 349.976562 448.039062 344.699219 441.539062 344.699219 L 440.066406 344.699219 C 442.839844 342.542969 444.628906 339.183594 444.628906 335.390625 C 444.628906 330.527344 441.675781 326.355469 437.476562 324.550781 C 446.121094 299.878906 451.460938 273.847656 451.460938 267.726562 C 451.460938 258.316406 438.855469 248.828125 421.023438 244.851562 C 421.027344 244.71875 421.046875 244.585938 421.046875 244.453125 C 421.046875 238.453125 416.183594 233.585938 410.1875 233.585938 L 409.875 233.585938 L 409.875 208.757812 C 409.875 204.988281 406.8125 201.933594 403.046875 201.933594 C 399.269531 201.933594 396.210938 204.988281 396.210938 208.757812 L 396.210938 233.585938 L 395.914062 233.585938 C 389.902344 233.585938 385.046875 238.453125 385.046875 244.453125 C 385.046875 244.585938 385.058594 244.71875 385.066406 244.851562 C 367.234375 248.828125 354.625 258.316406 354.625 267.726562 C 354.625 273.847656 359.964844 299.878906 368.617188 324.550781 C 364.402344 326.355469 361.453125 330.527344 361.453125 335.390625 C 361.453125 339.183594 363.246094 342.542969 366.023438 344.699219 L 364.542969 344.699219 C 358.042969 344.699219 352.761719 349.976562 352.761719 356.484375 C 352.761719 362.996094 358.042969 368.273438 364.542969 368.273438 L 374.527344 368.273438 C 373.929688 393.828125 369.367188 504.398438 334.972656 544.554688 L 333.054688 544.554688 C 322.949219 544.554688 314.769531 552.742188 314.769531 562.835938 C 314.769531 566.503906 315.863281 569.910156 317.726562 572.777344 C 310.449219 574.097656 304.929688 580.449219 304.929688 588.101562 C 304.929688 596.710938 311.90625 603.691406 320.511719 603.691406 L 485.570312 603.691406 C 494.183594 603.691406 501.160156 596.710938 501.160156 588.101562 C 501.160156 580.03125 495.039062 573.40625 487.191406 572.59375 Z M 335.289062 575.738281 L 334.214844 575.738281 C 327.324219 575.738281 321.730469 570.148438 321.730469 563.246094 C 321.730469 556.363281 327.324219 550.765625 334.214844 550.765625 L 335.289062 550.765625 C 331.019531 553.292969 328.144531 557.933594 328.144531 563.246094 C 328.144531 568.578125 331.019531 573.210938 335.289062 575.738281 Z M 373.363281 546.703125 L 348.367188 546.703125 C 380.3125 495.367188 383.847656 370.609375 383.847656 370.609375 L 391.101562 370.609375 C 390.292969 475.933594 373.363281 546.703125 373.363281 546.703125 Z M 379.8125 272.53125 L 388.632812 323.335938 L 379.71875 323.335938 L 363.6875 271.71875 C 363.6875 271.71875 355.617188 258.820312 397.558594 250.757812 C 397.558594 250.757812 378.203125 261.242188 379.8125 272.53125 " fill-opacity="1" fill-rule="nonzero"/></svg>