<svg xmlns="http://www.w3.org/2000/svg" xmlns:xlink="http://www.w3.org/1999/xlink" width="810" zoomAndPan="magnify" viewBox="0 0 810 809.999993" height="809.999993" preserveAspectRatio="xMidYMid meet" version="1.0"><defs><clipPath id="id1"><path d="M 58 58.171875 L 752 58.171875 L 752 637 L 58 637 Z M 58 58.171875 " clip-rule="nonzero"/></clipPath><clipPath id="id2"><path d="M 0 578 L 810 578 L 810 751.921875 L 0 751.921875 Z M 0 578 " clip-rule="nonzero"/></clipPath></defs><g clip-path="url(#id1)"><path fill="rgb(51.759338%, 47.839355%, 100%)" d="M 722.921875 636.296875 L 87.078125 636.296875 C 86.132812 636.296875 85.1875 636.25 84.246094 636.160156 C 83.304688 636.066406 82.371094 635.925781 81.441406 635.742188 C 80.511719 635.558594 79.59375 635.328125 78.691406 635.054688 C 77.785156 634.777344 76.894531 634.460938 76.019531 634.097656 C 75.144531 633.734375 74.289062 633.332031 73.457031 632.886719 C 72.621094 632.4375 71.808594 631.953125 71.023438 631.425781 C 70.234375 630.902344 69.476562 630.335938 68.746094 629.738281 C 68.011719 629.136719 67.3125 628.5 66.644531 627.832031 C 65.972656 627.164062 65.339844 626.460938 64.738281 625.730469 C 64.136719 625 63.574219 624.238281 63.046875 623.453125 C 62.523438 622.664062 62.035156 621.851562 61.589844 621.019531 C 61.144531 620.183594 60.738281 619.328125 60.378906 618.453125 C 60.015625 617.578125 59.695312 616.6875 59.421875 615.78125 C 59.148438 614.878906 58.917969 613.960938 58.734375 613.03125 C 58.546875 612.101562 58.410156 611.167969 58.316406 610.226562 C 58.222656 609.285156 58.179688 608.339844 58.179688 607.390625 L 58.179688 87.078125 C 58.179688 86.132812 58.222656 85.1875 58.316406 84.246094 C 58.410156 83.304688 58.546875 82.367188 58.734375 81.441406 C 58.917969 80.511719 59.148438 79.59375 59.421875 78.6875 C 59.695312 77.78125 60.015625 76.890625 60.378906 76.019531 C 60.738281 75.144531 61.144531 74.289062 61.589844 73.453125 C 62.035156 72.617188 62.523438 71.808594 63.046875 71.019531 C 63.574219 70.234375 64.136719 69.472656 64.738281 68.742188 C 65.339844 68.011719 65.972656 67.308594 66.644531 66.640625 C 67.3125 65.96875 68.011719 65.335938 68.746094 64.734375 C 69.476562 64.132812 70.234375 63.570312 71.023438 63.042969 C 71.808594 62.519531 72.621094 62.03125 73.457031 61.585938 C 74.289062 61.140625 75.144531 60.734375 76.019531 60.375 C 76.894531 60.011719 77.785156 59.691406 78.691406 59.417969 C 79.59375 59.144531 80.511719 58.914062 81.441406 58.730469 C 82.371094 58.542969 83.304688 58.40625 84.246094 58.3125 C 85.1875 58.21875 86.132812 58.171875 87.078125 58.171875 L 722.921875 58.171875 C 723.867188 58.171875 724.8125 58.21875 725.753906 58.3125 C 726.695312 58.40625 727.628906 58.542969 728.558594 58.730469 C 729.488281 58.914062 730.40625 59.144531 731.308594 59.417969 C 732.214844 59.691406 733.105469 60.011719 733.980469 60.375 C 734.855469 60.734375 735.710938 61.140625 736.542969 61.585938 C 737.378906 62.03125 738.191406 62.519531 738.976562 63.042969 C 739.765625 63.570312 740.523438 64.132812 741.253906 64.734375 C 741.988281 65.335938 742.6875 65.96875 743.355469 66.640625 C 744.027344 67.308594 744.660156 68.011719 745.261719 68.742188 C 745.863281 69.472656 746.425781 70.234375 746.953125 71.019531 C 747.476562 71.808594 747.964844 72.617188 748.410156 73.453125 C 748.855469 74.289062 749.261719 75.144531 749.621094 76.019531 C 749.984375 76.890625 750.304688 77.78125 750.578125 78.6875 C 750.851562 79.59375 751.082031 80.511719 751.265625 81.441406 C 751.453125 82.367188 751.589844 83.304688 751.683594 84.246094 C 751.777344 85.1875 751.820312 86.132812 751.820312 87.078125 L 751.820312 607.390625 C 751.820312 608.339844 751.777344 609.285156 751.683594 610.226562 C 751.589844 611.167969 751.453125 612.101562 751.265625 613.03125 C 751.082031 613.960938 750.851562 614.878906 750.578125 615.78125 C 750.304688 616.6875 749.984375 617.578125 749.621094 618.453125 C 749.261719 619.328125 748.855469 620.183594 748.410156 621.019531 C 747.964844 621.851562 747.476562 622.664062 746.953125 623.453125 C 746.425781 624.238281 745.863281 625 745.261719 625.730469 C 744.660156 626.460938 744.027344 627.164062 743.355469 627.832031 C 742.6875 628.5 741.988281 629.136719 741.253906 629.738281 C 740.523438 630.335938 739.765625 630.902344 738.976562 631.425781 C 738.191406 631.953125 737.378906 632.4375 736.542969 632.886719 C 735.710938 633.332031 734.855469 633.734375 733.980469 634.097656 C 733.105469 634.460938 732.214844 634.777344 731.308594 635.054688 C 730.402344 635.328125 729.488281 635.558594 728.558594 635.742188 C 727.628906 635.925781 726.695312 636.066406 725.753906 636.160156 C 724.8125 636.25 723.867188 636.296875 722.921875 636.296875 Z M 115.980469 578.484375 L 694.019531 578.484375 L 694.019531 115.984375 L 115.980469 115.984375 Z M 115.980469 578.484375 " fill-opacity="1" fill-rule="nonzero"/><path fill="rgb(51.759338%, 47.839355%, 100%)" d="M 722.921875 636.296875 L 87.078125 636.296875 C 86.132812 636.296875 85.1875 636.25 84.246094 636.160156 C 83.304688 636.066406 82.371094 635.925781 81.441406 635.742188 C 80.511719 635.558594 79.59375 635.328125 78.691406 635.054688 C 77.785156 634.777344 76.894531 634.460938 76.019531 634.097656 C 75.144531 633.734375 74.289062 633.332031 73.457031 632.886719 C 72.621094 632.4375 71.808594 631.953125 71.023438 631.425781 C 70.234375 630.902344 69.476562 630.335938 68.746094 629.738281 C 68.011719 629.136719 67.3125 628.5 66.644531 627.832031 C 65.972656 627.164062 65.339844 626.460938 64.738281 625.730469 C 64.136719 625 63.574219 624.238281 63.046875 623.453125 C 62.523438 622.664062 62.035156 621.851562 61.589844 621.019531 C 61.144531 620.183594 60.738281 619.328125 60.378906 618.453125 C 60.015625 617.578125 59.695312 616.6875 59.421875 615.78125 C 59.148438 614.878906 58.917969 613.960938 58.734375 613.03125 C 58.546875 612.101562 58.410156 611.167969 58.316406 610.226562 C 58.222656 609.285156 58.179688 608.339844 58.179688 607.390625 L 58.179688 87.078125 C 58.179688 86.132812 58.222656 85.1875 58.316406 84.246094 C 58.410156 83.304688 58.546875 82.367188 58.734375 81.441406 C 58.917969 80.511719 59.148438 79.59375 59.421875 78.6875 C 59.695312 77.78125 60.015625 76.890625 60.378906 76.019531 C 60.738281 75.144531 61.144531 74.289062 61.589844 73.453125 C 62.035156 72.617188 62.523438 71.808594 63.046875 71.019531 C 63.574219 70.234375 64.136719 69.472656 64.738281 68.742188 C 65.339844 68.011719 65.972656 67.308594 66.644531 66.640625 C 67.3125 65.96875 68.011719 65.335938 68.746094 64.734375 C 69.476562 64.132812 70.234375 63.570312 71.023438 63.042969 C 71.808594 62.519531 72.621094 62.03125 73.457031 61.585938 C 74.289062 61.140625 75.144531 60.734375 76.019531 60.375 C 76.894531 60.011719 77.785156 59.691406 78.691406 59.417969 C 79.59375 59.144531 80.511719 58.914062 81.441406 58.730469 C 82.371094 58.542969 83.304688 58.40625 84.246094 58.3125 C 85.1875 58.21875 86.132812 58.171875 87.078125 58.171875 L 722.921875 58.171875 C 723.867188 58.171875 724.8125 58.21875 725.753906 58.3125 C 726.695312 58.40625 727.628906 58.542969 728.558594 58.730469 C 729.488281 58.914062 730.40625 59.144531 731.308594 59.417969 C 732.214844 59.691406 733.105469 60.011719 733.980469 60.375 C 734.855469 60.734375 735.710938 61.140625 736.542969 61.585938 C 737.378906 62.03125 738.191406 62.519531 738.976562 63.042969 C 739.765625 63.570312 740.523438 64.132812 741.253906 64.734375 C 741.988281 65.335938 742.6875 65.96875 743.355469 66.640625 C 744.027344 67.308594 744.660156 68.011719 745.261719 68.742188 C 745.863281 69.472656 746.425781 70.234375 746.953125 71.019531 C 747.476562 71.808594 747.964844 72.617188 748.410156 73.453125 C 748.855469 74.289062 749.261719 75.144531 749.621094 76.019531 C 749.984375 76.890625 750.304688 77.78125 750.578125 78.6875 C 750.851562 79.59375 751.082031 80.511719 751.265625 81.441406 C 751.453125 82.367188 751.589844 83.304688 751.683594 84.246094 C 751.777344 85.1875 751.820312 86.132812 751.820312 87.078125 L 751.820312 607.390625 C 751.820312 608.339844 751.777344 609.285156 751.683594 610.226562 C 751.589844 611.167969 751.453125 612.101562 751.265625 613.03125 C 751.082031 613.960938 750.851562 614.878906 750.578125 615.78125 C 750.304688 616.6875 749.984375 617.578125 749.621094 618.453125 C 749.261719 619.328125 748.855469 620.183594 748.410156 621.019531 C 747.964844 621.851562 747.476562 622.664062 746.953125 623.453125 C 746.425781 624.238281 745.863281 625 745.261719 625.730469 C 744.660156 626.460938 744.027344 627.164062 743.355469 627.832031 C 742.6875 628.5 741.988281 629.136719 741.253906 629.738281 C 740.523438 630.335938 739.765625 630.902344 738.976562 631.425781 C 738.191406 631.953125 737.378906 632.4375 736.542969 632.886719 C 735.710938 633.332031 734.855469 633.734375 733.980469 634.097656 C 733.105469 634.460938 732.214844 634.777344 731.308594 635.054688 C 730.402344 635.328125 729.488281 635.558594 728.558594 635.742188 C 727.628906 635.925781 726.695312 636.066406 725.753906 636.160156 C 724.8125 636.25 723.867188 636.296875 722.921875 636.296875 Z M 115.980469 578.484375 L 694.019531 578.484375 L 694.019531 115.984375 L 115.980469 115.984375 Z M 115.980469 578.484375 " fill-opacity="1" fill-rule="nonzero"/></g><g clip-path="url(#id2)"><path fill="rgb(51.759338%, 47.839355%, 100%)" d="M 737.371094 751.921875 L 72.628906 751.921875 C 71.445312 751.921875 70.265625 751.894531 69.082031 751.835938 C 67.902344 751.777344 66.722656 751.691406 65.546875 751.574219 C 64.371094 751.460938 63.195312 751.3125 62.027344 751.140625 C 60.855469 750.96875 59.691406 750.765625 58.53125 750.535156 C 57.371094 750.304688 56.21875 750.042969 55.070312 749.757812 C 53.925781 749.46875 52.785156 749.15625 51.652344 748.8125 C 50.523438 748.46875 49.398438 748.097656 48.285156 747.699219 C 47.171875 747.300781 46.070312 746.875 44.976562 746.421875 C 43.886719 745.96875 42.804688 745.492188 41.734375 744.984375 C 40.667969 744.480469 39.609375 743.949219 38.566406 743.390625 C 37.523438 742.832031 36.496094 742.25 35.480469 741.640625 C 34.46875 741.035156 33.46875 740.402344 32.484375 739.746094 C 31.503906 739.085938 30.535156 738.40625 29.585938 737.703125 C 28.636719 736.996094 27.703125 736.269531 26.789062 735.519531 C 25.875 734.769531 24.980469 733.996094 24.105469 733.203125 C 23.230469 732.410156 22.375 731.59375 21.535156 730.757812 C 20.699219 729.921875 19.886719 729.066406 19.089844 728.1875 C 18.296875 727.3125 17.523438 726.417969 16.773438 725.503906 C 16.023438 724.589844 15.296875 723.65625 14.59375 722.707031 C 13.890625 721.757812 13.207031 720.789062 12.550781 719.804688 C 11.894531 718.824219 11.261719 717.824219 10.652344 716.808594 C 10.046875 715.796875 9.464844 714.765625 8.90625 713.722656 C 8.347656 712.679688 7.816406 711.625 7.3125 710.554688 C 6.804688 709.484375 6.328125 708.40625 5.875 707.3125 C 5.421875 706.21875 4.996094 705.117188 4.597656 704.003906 C 4.199219 702.890625 3.828125 701.765625 3.484375 700.636719 C 3.140625 699.503906 2.828125 698.363281 2.539062 697.214844 C 2.253906 696.070312 1.992188 694.914062 1.761719 693.757812 C 1.53125 692.597656 1.328125 691.429688 1.15625 690.261719 C 0.984375 689.089844 0.835938 687.917969 0.722656 686.742188 C 0.605469 685.5625 0.519531 684.386719 0.460938 683.203125 C 0.402344 682.023438 0.375 680.839844 0.375 679.65625 L 0.375 607.390625 C 0.375 606.445312 0.421875 605.5 0.511719 604.558594 C 0.605469 603.617188 0.746094 602.679688 0.929688 601.753906 C 1.113281 600.824219 1.34375 599.90625 1.617188 599 C 1.894531 598.09375 2.210938 597.203125 2.574219 596.328125 C 2.9375 595.457031 3.339844 594.601562 3.785156 593.765625 C 4.234375 592.929688 4.71875 592.121094 5.246094 591.332031 C 5.769531 590.546875 6.332031 589.785156 6.933594 589.054688 C 7.535156 588.320312 8.167969 587.621094 8.839844 586.953125 C 9.507812 586.28125 10.210938 585.648438 10.941406 585.046875 C 11.671875 584.445312 12.433594 583.882812 13.21875 583.355469 C 14.007812 582.832031 14.816406 582.34375 15.652344 581.898438 C 16.488281 581.453125 17.339844 581.046875 18.214844 580.6875 C 19.089844 580.324219 19.980469 580.003906 20.886719 579.730469 C 21.792969 579.457031 22.710938 579.226562 23.636719 579.042969 C 24.566406 578.855469 25.5 578.71875 26.441406 578.625 C 27.386719 578.53125 28.328125 578.484375 29.277344 578.484375 L 780.722656 578.484375 C 781.671875 578.484375 782.613281 578.53125 783.558594 578.625 C 784.5 578.71875 785.433594 578.855469 786.363281 579.042969 C 787.289062 579.226562 788.207031 579.457031 789.113281 579.730469 C 790.019531 580.003906 790.910156 580.324219 791.785156 580.6875 C 792.660156 581.046875 793.511719 581.453125 794.347656 581.898438 C 795.183594 582.34375 795.992188 582.832031 796.78125 583.355469 C 797.566406 583.882812 798.328125 584.445312 799.058594 585.046875 C 799.789062 585.648438 800.492188 586.28125 801.160156 586.953125 C 801.832031 587.621094 802.464844 588.320312 803.066406 589.054688 C 803.667969 589.785156 804.230469 590.546875 804.753906 591.332031 C 805.28125 592.121094 805.765625 592.929688 806.214844 593.765625 C 806.660156 594.601562 807.0625 595.457031 807.425781 596.328125 C 807.789062 597.203125 808.105469 598.09375 808.382812 599 C 808.65625 599.90625 808.886719 600.824219 809.070312 601.753906 C 809.253906 602.679688 809.394531 603.617188 809.488281 604.558594 C 809.578125 605.5 809.625 606.445312 809.625 607.390625 L 809.625 679.65625 C 809.625 680.839844 809.597656 682.023438 809.539062 683.203125 C 809.480469 684.386719 809.394531 685.5625 809.277344 686.742188 C 809.160156 687.917969 809.015625 689.089844 808.84375 690.261719 C 808.671875 691.429688 808.46875 692.597656 808.238281 693.757812 C 808.007812 694.914062 807.746094 696.070312 807.460938 697.214844 C 807.171875 698.363281 806.859375 699.503906 806.515625 700.636719 C 806.171875 701.765625 805.800781 702.890625 805.402344 704.003906 C 805.003906 705.117188 804.578125 706.21875 804.125 707.3125 C 803.671875 708.40625 803.195312 709.484375 802.6875 710.554688 C 802.183594 711.625 801.652344 712.679688 801.09375 713.722656 C 800.535156 714.765625 799.953125 715.796875 799.347656 716.808594 C 798.738281 717.824219 798.105469 718.824219 797.449219 719.804688 C 796.792969 720.789062 796.109375 721.757812 795.40625 722.707031 C 794.703125 723.65625 793.976562 724.589844 793.226562 725.503906 C 792.476562 726.417969 791.703125 727.3125 790.910156 728.1875 C 790.113281 729.066406 789.300781 729.921875 788.464844 730.757812 C 787.625 731.59375 786.769531 732.410156 785.894531 733.203125 C 785.019531 733.996094 784.125 734.769531 783.210938 735.519531 C 782.296875 736.269531 781.363281 736.996094 780.414062 737.703125 C 779.464844 738.40625 778.496094 739.085938 777.515625 739.746094 C 776.53125 740.402344 775.53125 741.035156 774.515625 741.640625 C 773.503906 742.25 772.476562 742.832031 771.433594 743.390625 C 770.390625 743.949219 769.332031 744.480469 768.265625 744.984375 C 767.195312 745.492188 766.113281 745.96875 765.023438 746.421875 C 763.929688 746.875 762.828125 747.300781 761.714844 747.699219 C 760.601562 748.097656 759.476562 748.46875 758.34375 748.8125 C 757.214844 749.15625 756.074219 749.46875 754.925781 749.757812 C 753.78125 750.042969 752.628906 750.304688 751.46875 750.535156 C 750.308594 750.765625 749.144531 750.96875 747.972656 751.140625 C 746.804688 751.316406 745.628906 751.460938 744.453125 751.574219 C 743.277344 751.691406 742.097656 751.777344 740.917969 751.835938 C 739.734375 751.894531 738.554688 751.921875 737.371094 751.921875 Z M 58.179688 636.296875 L 58.179688 679.65625 C 58.175781 680.605469 58.269531 681.546875 58.457031 682.476562 C 58.640625 683.40625 58.914062 684.3125 59.277344 685.1875 C 59.640625 686.066406 60.085938 686.898438 60.613281 687.6875 C 61.140625 688.476562 61.738281 689.207031 62.410156 689.878906 C 63.082031 690.546875 63.8125 691.148438 64.601562 691.675781 C 65.390625 692.203125 66.222656 692.648438 67.097656 693.011719 C 67.976562 693.375 68.878906 693.648438 69.808594 693.832031 C 70.738281 694.019531 71.679688 694.109375 72.628906 694.109375 L 737.371094 694.109375 C 738.320312 694.109375 739.261719 694.019531 740.191406 693.832031 C 741.121094 693.648438 742.023438 693.375 742.902344 693.011719 C 743.777344 692.648438 744.609375 692.203125 745.398438 691.675781 C 746.1875 691.148438 746.917969 690.546875 747.589844 689.878906 C 748.261719 689.207031 748.859375 688.476562 749.386719 687.6875 C 749.914062 686.898438 750.359375 686.066406 750.722656 685.1875 C 751.085938 684.3125 751.359375 683.40625 751.542969 682.476562 C 751.730469 681.546875 751.820312 680.605469 751.820312 679.65625 L 751.820312 636.296875 Z M 58.179688 636.296875 " fill-opacity="1" fill-rule="nonzero"/></g><path fill="rgb(51.759338%, 47.839355%, 100%)" d="M 289.390625 433.953125 C 287.496094 433.953125 285.617188 433.769531 283.753906 433.398438 C 281.894531 433.027344 280.085938 432.480469 278.332031 431.753906 C 276.582031 431.027344 274.914062 430.136719 273.335938 429.082031 C 271.761719 428.027344 270.300781 426.828125 268.957031 425.484375 L 211.15625 367.671875 C 210.484375 367.003906 209.851562 366.300781 209.25 365.570312 C 208.652344 364.839844 208.089844 364.078125 207.5625 363.292969 C 207.035156 362.503906 206.550781 361.695312 206.105469 360.859375 C 205.660156 360.023438 205.253906 359.171875 204.890625 358.296875 C 204.53125 357.421875 204.210938 356.53125 203.9375 355.625 C 203.664062 354.71875 203.433594 353.800781 203.25 352.875 C 203.0625 351.945312 202.925781 351.011719 202.832031 350.070312 C 202.738281 349.125 202.691406 348.183594 202.691406 347.234375 C 202.691406 346.289062 202.738281 345.34375 202.832031 344.402344 C 202.925781 343.460938 203.0625 342.527344 203.25 341.597656 C 203.433594 340.667969 203.664062 339.753906 203.9375 338.847656 C 204.210938 337.941406 204.53125 337.050781 204.890625 336.175781 C 205.253906 335.300781 205.660156 334.445312 206.105469 333.613281 C 206.550781 332.777344 207.035156 331.964844 207.5625 331.179688 C 208.089844 330.390625 208.652344 329.632812 209.25 328.902344 C 209.851562 328.167969 210.484375 327.46875 211.15625 326.800781 L 268.957031 268.988281 C 269.632812 268.335938 270.335938 267.71875 271.070312 267.136719 C 271.800781 266.554688 272.5625 266.011719 273.347656 265.503906 C 274.132812 264.996094 274.941406 264.523438 275.773438 264.09375 C 276.605469 263.667969 277.457031 263.277344 278.324219 262.929688 C 279.195312 262.582031 280.078125 262.28125 280.980469 262.019531 C 281.878906 261.757812 282.789062 261.539062 283.707031 261.367188 C 284.628906 261.195312 285.554688 261.066406 286.484375 260.984375 C 287.417969 260.902344 288.351562 260.867188 289.289062 260.875 C 290.226562 260.882812 291.15625 260.933594 292.089844 261.035156 C 293.019531 261.132812 293.945312 261.277344 294.859375 261.464844 C 295.777344 261.652344 296.683594 261.886719 297.578125 262.164062 C 298.472656 262.441406 299.351562 262.757812 300.214844 263.121094 C 301.078125 263.484375 301.921875 263.886719 302.746094 264.332031 C 303.570312 264.773438 304.371094 265.257812 305.148438 265.777344 C 305.921875 266.300781 306.675781 266.859375 307.398438 267.453125 C 308.121094 268.046875 308.8125 268.675781 309.472656 269.339844 C 310.136719 270 310.765625 270.691406 311.359375 271.417969 C 311.953125 272.140625 312.511719 272.890625 313.035156 273.667969 C 313.554688 274.445312 314.039062 275.246094 314.480469 276.070312 C 314.925781 276.894531 315.328125 277.738281 315.691406 278.601562 C 316.054688 279.464844 316.371094 280.34375 316.648438 281.238281 C 316.925781 282.132812 317.15625 283.039062 317.347656 283.953125 C 317.535156 284.871094 317.679688 285.796875 317.777344 286.726562 C 317.875 287.65625 317.929688 288.589844 317.9375 289.527344 C 317.945312 290.464844 317.910156 291.398438 317.828125 292.332031 C 317.742188 293.261719 317.617188 294.1875 317.445312 295.109375 C 317.269531 296.03125 317.054688 296.9375 316.792969 297.839844 C 316.53125 298.738281 316.226562 299.621094 315.882812 300.492188 C 315.535156 301.359375 315.144531 302.210938 314.714844 303.042969 C 314.285156 303.875 313.816406 304.683594 313.308594 305.46875 C 312.800781 306.257812 312.257812 307.015625 311.675781 307.75 C 311.09375 308.484375 310.476562 309.1875 309.828125 309.859375 L 272.457031 347.234375 L 309.828125 384.613281 C 310.832031 385.617188 311.757812 386.691406 312.601562 387.832031 C 313.449219 388.972656 314.207031 390.171875 314.878906 391.425781 C 315.546875 392.679688 316.121094 393.972656 316.601562 395.3125 C 317.078125 396.652344 317.457031 398.015625 317.734375 399.410156 C 318.011719 400.804688 318.183594 402.210938 318.253906 403.632812 C 318.324219 405.050781 318.289062 406.46875 318.148438 407.882812 C 318.007812 409.296875 317.765625 410.691406 317.421875 412.070312 C 317.078125 413.449219 316.632812 414.796875 316.089844 416.109375 C 315.542969 417.421875 314.90625 418.6875 314.175781 419.910156 C 313.445312 421.128906 312.628906 422.285156 311.726562 423.386719 C 310.824219 424.484375 309.847656 425.511719 308.796875 426.464844 C 307.742188 427.421875 306.625 428.292969 305.445312 429.082031 C 304.261719 429.871094 303.027344 430.570312 301.746094 431.179688 C 300.460938 431.785156 299.136719 432.296875 297.777344 432.710938 C 296.417969 433.121094 295.035156 433.433594 293.632812 433.640625 C 292.226562 433.851562 290.8125 433.953125 289.390625 433.953125 Z M 289.390625 433.953125 " fill-opacity="1" fill-rule="nonzero"/><path fill="rgb(51.759338%, 47.839355%, 100%)" d="M 520.605469 433.953125 C 519.1875 433.953125 517.773438 433.851562 516.367188 433.640625 C 514.960938 433.433594 513.578125 433.121094 512.21875 432.707031 C 510.859375 432.296875 509.539062 431.785156 508.253906 431.175781 C 506.96875 430.570312 505.734375 429.871094 504.554688 429.082031 C 503.371094 428.292969 502.253906 427.417969 501.203125 426.464844 C 500.148438 425.511719 499.171875 424.484375 498.269531 423.382812 C 497.371094 422.285156 496.554688 421.125 495.824219 419.90625 C 495.09375 418.6875 494.457031 417.421875 493.910156 416.109375 C 493.367188 414.796875 492.921875 413.449219 492.578125 412.070312 C 492.234375 410.691406 491.992188 409.296875 491.851562 407.882812 C 491.710938 406.46875 491.675781 405.050781 491.746094 403.632812 C 491.816406 402.210938 491.988281 400.804688 492.265625 399.410156 C 492.542969 398.015625 492.921875 396.652344 493.398438 395.3125 C 493.878906 393.972656 494.453125 392.679688 495.121094 391.425781 C 495.792969 390.171875 496.550781 388.972656 497.398438 387.832031 C 498.242188 386.691406 499.167969 385.617188 500.171875 384.613281 L 537.542969 347.234375 L 500.175781 309.859375 C 499.523438 309.1875 498.90625 308.484375 498.324219 307.75 C 497.742188 307.015625 497.199219 306.257812 496.691406 305.46875 C 496.183594 304.683594 495.714844 303.875 495.285156 303.042969 C 494.855469 302.210938 494.464844 301.359375 494.117188 300.492188 C 493.773438 299.621094 493.46875 298.738281 493.207031 297.839844 C 492.945312 296.9375 492.730469 296.03125 492.554688 295.109375 C 492.382812 294.1875 492.257812 293.261719 492.171875 292.332031 C 492.089844 291.398438 492.054688 290.464844 492.0625 289.527344 C 492.070312 288.589844 492.125 287.65625 492.222656 286.726562 C 492.320312 285.796875 492.464844 284.871094 492.652344 283.953125 C 492.84375 283.039062 493.074219 282.132812 493.351562 281.238281 C 493.628906 280.34375 493.945312 279.464844 494.308594 278.601562 C 494.671875 277.738281 495.074219 276.894531 495.519531 276.070312 C 495.960938 275.246094 496.445312 274.445312 496.964844 273.667969 C 497.488281 272.890625 498.046875 272.140625 498.640625 271.417969 C 499.234375 270.691406 499.863281 270 500.527344 269.339844 C 501.1875 268.675781 501.878906 268.046875 502.601562 267.453125 C 503.328125 266.859375 504.078125 266.300781 504.851562 265.777344 C 505.628906 265.257812 506.429688 264.773438 507.253906 264.328125 C 508.078125 263.886719 508.921875 263.484375 509.785156 263.121094 C 510.648438 262.757812 511.527344 262.441406 512.421875 262.164062 C 513.316406 261.886719 514.222656 261.652344 515.140625 261.464844 C 516.054688 261.277344 516.980469 261.132812 517.910156 261.035156 C 518.84375 260.933594 519.777344 260.882812 520.710938 260.875 C 521.648438 260.863281 522.582031 260.902344 523.515625 260.984375 C 524.445312 261.066406 525.371094 261.195312 526.292969 261.367188 C 527.214844 261.539062 528.121094 261.757812 529.019531 262.019531 C 529.921875 262.28125 530.804688 262.582031 531.671875 262.929688 C 532.542969 263.277344 533.394531 263.664062 534.226562 264.09375 C 535.058594 264.523438 535.867188 264.996094 536.652344 265.503906 C 537.4375 266.011719 538.199219 266.554688 538.929688 267.136719 C 539.664062 267.71875 540.367188 268.335938 541.042969 268.988281 L 598.84375 326.800781 C 599.515625 327.46875 600.148438 328.167969 600.75 328.902344 C 601.347656 329.632812 601.914062 330.390625 602.4375 331.179688 C 602.964844 331.964844 603.449219 332.777344 603.894531 333.613281 C 604.339844 334.445312 604.746094 335.300781 605.109375 336.175781 C 605.46875 337.050781 605.789062 337.941406 606.0625 338.847656 C 606.335938 339.753906 606.566406 340.667969 606.75 341.597656 C 606.9375 342.527344 607.074219 343.460938 607.167969 344.402344 C 607.261719 345.34375 607.308594 346.289062 607.308594 347.234375 C 607.308594 348.183594 607.261719 349.125 607.167969 350.070312 C 607.074219 351.011719 606.9375 351.945312 606.75 352.875 C 606.566406 353.800781 606.335938 354.71875 606.0625 355.625 C 605.789062 356.53125 605.46875 357.421875 605.109375 358.296875 C 604.746094 359.171875 604.339844 360.023438 603.894531 360.859375 C 603.449219 361.695312 602.964844 362.503906 602.4375 363.292969 C 601.914062 364.078125 601.347656 364.839844 600.75 365.570312 C 600.148438 366.300781 599.515625 367.003906 598.84375 367.671875 L 541.042969 425.484375 C 539.699219 426.828125 538.238281 428.027344 536.660156 429.082031 C 535.082031 430.136719 533.417969 431.027344 531.664062 431.753906 C 529.910156 432.480469 528.105469 433.027344 526.242188 433.398438 C 524.382812 433.769531 522.503906 433.953125 520.605469 433.953125 Z M 520.605469 433.953125 " fill-opacity="1" fill-rule="nonzero"/><path fill="rgb(51.759338%, 47.839355%, 100%)" d="M 376.097656 433.953125 C 375.484375 433.953125 374.875 433.933594 374.261719 433.894531 C 373.652344 433.855469 373.042969 433.796875 372.433594 433.71875 C 371.828125 433.640625 371.222656 433.542969 370.621094 433.429688 C 370.019531 433.3125 369.421875 433.175781 368.832031 433.023438 C 368.238281 432.867188 367.652344 432.695312 367.070312 432.503906 C 366.488281 432.3125 365.910156 432.101562 365.34375 431.871094 C 364.773438 431.644531 364.214844 431.398438 363.660156 431.132812 C 363.109375 430.871094 362.566406 430.589844 362.03125 430.289062 C 361.496094 429.992188 360.972656 429.675781 360.457031 429.34375 C 359.941406 429.011719 359.4375 428.664062 358.945312 428.300781 C 358.453125 427.9375 357.972656 427.558594 357.503906 427.164062 C 357.035156 426.769531 356.578125 426.359375 356.136719 425.9375 C 355.695312 425.515625 355.265625 425.078125 354.851562 424.625 C 354.433594 424.175781 354.035156 423.710938 353.648438 423.234375 C 353.265625 422.761719 352.894531 422.273438 352.539062 421.773438 C 352.1875 421.273438 351.847656 420.761719 351.527344 420.242188 C 351.203125 419.71875 350.898438 419.191406 350.609375 418.648438 C 350.324219 418.109375 350.050781 417.558594 349.796875 417 C 349.546875 416.445312 349.308594 415.878906 349.09375 415.304688 C 348.875 414.734375 348.675781 414.15625 348.496094 413.570312 C 348.316406 412.984375 348.152344 412.394531 348.011719 411.796875 C 347.867188 411.203125 347.742188 410.601562 347.640625 410 C 347.535156 409.394531 347.449219 408.789062 347.382812 408.179688 C 347.316406 407.570312 347.269531 406.960938 347.242188 406.347656 C 347.214844 405.738281 347.207031 405.125 347.214844 404.511719 C 347.226562 403.898438 347.257812 403.289062 347.308594 402.679688 C 347.359375 402.066406 347.429688 401.460938 347.519531 400.851562 C 347.605469 400.246094 347.714844 399.644531 347.84375 399.046875 C 347.96875 398.445312 348.113281 397.851562 348.28125 397.261719 C 348.445312 396.671875 348.628906 396.085938 348.832031 395.507812 C 349.03125 394.929688 349.253906 394.359375 349.492188 393.796875 C 349.730469 393.230469 349.984375 392.675781 350.261719 392.128906 L 408.0625 276.503906 C 408.488281 275.65625 408.949219 274.832031 409.453125 274.027344 C 409.957031 273.226562 410.5 272.453125 411.082031 271.703125 C 411.660156 270.953125 412.277344 270.238281 412.925781 269.546875 C 413.578125 268.859375 414.261719 268.207031 414.976562 267.585938 C 415.691406 266.964844 416.433594 266.378906 417.207031 265.832031 C 417.980469 265.285156 418.777344 264.777344 419.601562 264.304688 C 420.421875 263.835938 421.265625 263.410156 422.132812 263.023438 C 422.996094 262.636719 423.875 262.292969 424.773438 261.992188 C 425.671875 261.691406 426.585938 261.4375 427.507812 261.226562 C 428.429688 261.015625 429.363281 260.851562 430.300781 260.734375 C 431.242188 260.613281 432.183594 260.542969 433.128906 260.515625 C 434.078125 260.488281 435.023438 260.511719 435.96875 260.578125 C 436.914062 260.644531 437.851562 260.757812 438.785156 260.914062 C 439.71875 261.074219 440.640625 261.277344 441.554688 261.527344 C 442.46875 261.777344 443.367188 262.070312 444.253906 262.410156 C 445.136719 262.75 446.003906 263.128906 446.851562 263.550781 C 447.695312 263.976562 448.523438 264.4375 449.324219 264.941406 C 450.125 265.449219 450.898438 265.988281 451.648438 266.570312 C 452.398438 267.152344 453.113281 267.765625 453.800781 268.417969 C 454.492188 269.066406 455.144531 269.75 455.765625 270.464844 C 456.386719 271.179688 456.96875 271.925781 457.519531 272.699219 C 458.066406 273.46875 458.574219 274.269531 459.042969 275.089844 C 459.511719 275.914062 459.941406 276.757812 460.328125 277.621094 C 460.714844 278.488281 461.058594 279.367188 461.355469 280.265625 C 461.65625 281.164062 461.910156 282.074219 462.121094 283 C 462.332031 283.921875 462.496094 284.855469 462.617188 285.792969 C 462.734375 286.734375 462.808594 287.675781 462.832031 288.625 C 462.859375 289.570312 462.839844 290.515625 462.773438 291.460938 C 462.707031 292.40625 462.59375 293.34375 462.433594 294.277344 C 462.273438 295.210938 462.070312 296.136719 461.820312 297.050781 C 461.570312 297.960938 461.277344 298.863281 460.941406 299.746094 C 460.601562 300.632812 460.222656 301.496094 459.796875 302.34375 L 401.996094 417.96875 C 401.394531 419.164062 400.71875 420.316406 399.960938 421.417969 C 399.203125 422.519531 398.375 423.566406 397.472656 424.550781 C 396.570312 425.539062 395.601562 426.460938 394.574219 427.3125 C 393.542969 428.167969 392.457031 428.945312 391.320312 429.648438 C 390.183594 430.347656 389 430.96875 387.777344 431.507812 C 386.550781 432.046875 385.296875 432.5 384.007812 432.863281 C 382.722656 433.226562 381.417969 433.5 380.089844 433.683594 C 378.765625 433.867188 377.4375 433.957031 376.097656 433.953125 Z M 376.097656 433.953125 " fill-opacity="1" fill-rule="nonzero"/><path fill="rgb(51.759338%, 47.839355%, 100%)" d="M 462.804688 665.203125 L 347.195312 665.203125 C 346.25 665.203125 345.304688 665.15625 344.363281 665.066406 C 343.421875 664.972656 342.484375 664.832031 341.558594 664.648438 C 340.628906 664.464844 339.710938 664.234375 338.804688 663.960938 C 337.902344 663.683594 337.011719 663.367188 336.136719 663.003906 C 335.261719 662.640625 334.40625 662.238281 333.570312 661.792969 C 332.738281 661.34375 331.925781 660.859375 331.140625 660.332031 C 330.351562 659.808594 329.59375 659.242188 328.859375 658.644531 C 328.128906 658.042969 327.429688 657.40625 326.757812 656.738281 C 326.089844 656.070312 325.457031 655.367188 324.855469 654.636719 C 324.253906 653.90625 323.691406 653.144531 323.164062 652.359375 C 322.640625 651.570312 322.152344 650.757812 321.707031 649.925781 C 321.261719 649.089844 320.855469 648.234375 320.496094 647.359375 C 320.132812 646.484375 319.8125 645.59375 319.539062 644.6875 C 319.265625 643.785156 319.035156 642.867188 318.851562 641.9375 C 318.664062 641.007812 318.527344 640.074219 318.433594 639.132812 C 318.339844 638.1875 318.292969 637.246094 318.292969 636.296875 C 318.292969 635.351562 318.339844 634.40625 318.433594 633.464844 C 318.527344 632.523438 318.664062 631.585938 318.851562 630.660156 C 319.035156 629.730469 319.265625 628.8125 319.539062 627.90625 C 319.8125 627 320.132812 626.109375 320.496094 625.234375 C 320.855469 624.363281 321.261719 623.507812 321.707031 622.671875 C 322.152344 621.835938 322.640625 621.027344 323.164062 620.238281 C 323.691406 619.453125 324.253906 618.691406 324.855469 617.960938 C 325.457031 617.226562 326.089844 616.527344 326.757812 615.859375 C 327.429688 615.1875 328.128906 614.554688 328.859375 613.953125 C 329.59375 613.351562 330.351562 612.789062 331.140625 612.261719 C 331.925781 611.738281 332.738281 611.25 333.570312 610.804688 C 334.40625 610.359375 335.261719 609.953125 336.136719 609.59375 C 337.011719 609.230469 337.902344 608.910156 338.804688 608.636719 C 339.710938 608.363281 340.628906 608.132812 341.558594 607.949219 C 342.484375 607.761719 343.421875 607.625 344.363281 607.53125 C 345.304688 607.4375 346.25 607.390625 347.195312 607.390625 L 462.804688 607.390625 C 463.75 607.390625 464.695312 607.4375 465.636719 607.53125 C 466.578125 607.625 467.515625 607.761719 468.441406 607.949219 C 469.371094 608.132812 470.289062 608.363281 471.195312 608.636719 C 472.097656 608.910156 472.988281 609.230469 473.863281 609.59375 C 474.738281 609.953125 475.59375 610.359375 476.429688 610.804688 C 477.261719 611.25 478.074219 611.738281 478.859375 612.261719 C 479.648438 612.789062 480.40625 613.351562 481.140625 613.953125 C 481.871094 614.554688 482.570312 615.1875 483.242188 615.859375 C 483.910156 616.527344 484.542969 617.226562 485.144531 617.960938 C 485.746094 618.691406 486.308594 619.453125 486.835938 620.238281 C 487.359375 621.027344 487.847656 621.835938 488.292969 622.671875 C 488.738281 623.507812 489.144531 624.363281 489.503906 625.234375 C 489.867188 626.109375 490.1875 627 490.460938 627.90625 C 490.734375 628.8125 490.964844 629.730469 491.148438 630.660156 C 491.335938 631.585938 491.472656 632.523438 491.566406 633.464844 C 491.660156 634.40625 491.707031 635.351562 491.707031 636.296875 C 491.707031 637.246094 491.660156 638.1875 491.566406 639.132812 C 491.472656 640.074219 491.335938 641.007812 491.148438 641.9375 C 490.964844 642.867188 490.734375 643.785156 490.460938 644.6875 C 490.1875 645.59375 489.867188 646.484375 489.503906 647.359375 C 489.144531 648.234375 488.738281 649.089844 488.292969 649.925781 C 487.847656 650.757812 487.359375 651.570312 486.835938 652.359375 C 486.308594 653.144531 485.746094 653.90625 485.144531 654.636719 C 484.542969 655.367188 483.910156 656.070312 483.242188 656.738281 C 482.570312 657.40625 481.871094 658.042969 481.140625 658.644531 C 480.40625 659.242188 479.648438 659.808594 478.859375 660.332031 C 478.074219 660.859375 477.261719 661.34375 476.429688 661.792969 C 475.59375 662.238281 474.738281 662.640625 473.863281 663.003906 C 472.988281 663.367188 472.097656 663.683594 471.195312 663.960938 C 470.289062 664.234375 469.371094 664.464844 468.441406 664.648438 C 467.515625 664.832031 466.578125 664.972656 465.636719 665.066406 C 464.695312 665.15625 463.75 665.203125 462.804688 665.203125 Z M 462.804688 665.203125 " fill-opacity="1" fill-rule="nonzero"/></svg>