<svg width="1488" height="434" viewBox="0 0 1488 434" fill="none" xmlns="http://www.w3.org/2000/svg">
<path d="M145.563 258H121.315V225.172H36.0737V258H11.8257V191.131C11.8257 181.37 13.5044 172.386 16.8618 164.179C20.2192 155.972 24.8823 148.915 30.8511 143.008C36.8198 137.102 43.8766 132.501 52.0215 129.206C60.1663 125.91 69.0573 124.263 78.6943 124.263H133.346C135.024 124.263 136.61 124.574 138.102 125.195C139.594 125.817 140.9 126.688 142.019 127.807C143.138 128.926 144.009 130.231 144.63 131.724C145.252 133.216 145.563 134.801 145.563 136.48V258ZM36.0737 200.924H121.315V148.511H78.6943C77.9482 148.511 76.3628 148.635 73.938 148.884C71.5754 149.07 68.8086 149.599 65.6377 150.469C62.529 151.34 59.2337 152.676 55.752 154.479C52.2702 156.283 49.0682 158.77 46.146 161.94C43.2238 165.111 40.799 169.09 38.8716 173.878C37.0063 178.603 36.0737 184.354 36.0737 191.131V200.924Z" fill="url(#paint0_linear_151_2)"/>
<path d="M306.775 247.648C306.775 249.389 306.433 251.005 305.75 252.498C305.128 253.99 304.257 255.295 303.138 256.415C302.081 257.472 300.807 258.311 299.314 258.933C297.822 259.554 296.237 259.865 294.558 259.865C293.066 259.865 291.543 259.585 289.988 259.026C288.496 258.466 287.159 257.565 285.978 256.321L197.379 163.806V258H173.131V134.615C173.131 132.128 173.815 129.889 175.183 127.9C176.613 125.848 178.416 124.325 180.592 123.33C182.893 122.397 185.255 122.18 187.68 122.677C190.105 123.112 192.188 124.232 193.929 126.035L282.527 218.457V124.263H306.775V247.648Z" fill="url(#paint1_linear_151_2)"/>
<path d="M460.563 258H436.315V225.172H351.074V258H326.826V191.131C326.826 181.37 328.504 172.386 331.862 164.179C335.219 155.972 339.882 148.915 345.851 143.008C351.82 137.102 358.877 132.501 367.021 129.206C375.166 125.91 384.057 124.263 393.694 124.263H448.346C450.024 124.263 451.61 124.574 453.102 125.195C454.594 125.817 455.9 126.688 457.019 127.807C458.138 128.926 459.009 130.231 459.63 131.724C460.252 133.216 460.563 134.801 460.563 136.48V258ZM351.074 200.924H436.315V148.511H393.694C392.948 148.511 391.363 148.635 388.938 148.884C386.575 149.07 383.809 149.599 380.638 150.469C377.529 151.34 374.234 152.676 370.752 154.479C367.27 156.283 364.068 158.77 361.146 161.94C358.224 165.111 355.799 169.09 353.872 173.878C352.006 178.603 351.074 184.354 351.074 191.131V200.924Z" fill="url(#paint2_linear_151_2)"/>
<path d="M1153.56 148.511H1100.12V258H1075.88V148.511H1022.34V124.263H1153.56V148.511Z" fill="url(#paint3_linear_151_2)"/>
<path d="M1314.87 169.028C1314.87 174.562 1314.15 179.505 1312.72 183.857C1311.36 188.209 1309.52 192.064 1307.22 195.421C1304.92 198.717 1302.22 201.546 1299.11 203.908C1296.06 206.271 1292.89 208.229 1289.59 209.784C1286.3 211.276 1282.94 212.364 1279.52 213.048C1276.17 213.732 1272.99 214.074 1270.01 214.074H1260.22V258H1235.78V214.074H1226.08C1223.1 214.074 1219.9 213.732 1216.48 213.048C1213.12 212.364 1209.76 211.276 1206.41 209.784C1203.11 208.229 1199.94 206.271 1196.89 203.908C1193.85 201.546 1191.14 198.717 1188.78 195.421C1186.48 192.064 1184.61 188.209 1183.18 183.857C1181.82 179.443 1181.13 174.5 1181.13 169.028V124.263H1205.38V169.028C1205.38 172.199 1205.88 175.059 1206.87 177.608C1207.87 180.095 1209.27 182.24 1211.07 184.043C1212.87 185.847 1215.05 187.245 1217.6 188.24C1220.21 189.173 1223.1 189.639 1226.27 189.639H1270.01C1272.31 189.266 1274.67 188.8 1277.1 188.24C1279.52 187.618 1281.73 186.593 1283.72 185.163C1285.71 183.733 1287.36 181.743 1288.66 179.194C1289.97 176.645 1290.62 173.256 1290.62 169.028V124.263H1314.87V169.028Z" fill="url(#paint4_linear_151_2)"/>
<path d="M1473.56 258H1449.31V225.172H1364.07V258H1339.83V191.131C1339.83 181.37 1341.5 172.386 1344.86 164.179C1348.22 155.972 1352.88 148.915 1358.85 143.008C1364.82 137.102 1371.88 132.501 1380.02 129.206C1388.17 125.91 1397.06 124.263 1406.69 124.263H1461.35C1463.02 124.263 1464.61 124.574 1466.1 125.195C1467.59 125.817 1468.9 126.688 1470.02 127.807C1471.14 128.926 1472.01 130.231 1472.63 131.724C1473.25 133.216 1473.56 134.801 1473.56 136.48V258ZM1364.07 200.924H1449.31V148.511H1406.69C1405.95 148.511 1404.36 148.635 1401.94 148.884C1399.58 149.07 1396.81 149.599 1393.64 150.469C1390.53 151.34 1387.23 152.676 1383.75 154.479C1380.27 156.283 1377.07 158.77 1374.15 161.94C1371.22 165.111 1368.8 169.09 1366.87 173.878C1365.01 178.603 1364.07 184.354 1364.07 191.131V200.924Z" fill="url(#paint5_linear_151_2)"/>
<g filter="url(#filter0_d_151_2)">
<path d="M556.732 242.479C581.262 275.881 633.486 297.326 701.821 295.887L751.807 253.927L796.285 295.887C863.972 302.187 919.618 281.39 946.941 242.479C962.806 219.885 973.085 186.344 963.561 151.184C960.262 139.006 953.823 127.825 945.295 118.527C927.455 99.0749 905.754 89.49 863.089 78.9494C823.313 71.6474 799.227 68.6445 746.879 69.0332C704.909 70.7094 681.515 72.7793 640.063 78.9494C595.101 88.1976 573.31 97.9485 556.649 118.234C548.848 127.732 543.721 139.147 540.176 150.916C527.485 193.044 535.009 212.899 556.732 242.479Z" stroke="url(#paint6_linear_151_2)" stroke-width="12" shape-rendering="crispEdges"/>
</g>
<g filter="url(#filter1_ddd_151_2)">
<path fill-rule="evenodd" clip-rule="evenodd" d="M751.908 171.77L709.569 131.8C693.234 117.524 682.899 112.274 661.272 110.368C643.503 110.065 631.628 113.508 618.238 121.915C604.847 130.321 593.765 145.564 588.686 160.437C583.607 175.31 583.901 192.309 590.164 209.675C598.923 229.011 606.431 238.071 627.011 249.305C644.467 256.309 654.525 257.725 673.092 254.478C687.396 251.146 694.766 247.344 706.614 237.296L732.195 213.37L720.282 202.469L695.44 225.564C685.733 233.305 679.963 236.185 668.198 238.866C652.88 240.371 644.975 239.282 633.29 234.063C620.524 227.072 615.072 221.18 607.248 208.474C601.333 195.105 600.609 186.585 602.723 170.044C607.322 154.831 612.305 147.875 624.332 137.527C640.623 127.183 650.469 125.252 669.121 127.642C681.379 130.58 687.819 134.143 698.58 143.716L751.908 193.763V171.77Z" fill="white"/>
</g>
<g filter="url(#filter2_ddd_151_2)">
<path fill-rule="evenodd" clip-rule="evenodd" d="M751.49 193.333L786.592 226.308C799.071 238.031 812.527 249.646 829.122 253.859C837.263 255.926 844.939 256.264 852.799 254.912C867.776 252.336 876.781 250.787 894.332 235.774C911.882 220.76 918.406 196.3 917.304 179.278C916.201 162.256 912.157 153.035 903.612 140.357C892.912 126.236 884.827 120.863 868.144 114.041C850.99 108.909 841.377 108.844 824.222 113.213C818.452 114.887 814.325 116.488 809.514 119.235C804.031 122.366 799.227 126.531 794.649 130.879L776.532 148.086L788.478 158.667L802.375 145.902C809.387 139.462 816.818 133.226 825.686 129.762C837.063 125.317 846.986 125.581 862.263 129.131C878.01 135.634 884.666 140.951 892.862 153.423C901.636 170.064 903.238 180.156 898.559 199.889C891.787 216.659 886.01 223.639 872.279 232.001C861.186 237.611 854.538 239.069 841.956 238.994C834.983 238.395 829.856 237.458 824.537 235.355C815.947 231.96 808.896 225.678 802.183 219.334L751.49 171.428V193.333Z" fill="white"/>
</g>
<path d="M800.5 218L717 139L703.941 148.507L788.463 227.737L800.5 218Z" fill="white"/>
<path d="M696.652 422H658.068V407.908C658.068 407.186 658.146 406.424 658.303 405.623C658.479 404.803 658.742 403.992 659.094 403.191C659.445 402.391 659.895 401.629 660.441 400.906C661.008 400.184 661.682 399.549 662.463 399.002C663.264 398.436 664.182 397.986 665.217 397.654C666.252 397.322 667.424 397.156 668.732 397.156H685.9C686.936 397.156 687.697 396.902 688.186 396.395C688.693 395.867 688.947 395.105 688.947 394.109V390.74C688.947 389.705 688.693 388.924 688.186 388.396C687.678 387.869 686.936 387.605 685.959 387.605H661.496V379.988H685.959C687.248 379.988 688.41 380.154 689.445 380.486C690.48 380.818 691.389 381.268 692.17 381.834C692.971 382.381 693.654 383.016 694.221 383.738C694.787 384.461 695.246 385.223 695.598 386.023C695.969 386.805 696.232 387.605 696.389 388.426C696.564 389.227 696.652 389.979 696.652 390.682V394.109C696.652 396.082 696.291 397.752 695.568 399.119C694.865 400.467 693.977 401.57 692.902 402.43C691.828 403.27 690.666 403.885 689.416 404.275C688.186 404.646 687.033 404.832 685.959 404.832H668.732C668.107 404.832 667.609 404.92 667.238 405.096C666.867 405.271 666.574 405.506 666.359 405.799C666.164 406.092 666.018 406.424 665.92 406.795C665.822 407.166 665.744 407.537 665.686 407.908V414.383H696.652V422ZM752.375 404.422C752.375 406.141 752.15 407.771 751.701 409.314C751.271 410.838 750.656 412.254 749.855 413.562C749.055 414.871 748.107 416.043 747.014 417.078C745.92 418.113 744.719 419.002 743.41 419.744C742.121 420.467 740.744 421.023 739.279 421.414C737.814 421.805 736.32 422 734.797 422H721.057C719.514 422 718.01 421.805 716.545 421.414C715.08 421.023 713.693 420.467 712.385 419.744C711.096 419.002 709.904 418.113 708.811 417.078C707.717 416.043 706.77 414.871 705.969 413.562C705.188 412.254 704.572 410.838 704.123 409.314C703.693 407.771 703.479 406.141 703.479 404.422V397.566C703.479 394.988 703.957 392.625 704.914 390.477C705.891 388.328 707.189 386.482 708.811 384.939C710.432 383.377 712.297 382.166 714.406 381.307C716.535 380.428 718.752 379.988 721.057 379.988H734.797C736.32 379.988 737.814 380.184 739.279 380.574C740.744 380.965 742.121 381.531 743.41 382.273C744.719 382.996 745.92 383.875 747.014 384.91C748.107 385.945 749.055 387.117 749.855 388.426C750.656 389.734 751.271 391.16 751.701 392.703C752.15 394.227 752.375 395.848 752.375 397.566V404.422ZM744.699 397.566C744.699 396.062 744.426 394.695 743.879 393.465C743.332 392.234 742.6 391.18 741.682 390.301C740.783 389.422 739.738 388.748 738.547 388.279C737.355 387.811 736.105 387.586 734.797 387.605H721.057C719.787 387.586 718.547 387.811 717.336 388.279C716.145 388.729 715.08 389.393 714.143 390.271C713.225 391.131 712.482 392.186 711.916 393.436C711.369 394.666 711.096 396.043 711.096 397.566V404.422C711.096 405.945 711.369 407.322 711.916 408.553C712.463 409.783 713.195 410.838 714.113 411.717C715.031 412.576 716.086 413.24 717.277 413.709C718.488 414.178 719.748 414.402 721.057 414.383H734.797C736.301 414.383 737.658 414.139 738.869 413.65C740.1 413.143 741.145 412.449 742.004 411.57C742.863 410.691 743.527 409.646 743.996 408.436C744.465 407.205 744.699 405.867 744.699 404.422V397.566ZM741.389 392C741.682 392.43 741.877 392.898 741.975 393.406C742.072 393.895 742.072 394.383 741.975 394.871C741.877 395.34 741.682 395.789 741.389 396.219C741.115 396.629 740.754 396.98 740.305 397.273L719.738 411.014C719.406 411.268 719.064 411.443 718.713 411.541C718.361 411.639 718 411.688 717.629 411.688C717.004 411.688 716.408 411.541 715.842 411.248C715.275 410.955 714.816 410.535 714.465 409.988C714.172 409.559 713.977 409.1 713.879 408.611C713.781 408.104 713.771 407.615 713.85 407.146C713.947 406.658 714.133 406.209 714.406 405.799C714.68 405.369 715.041 405.008 715.49 404.715L736.115 390.975C736.545 390.682 737.004 390.486 737.492 390.389C738 390.291 738.488 390.291 738.957 390.389C739.445 390.486 739.895 390.672 740.305 390.945C740.734 391.219 741.096 391.57 741.389 392ZM797.375 422H758.791V407.908C758.791 407.186 758.869 406.424 759.025 405.623C759.201 404.803 759.465 403.992 759.816 403.191C760.168 402.391 760.617 401.629 761.164 400.906C761.73 400.184 762.404 399.549 763.186 399.002C763.986 398.436 764.904 397.986 765.939 397.654C766.975 397.322 768.146 397.156 769.455 397.156H786.623C787.658 397.156 788.42 396.902 788.908 396.395C789.416 395.867 789.67 395.105 789.67 394.109V390.74C789.67 389.705 789.416 388.924 788.908 388.396C788.4 387.869 787.658 387.605 786.682 387.605H762.219V379.988H786.682C787.971 379.988 789.133 380.154 790.168 380.486C791.203 380.818 792.111 381.268 792.893 381.834C793.693 382.381 794.377 383.016 794.943 383.738C795.51 384.461 795.969 385.223 796.32 386.023C796.691 386.805 796.955 387.605 797.111 388.426C797.287 389.227 797.375 389.979 797.375 390.682V394.109C797.375 396.082 797.014 397.752 796.291 399.119C795.588 400.467 794.699 401.57 793.625 402.43C792.551 403.27 791.389 403.885 790.139 404.275C788.908 404.646 787.756 404.832 786.682 404.832H769.455C768.83 404.832 768.332 404.92 767.961 405.096C767.59 405.271 767.297 405.506 767.082 405.799C766.887 406.092 766.74 406.424 766.643 406.795C766.545 407.166 766.467 407.537 766.408 407.908V414.383H797.375V422ZM842.551 422H803.967V407.908C803.967 407.186 804.045 406.424 804.201 405.623C804.377 404.803 804.641 403.992 804.992 403.191C805.344 402.391 805.793 401.629 806.34 400.906C806.906 400.184 807.58 399.549 808.361 399.002C809.162 398.436 810.08 397.986 811.115 397.654C812.15 397.322 813.322 397.156 814.631 397.156H831.799C832.834 397.156 833.596 396.902 834.084 396.395C834.592 395.867 834.846 395.105 834.846 394.109V390.74C834.846 389.705 834.592 388.924 834.084 388.396C833.576 387.869 832.834 387.605 831.857 387.605H807.395V379.988H831.857C833.146 379.988 834.309 380.154 835.344 380.486C836.379 380.818 837.287 381.268 838.068 381.834C838.869 382.381 839.553 383.016 840.119 383.738C840.686 384.461 841.145 385.223 841.496 386.023C841.867 386.805 842.131 387.605 842.287 388.426C842.463 389.227 842.551 389.979 842.551 390.682V394.109C842.551 396.082 842.189 397.752 841.467 399.119C840.764 400.467 839.875 401.57 838.801 402.43C837.727 403.27 836.564 403.885 835.314 404.275C834.084 404.646 832.932 404.832 831.857 404.832H814.631C814.006 404.832 813.508 404.92 813.137 405.096C812.766 405.271 812.473 405.506 812.258 405.799C812.062 406.092 811.916 406.424 811.818 406.795C811.721 407.166 811.643 407.537 811.584 407.908V414.383H842.551V422Z" fill="white"/>
<defs>
<filter id="filter0_d_151_2" x="468" y="3.00006" width="565.229" height="359.997" filterUnits="userSpaceOnUse" color-interpolation-filters="sRGB">
<feFlood flood-opacity="0" result="BackgroundImageFix"/>
<feColorMatrix in="SourceAlpha" type="matrix" values="0 0 0 0 0 0 0 0 0 0 0 0 0 0 0 0 0 0 127 0" result="hardAlpha"/>
<feOffset/>
<feGaussianBlur stdDeviation="30"/>
<feComposite in2="hardAlpha" operator="out"/>
<feColorMatrix type="matrix" values="0 0 0 0 0.0156863 0 0 0 0 0.741176 0 0 0 0 1 0 0 0 1 0"/>
<feBlend mode="normal" in2="BackgroundImageFix" result="effect1_dropShadow_151_2"/>
<feBlend mode="normal" in="SourceGraphic" in2="effect1_dropShadow_151_2" result="shape"/>
</filter>
<filter id="filter1_ddd_151_2" x="485.146" y="0.349365" width="366.762" height="365.787" filterUnits="userSpaceOnUse" color-interpolation-filters="sRGB">
<feFlood flood-opacity="0" result="BackgroundImageFix"/>
<feColorMatrix in="SourceAlpha" type="matrix" values="0 0 0 0 0 0 0 0 0 0 0 0 0 0 0 0 0 0 127 0" result="hardAlpha"/>
<feOffset dy="10"/>
<feGaussianBlur stdDeviation="50"/>
<feComposite in2="hardAlpha" operator="out"/>
<feColorMatrix type="matrix" values="0 0 0 0 0.878431 0 0 0 0 0.317647 0 0 0 0 0.698039 0 0 0 1 0"/>
<feBlend mode="normal" in2="BackgroundImageFix" result="effect1_dropShadow_151_2"/>
<feColorMatrix in="SourceAlpha" type="matrix" values="0 0 0 0 0 0 0 0 0 0 0 0 0 0 0 0 0 0 127 0" result="hardAlpha"/>
<feOffset dy="-10"/>
<feGaussianBlur stdDeviation="50"/>
<feComposite in2="hardAlpha" operator="out"/>
<feColorMatrix type="matrix" values="0 0 0 0 1 0 0 0 0 0 0 0 0 0 0.678322 0 0 0 1 0"/>
<feBlend mode="normal" in2="effect1_dropShadow_151_2" result="effect2_dropShadow_151_2"/>
<feColorMatrix in="SourceAlpha" type="matrix" values="0 0 0 0 0 0 0 0 0 0 0 0 0 0 0 0 0 0 127 0" result="hardAlpha"/>
<feOffset/>
<feGaussianBlur stdDeviation="50"/>
<feComposite in2="hardAlpha" operator="out"/>
<feColorMatrix type="matrix" values="0 0 0 0 1 0 0 0 0 0.00166678 0 0 0 0 0.678858 0 0 0 1 0"/>
<feBlend mode="normal" in2="effect2_dropShadow_151_2" result="effect3_dropShadow_151_2"/>
<feBlend mode="normal" in="SourceGraphic" in2="effect3_dropShadow_151_2" result="shape"/>
</filter>
<filter id="filter2_ddd_151_2" x="651.49" y="0.0562134" width="365.932" height="365.665" filterUnits="userSpaceOnUse" color-interpolation-filters="sRGB">
<feFlood flood-opacity="0" result="BackgroundImageFix"/>
<feColorMatrix in="SourceAlpha" type="matrix" values="0 0 0 0 0 0 0 0 0 0 0 0 0 0 0 0 0 0 127 0" result="hardAlpha"/>
<feOffset/>
<feGaussianBlur stdDeviation="25"/>
<feComposite in2="hardAlpha" operator="out"/>
<feColorMatrix type="matrix" values="0 0 0 0 0.107915 0 0 0 0 0.030705 0 0 0 0 0.995833 0 0 0 1 0"/>
<feBlend mode="normal" in2="BackgroundImageFix" result="effect1_dropShadow_151_2"/>
<feColorMatrix in="SourceAlpha" type="matrix" values="0 0 0 0 0 0 0 0 0 0 0 0 0 0 0 0 0 0 127 0" result="hardAlpha"/>
<feOffset dy="-10"/>
<feGaussianBlur stdDeviation="50"/>
<feComposite in2="hardAlpha" operator="out"/>
<feColorMatrix type="matrix" values="0 0 0 0 0.107915 0 0 0 0 0.030705 0 0 0 0 0.995833 0 0 0 1 0"/>
<feBlend mode="normal" in2="effect1_dropShadow_151_2" result="effect2_dropShadow_151_2"/>
<feColorMatrix in="SourceAlpha" type="matrix" values="0 0 0 0 0 0 0 0 0 0 0 0 0 0 0 0 0 0 127 0" result="hardAlpha"/>
<feOffset dy="10"/>
<feGaussianBlur stdDeviation="50"/>
<feComposite in2="hardAlpha" operator="out"/>
<feColorMatrix type="matrix" values="0 0 0 0 0.107915 0 0 0 0 0.030705 0 0 0 0 0.995833 0 0 0 1 0"/>
<feBlend mode="normal" in2="effect2_dropShadow_151_2" result="effect3_dropShadow_151_2"/>
<feBlend mode="normal" in="SourceGraphic" in2="effect3_dropShadow_151_2" result="shape"/>
</filter>
<linearGradient id="paint0_linear_151_2" x1="485.5" y1="261" x2="714" y2="143" gradientUnits="userSpaceOnUse">
<stop stop-color="#FF00AD"/>
<stop offset="1" stop-color="#1C08FE"/>
</linearGradient>
<linearGradient id="paint1_linear_151_2" x1="491" y1="279.5" x2="727" y2="129.5" gradientUnits="userSpaceOnUse">
<stop stop-color="#FF00AD"/>
<stop offset="1" stop-color="#1C08FE"/>
</linearGradient>
<linearGradient id="paint2_linear_151_2" x1="475" y1="261" x2="723.5" y2="133.5" gradientUnits="userSpaceOnUse">
<stop stop-color="#FF00AD"/>
<stop offset="1" stop-color="#1C08FE"/>
</linearGradient>
<linearGradient id="paint3_linear_151_2" x1="774" y1="258" x2="1008" y2="126" gradientUnits="userSpaceOnUse">
<stop stop-color="#E051B2"/>
<stop offset="1" stop-color="#1C08FE"/>
</linearGradient>
<linearGradient id="paint4_linear_151_2" x1="776" y1="261" x2="1014" y2="133.5" gradientUnits="userSpaceOnUse">
<stop stop-color="#E051B2"/>
<stop offset="0.991727" stop-color="#1C08FE"/>
</linearGradient>
<linearGradient id="paint5_linear_151_2" x1="778" y1="271.5" x2="1014" y2="118" gradientUnits="userSpaceOnUse">
<stop stop-color="#E051B2"/>
<stop offset="1" stop-color="#1C08FE"/>
</linearGradient>
<linearGradient id="paint6_linear_151_2" x1="534" y1="183" x2="967" y2="183" gradientUnits="userSpaceOnUse">
<stop offset="0.227083" stop-color="#FF00AD"/>
<stop offset="0.784375" stop-color="#1C08FE"/>
</linearGradient>
</defs>
</svg>
