<svg width="1527" height="435" viewBox="0 0 1527 435" fill="none" xmlns="http://www.w3.org/2000/svg">
<g filter="url(#filter0_ddd_196_46)">
<path fill-rule="evenodd" clip-rule="evenodd" d="M775.762 171.714L733.423 131.743C717.087 117.468 706.752 112.217 685.125 110.311C667.356 110.008 655.482 113.452 642.091 121.859C628.701 130.265 617.619 145.508 612.54 160.381C607.461 175.254 607.755 192.253 614.017 209.619C622.776 228.955 630.285 238.015 650.864 249.249C668.32 256.253 678.379 257.669 696.946 254.422C711.249 251.09 718.619 247.288 730.468 237.24L756.048 213.314L744.135 202.413L719.294 225.508C709.587 233.249 703.816 236.129 692.051 238.81C676.734 240.315 668.828 239.226 657.144 234.007C644.378 227.015 638.926 221.124 631.102 208.418C625.186 195.049 624.462 186.529 626.577 169.988C631.176 154.775 636.159 147.818 648.186 137.471C664.476 127.127 674.323 125.196 692.975 127.586C705.232 130.524 711.672 134.087 722.434 143.66L775.762 193.707V171.714Z" fill="white"/>
</g>
<g filter="url(#filter1_ddd_196_46)">
<path fill-rule="evenodd" clip-rule="evenodd" d="M775.344 193.277L810.445 226.252C822.925 237.975 836.381 249.59 852.976 253.803C861.116 255.87 868.793 256.208 876.652 254.856C891.63 252.28 900.635 250.731 918.185 235.717C935.736 220.704 942.26 196.244 941.157 179.222C940.054 162.2 936.011 152.979 927.466 140.301C916.766 126.179 908.681 120.806 891.997 113.985C874.843 108.852 865.23 108.788 848.075 113.157C842.306 114.831 838.179 116.432 833.367 119.179C827.885 122.31 823.08 126.474 818.502 130.822L800.386 148.03L812.331 158.611L826.228 145.846C833.24 139.406 840.672 133.17 849.539 129.705C860.916 125.261 870.84 125.524 886.117 129.075C901.863 135.578 908.52 140.895 916.715 153.366C925.489 170.008 927.092 180.1 922.412 199.833C915.641 216.603 909.864 223.583 896.132 231.945C885.039 237.555 878.392 239.012 865.81 238.938C858.836 238.338 853.709 237.402 848.39 235.299C839.801 231.903 832.75 225.622 826.037 219.278L775.344 171.371V193.277Z" fill="white"/>
</g>
<path d="M817.5 212L746 144.5L733 153.5L804.538 221L817.5 212Z" fill="white"/>
<g filter="url(#filter2_d_196_46)">
<path d="M175.563 259H151.315V226.172H66.0737V259H41.8257V192.131C41.8257 182.37 43.5044 173.386 46.8618 165.179C50.2192 156.972 54.8823 149.915 60.8511 144.008C66.8198 138.102 73.8766 133.501 82.0215 130.206C90.1663 126.91 99.0573 125.263 108.694 125.263H163.346C165.024 125.263 166.61 125.574 168.102 126.195C169.594 126.817 170.9 127.688 172.019 128.807C173.138 129.926 174.009 131.231 174.63 132.724C175.252 134.216 175.563 135.801 175.563 137.48V259ZM66.0737 201.924H151.315V149.511H108.694C107.948 149.511 106.363 149.635 103.938 149.884C101.575 150.07 98.8086 150.599 95.6377 151.469C92.529 152.34 89.2337 153.676 85.752 155.479C82.2702 157.283 79.0682 159.77 76.146 162.94C73.2238 166.111 70.799 170.09 68.8716 174.878C67.0063 179.603 66.0737 185.354 66.0737 192.131V201.924Z" fill="#FF00AD"/>
</g>
<g filter="url(#filter3_d_196_46)">
<path d="M336.775 248.648C336.775 250.389 336.433 252.005 335.75 253.498C335.128 254.99 334.257 256.295 333.138 257.415C332.081 258.472 330.807 259.311 329.314 259.933C327.822 260.554 326.237 260.865 324.558 260.865C323.066 260.865 321.543 260.585 319.988 260.026C318.496 259.466 317.159 258.565 315.978 257.321L227.379 164.806V259H203.131V135.615C203.131 133.128 203.815 130.889 205.183 128.9C206.613 126.848 208.416 125.325 210.592 124.33C212.893 123.397 215.255 123.18 217.68 123.677C220.105 124.112 222.188 125.232 223.929 127.035L312.527 219.457V125.263H336.775V248.648Z" fill="#FF00AD"/>
</g>
<g filter="url(#filter4_d_196_46)">
<path d="M490.563 259H466.315V226.172H381.074V259H356.826V192.131C356.826 182.37 358.504 173.386 361.862 165.179C365.219 156.972 369.882 149.915 375.851 144.008C381.82 138.102 388.877 133.501 397.021 130.206C405.166 126.91 414.057 125.263 423.694 125.263H478.346C480.024 125.263 481.61 125.574 483.102 126.195C484.594 126.817 485.9 127.688 487.019 128.807C488.138 129.926 489.009 131.231 489.63 132.724C490.252 134.216 490.563 135.801 490.563 137.48V259ZM381.074 201.924H466.315V149.511H423.694C422.948 149.511 421.363 149.635 418.938 149.884C416.575 150.07 413.809 150.599 410.638 151.469C407.529 152.34 404.234 153.676 400.752 155.479C397.27 157.283 394.068 159.77 391.146 162.94C388.224 166.111 385.799 170.09 383.872 174.878C382.006 179.603 381.074 185.354 381.074 192.131V201.924Z" fill="#FF00AD"/>
</g>
<path d="M1164.56 149.511H1111.12V259H1086.88V149.511H1033.34V125.263H1164.56V149.511Z" fill="#1C08FE"/>
<g filter="url(#filter5_d_196_46)">
<path d="M1164.56 149.511H1111.12V259H1086.88V149.511H1033.34V125.263H1164.56V149.511Z" fill="#1C08FE"/>
</g>
<path d="M1325.87 170.028C1325.87 175.562 1325.15 180.505 1323.72 184.857C1322.36 189.209 1320.52 193.064 1318.22 196.421C1315.92 199.717 1313.22 202.546 1310.11 204.908C1307.06 207.271 1303.89 209.229 1300.59 210.784C1297.3 212.276 1293.94 213.364 1290.52 214.048C1287.17 214.732 1283.99 215.074 1281.01 215.074H1271.22V259H1246.78V215.074H1237.08C1234.1 215.074 1230.9 214.732 1227.48 214.048C1224.12 213.364 1220.76 212.276 1217.41 210.784C1214.11 209.229 1210.94 207.271 1207.89 204.908C1204.85 202.546 1202.14 199.717 1199.78 196.421C1197.48 193.064 1195.61 189.209 1194.18 184.857C1192.82 180.443 1192.13 175.5 1192.13 170.028V125.263H1216.38V170.028C1216.38 173.199 1216.88 176.059 1217.87 178.608C1218.87 181.095 1220.27 183.24 1222.07 185.043C1223.87 186.847 1226.05 188.245 1228.6 189.24C1231.21 190.173 1234.1 190.639 1237.27 190.639H1281.01C1283.31 190.266 1285.67 189.8 1288.1 189.24C1290.52 188.618 1292.73 187.593 1294.72 186.163C1296.71 184.733 1298.36 182.743 1299.66 180.194C1300.97 177.645 1301.62 174.256 1301.62 170.028V125.263H1325.87V170.028Z" fill="#1C08FE"/>
<g filter="url(#filter6_d_196_46)">
<path d="M1325.87 170.028C1325.87 175.562 1325.15 180.505 1323.72 184.857C1322.36 189.209 1320.52 193.064 1318.22 196.421C1315.92 199.717 1313.22 202.546 1310.11 204.908C1307.06 207.271 1303.89 209.229 1300.59 210.784C1297.3 212.276 1293.94 213.364 1290.52 214.048C1287.17 214.732 1283.99 215.074 1281.01 215.074H1271.22V259H1246.78V215.074H1237.08C1234.1 215.074 1230.9 214.732 1227.48 214.048C1224.12 213.364 1220.76 212.276 1217.41 210.784C1214.11 209.229 1210.94 207.271 1207.89 204.908C1204.85 202.546 1202.14 199.717 1199.78 196.421C1197.48 193.064 1195.61 189.209 1194.18 184.857C1192.82 180.443 1192.13 175.5 1192.13 170.028V125.263H1216.38V170.028C1216.38 173.199 1216.88 176.059 1217.87 178.608C1218.87 181.095 1220.27 183.24 1222.07 185.043C1223.87 186.847 1226.05 188.245 1228.6 189.24C1231.21 190.173 1234.1 190.639 1237.27 190.639H1281.01C1283.31 190.266 1285.67 189.8 1288.1 189.24C1290.52 188.618 1292.73 187.593 1294.72 186.163C1296.71 184.733 1298.36 182.743 1299.66 180.194C1300.97 177.645 1301.62 174.256 1301.62 170.028V125.263H1325.87V170.028Z" fill="#1C08FE"/>
</g>
<path d="M1484.56 259H1460.31V226.172H1375.07V259H1350.83V192.131C1350.83 182.37 1352.5 173.386 1355.86 165.179C1359.22 156.972 1363.88 149.915 1369.85 144.008C1375.82 138.102 1382.88 133.501 1391.02 130.206C1399.17 126.91 1408.06 125.263 1417.69 125.263H1472.35C1474.02 125.263 1475.61 125.574 1477.1 126.195C1478.59 126.817 1479.9 127.688 1481.02 128.807C1482.14 129.926 1483.01 131.231 1483.63 132.724C1484.25 134.216 1484.56 135.801 1484.56 137.48V259ZM1375.07 201.924H1460.31V149.511H1417.69C1416.95 149.511 1415.36 149.635 1412.94 149.884C1410.58 150.07 1407.81 150.599 1404.64 151.469C1401.53 152.34 1398.23 153.676 1394.75 155.479C1391.27 157.283 1388.07 159.77 1385.15 162.94C1382.22 166.111 1379.8 170.09 1377.87 174.878C1376.01 179.603 1375.07 185.354 1375.07 192.131V201.924Z" fill="#1C08FE"/>
<g filter="url(#filter7_d_196_46)">
<path d="M1484.56 259H1460.31V226.172H1375.07V259H1350.83V192.131C1350.83 182.37 1352.5 173.386 1355.86 165.179C1359.22 156.972 1363.88 149.915 1369.85 144.008C1375.82 138.102 1382.88 133.501 1391.02 130.206C1399.17 126.91 1408.06 125.263 1417.69 125.263H1472.35C1474.02 125.263 1475.61 125.574 1477.1 126.195C1478.59 126.817 1479.9 127.688 1481.02 128.807C1482.14 129.926 1483.01 131.231 1483.63 132.724C1484.25 134.216 1484.56 135.801 1484.56 137.48V259ZM1375.07 201.924H1460.31V149.511H1417.69C1416.95 149.511 1415.36 149.635 1412.94 149.884C1410.58 150.07 1407.81 150.599 1404.64 151.469C1401.53 152.34 1398.23 153.676 1394.75 155.479C1391.27 157.283 1388.07 159.77 1385.15 162.94C1382.22 166.111 1379.8 170.09 1377.87 174.878C1376.01 179.603 1375.07 185.354 1375.07 192.131V201.924Z" fill="#1C08FE"/>
</g>
<g filter="url(#filter8_d_196_46)">
<path d="M580.732 243.479C605.262 276.881 658.665 296.939 727 295.5L735.5 285L745.5 273.5H779H815L832.5 295.5C900.186 301.8 943.618 282.39 970.941 243.479C986.806 220.885 997.085 187.344 987.561 152.184C984.262 140.006 977.823 128.825 969.295 119.527C951.455 100.075 929.754 90.49 887.089 79.9494C847.313 72.6474 823.227 69.6445 770.879 70.0332C728.909 71.7094 705.515 73.7793 664.063 79.9494C619.101 89.1976 597.31 98.9485 580.649 119.234C572.848 128.732 567.721 140.147 564.176 151.916C551.485 194.044 559.009 213.899 580.732 243.479Z" stroke="url(#paint0_linear_196_46)" stroke-width="12" shape-rendering="crispEdges"/>
</g>
<path d="M720.652 423H682.068V408.908C682.068 408.186 682.146 407.424 682.303 406.623C682.479 405.803 682.742 404.992 683.094 404.191C683.445 403.391 683.895 402.629 684.441 401.906C685.008 401.184 685.682 400.549 686.463 400.002C687.264 399.436 688.182 398.986 689.217 398.654C690.252 398.322 691.424 398.156 692.732 398.156H709.9C710.936 398.156 711.697 397.902 712.186 397.395C712.693 396.867 712.947 396.105 712.947 395.109V391.74C712.947 390.705 712.693 389.924 712.186 389.396C711.678 388.869 710.936 388.605 709.959 388.605H685.496V380.988H709.959C711.248 380.988 712.41 381.154 713.445 381.486C714.48 381.818 715.389 382.268 716.17 382.834C716.971 383.381 717.654 384.016 718.221 384.738C718.787 385.461 719.246 386.223 719.598 387.023C719.969 387.805 720.232 388.605 720.389 389.426C720.564 390.227 720.652 390.979 720.652 391.682V395.109C720.652 397.082 720.291 398.752 719.568 400.119C718.865 401.467 717.977 402.57 716.902 403.43C715.828 404.27 714.666 404.885 713.416 405.275C712.186 405.646 711.033 405.832 709.959 405.832H692.732C692.107 405.832 691.609 405.92 691.238 406.096C690.867 406.271 690.574 406.506 690.359 406.799C690.164 407.092 690.018 407.424 689.92 407.795C689.822 408.166 689.744 408.537 689.686 408.908V415.383H720.652V423ZM776.375 405.422C776.375 407.141 776.15 408.771 775.701 410.314C775.271 411.838 774.656 413.254 773.855 414.562C773.055 415.871 772.107 417.043 771.014 418.078C769.92 419.113 768.719 420.002 767.41 420.744C766.121 421.467 764.744 422.023 763.279 422.414C761.814 422.805 760.32 423 758.797 423H745.057C743.514 423 742.01 422.805 740.545 422.414C739.08 422.023 737.693 421.467 736.385 420.744C735.096 420.002 733.904 419.113 732.811 418.078C731.717 417.043 730.77 415.871 729.969 414.562C729.188 413.254 728.572 411.838 728.123 410.314C727.693 408.771 727.479 407.141 727.479 405.422V398.566C727.479 395.988 727.957 393.625 728.914 391.477C729.891 389.328 731.189 387.482 732.811 385.939C734.432 384.377 736.297 383.166 738.406 382.307C740.535 381.428 742.752 380.988 745.057 380.988H758.797C760.32 380.988 761.814 381.184 763.279 381.574C764.744 381.965 766.121 382.531 767.41 383.273C768.719 383.996 769.92 384.875 771.014 385.91C772.107 386.945 773.055 388.117 773.855 389.426C774.656 390.734 775.271 392.16 775.701 393.703C776.15 395.227 776.375 396.848 776.375 398.566V405.422ZM768.699 398.566C768.699 397.062 768.426 395.695 767.879 394.465C767.332 393.234 766.6 392.18 765.682 391.301C764.783 390.422 763.738 389.748 762.547 389.279C761.355 388.811 760.105 388.586 758.797 388.605H745.057C743.787 388.586 742.547 388.811 741.336 389.279C740.145 389.729 739.08 390.393 738.143 391.271C737.225 392.131 736.482 393.186 735.916 394.436C735.369 395.666 735.096 397.043 735.096 398.566V405.422C735.096 406.945 735.369 408.322 735.916 409.553C736.463 410.783 737.195 411.838 738.113 412.717C739.031 413.576 740.086 414.24 741.277 414.709C742.488 415.178 743.748 415.402 745.057 415.383H758.797C760.301 415.383 761.658 415.139 762.869 414.65C764.1 414.143 765.145 413.449 766.004 412.57C766.863 411.691 767.527 410.646 767.996 409.436C768.465 408.205 768.699 406.867 768.699 405.422V398.566ZM765.389 393C765.682 393.43 765.877 393.898 765.975 394.406C766.072 394.895 766.072 395.383 765.975 395.871C765.877 396.34 765.682 396.789 765.389 397.219C765.115 397.629 764.754 397.98 764.305 398.273L743.738 412.014C743.406 412.268 743.064 412.443 742.713 412.541C742.361 412.639 742 412.688 741.629 412.688C741.004 412.688 740.408 412.541 739.842 412.248C739.275 411.955 738.816 411.535 738.465 410.988C738.172 410.559 737.977 410.1 737.879 409.611C737.781 409.104 737.771 408.615 737.85 408.146C737.947 407.658 738.133 407.209 738.406 406.799C738.68 406.369 739.041 406.008 739.49 405.715L760.115 391.975C760.545 391.682 761.004 391.486 761.492 391.389C762 391.291 762.488 391.291 762.957 391.389C763.445 391.486 763.895 391.672 764.305 391.945C764.734 392.219 765.096 392.57 765.389 393ZM821.375 423H782.791V408.908C782.791 408.186 782.869 407.424 783.025 406.623C783.201 405.803 783.465 404.992 783.816 404.191C784.168 403.391 784.617 402.629 785.164 401.906C785.73 401.184 786.404 400.549 787.186 400.002C787.986 399.436 788.904 398.986 789.939 398.654C790.975 398.322 792.146 398.156 793.455 398.156H810.623C811.658 398.156 812.42 397.902 812.908 397.395C813.416 396.867 813.67 396.105 813.67 395.109V391.74C813.67 390.705 813.416 389.924 812.908 389.396C812.4 388.869 811.658 388.605 810.682 388.605H786.219V380.988H810.682C811.971 380.988 813.133 381.154 814.168 381.486C815.203 381.818 816.111 382.268 816.893 382.834C817.693 383.381 818.377 384.016 818.943 384.738C819.51 385.461 819.969 386.223 820.32 387.023C820.691 387.805 820.955 388.605 821.111 389.426C821.287 390.227 821.375 390.979 821.375 391.682V395.109C821.375 397.082 821.014 398.752 820.291 400.119C819.588 401.467 818.699 402.57 817.625 403.43C816.551 404.27 815.389 404.885 814.139 405.275C812.908 405.646 811.756 405.832 810.682 405.832H793.455C792.83 405.832 792.332 405.92 791.961 406.096C791.59 406.271 791.297 406.506 791.082 406.799C790.887 407.092 790.74 407.424 790.643 407.795C790.545 408.166 790.467 408.537 790.408 408.908V415.383H821.375V423ZM866.551 423H827.967V408.908C827.967 408.186 828.045 407.424 828.201 406.623C828.377 405.803 828.641 404.992 828.992 404.191C829.344 403.391 829.793 402.629 830.34 401.906C830.906 401.184 831.58 400.549 832.361 400.002C833.162 399.436 834.08 398.986 835.115 398.654C836.15 398.322 837.322 398.156 838.631 398.156H855.799C856.834 398.156 857.596 397.902 858.084 397.395C858.592 396.867 858.846 396.105 858.846 395.109V391.74C858.846 390.705 858.592 389.924 858.084 389.396C857.576 388.869 856.834 388.605 855.857 388.605H831.395V380.988H855.857C857.146 380.988 858.309 381.154 859.344 381.486C860.379 381.818 861.287 382.268 862.068 382.834C862.869 383.381 863.553 384.016 864.119 384.738C864.686 385.461 865.145 386.223 865.496 387.023C865.867 387.805 866.131 388.605 866.287 389.426C866.463 390.227 866.551 390.979 866.551 391.682V395.109C866.551 397.082 866.189 398.752 865.467 400.119C864.764 401.467 863.875 402.57 862.801 403.43C861.727 404.27 860.564 404.885 859.314 405.275C858.084 405.646 856.932 405.832 855.857 405.832H838.631C838.006 405.832 837.508 405.92 837.137 406.096C836.766 406.271 836.473 406.506 836.258 406.799C836.062 407.092 835.916 407.424 835.818 407.795C835.721 408.166 835.643 408.537 835.584 408.908V415.383H866.551V423Z" fill="white"/>
<defs>
<filter id="filter0_ddd_196_46" x="509" y="0.293213" width="366.762" height="365.787" filterUnits="userSpaceOnUse" color-interpolation-filters="sRGB">
<feFlood flood-opacity="0" result="BackgroundImageFix"/>
<feColorMatrix in="SourceAlpha" type="matrix" values="0 0 0 0 0 0 0 0 0 0 0 0 0 0 0 0 0 0 127 0" result="hardAlpha"/>
<feOffset dy="10"/>
<feGaussianBlur stdDeviation="50"/>
<feComposite in2="hardAlpha" operator="out"/>
<feColorMatrix type="matrix" values="0 0 0 0 0.878431 0 0 0 0 0.317647 0 0 0 0 0.698039 0 0 0 1 0"/>
<feBlend mode="normal" in2="BackgroundImageFix" result="effect1_dropShadow_196_46"/>
<feColorMatrix in="SourceAlpha" type="matrix" values="0 0 0 0 0 0 0 0 0 0 0 0 0 0 0 0 0 0 127 0" result="hardAlpha"/>
<feOffset dy="-10"/>
<feGaussianBlur stdDeviation="50"/>
<feComposite in2="hardAlpha" operator="out"/>
<feColorMatrix type="matrix" values="0 0 0 0 1 0 0 0 0 0 0 0 0 0 0.678322 0 0 0 1 0"/>
<feBlend mode="normal" in2="effect1_dropShadow_196_46" result="effect2_dropShadow_196_46"/>
<feColorMatrix in="SourceAlpha" type="matrix" values="0 0 0 0 0 0 0 0 0 0 0 0 0 0 0 0 0 0 127 0" result="hardAlpha"/>
<feOffset/>
<feGaussianBlur stdDeviation="50"/>
<feComposite in2="hardAlpha" operator="out"/>
<feColorMatrix type="matrix" values="0 0 0 0 1 0 0 0 0 0.00166678 0 0 0 0 0.678858 0 0 0 1 0"/>
<feBlend mode="normal" in2="effect2_dropShadow_196_46" result="effect3_dropShadow_196_46"/>
<feBlend mode="normal" in="SourceGraphic" in2="effect3_dropShadow_196_46" result="shape"/>
</filter>
<filter id="filter1_ddd_196_46" x="675.344" y="0" width="365.932" height="365.665" filterUnits="userSpaceOnUse" color-interpolation-filters="sRGB">
<feFlood flood-opacity="0" result="BackgroundImageFix"/>
<feColorMatrix in="SourceAlpha" type="matrix" values="0 0 0 0 0 0 0 0 0 0 0 0 0 0 0 0 0 0 127 0" result="hardAlpha"/>
<feOffset/>
<feGaussianBlur stdDeviation="25"/>
<feComposite in2="hardAlpha" operator="out"/>
<feColorMatrix type="matrix" values="0 0 0 0 0.107915 0 0 0 0 0.030705 0 0 0 0 0.995833 0 0 0 1 0"/>
<feBlend mode="normal" in2="BackgroundImageFix" result="effect1_dropShadow_196_46"/>
<feColorMatrix in="SourceAlpha" type="matrix" values="0 0 0 0 0 0 0 0 0 0 0 0 0 0 0 0 0 0 127 0" result="hardAlpha"/>
<feOffset dy="-10"/>
<feGaussianBlur stdDeviation="50"/>
<feComposite in2="hardAlpha" operator="out"/>
<feColorMatrix type="matrix" values="0 0 0 0 0.107915 0 0 0 0 0.030705 0 0 0 0 0.995833 0 0 0 1 0"/>
<feBlend mode="normal" in2="effect1_dropShadow_196_46" result="effect2_dropShadow_196_46"/>
<feColorMatrix in="SourceAlpha" type="matrix" values="0 0 0 0 0 0 0 0 0 0 0 0 0 0 0 0 0 0 127 0" result="hardAlpha"/>
<feOffset dy="10"/>
<feGaussianBlur stdDeviation="50"/>
<feComposite in2="hardAlpha" operator="out"/>
<feColorMatrix type="matrix" values="0 0 0 0 0.107915 0 0 0 0 0.030705 0 0 0 0 0.995833 0 0 0 1 0"/>
<feBlend mode="normal" in2="effect2_dropShadow_196_46" result="effect3_dropShadow_196_46"/>
<feBlend mode="normal" in="SourceGraphic" in2="effect3_dropShadow_196_46" result="shape"/>
</filter>
<filter id="filter2_d_196_46" x="0.826172" y="84.2627" width="215.736" height="215.737" filterUnits="userSpaceOnUse" color-interpolation-filters="sRGB">
<feFlood flood-opacity="0" result="BackgroundImageFix"/>
<feColorMatrix in="SourceAlpha" type="matrix" values="0 0 0 0 0 0 0 0 0 0 0 0 0 0 0 0 0 0 127 0" result="hardAlpha"/>
<feOffset/>
<feGaussianBlur stdDeviation="20.5"/>
<feComposite in2="hardAlpha" operator="out"/>
<feColorMatrix type="matrix" values="0 0 0 0 1 0 0 0 0 0 0 0 0 0 0.678431 0 0 0 1 0"/>
<feBlend mode="normal" in2="BackgroundImageFix" result="effect1_dropShadow_196_46"/>
<feBlend mode="normal" in="SourceGraphic" in2="effect1_dropShadow_196_46" result="shape"/>
</filter>
<filter id="filter3_d_196_46" x="162.131" y="81.9312" width="215.645" height="219.934" filterUnits="userSpaceOnUse" color-interpolation-filters="sRGB">
<feFlood flood-opacity="0" result="BackgroundImageFix"/>
<feColorMatrix in="SourceAlpha" type="matrix" values="0 0 0 0 0 0 0 0 0 0 0 0 0 0 0 0 0 0 127 0" result="hardAlpha"/>
<feOffset/>
<feGaussianBlur stdDeviation="20.5"/>
<feComposite in2="hardAlpha" operator="out"/>
<feColorMatrix type="matrix" values="0 0 0 0 1 0 0 0 0 0 0 0 0 0 0.678431 0 0 0 1 0"/>
<feBlend mode="normal" in2="BackgroundImageFix" result="effect1_dropShadow_196_46"/>
<feBlend mode="normal" in="SourceGraphic" in2="effect1_dropShadow_196_46" result="shape"/>
</filter>
<filter id="filter4_d_196_46" x="315.826" y="84.2627" width="215.736" height="215.737" filterUnits="userSpaceOnUse" color-interpolation-filters="sRGB">
<feFlood flood-opacity="0" result="BackgroundImageFix"/>
<feColorMatrix in="SourceAlpha" type="matrix" values="0 0 0 0 0 0 0 0 0 0 0 0 0 0 0 0 0 0 127 0" result="hardAlpha"/>
<feOffset/>
<feGaussianBlur stdDeviation="20.5"/>
<feComposite in2="hardAlpha" operator="out"/>
<feColorMatrix type="matrix" values="0 0 0 0 1 0 0 0 0 0 0 0 0 0 0.678431 0 0 0 1 0"/>
<feBlend mode="normal" in2="BackgroundImageFix" result="effect1_dropShadow_196_46"/>
<feBlend mode="normal" in="SourceGraphic" in2="effect1_dropShadow_196_46" result="shape"/>
</filter>
<filter id="filter5_d_196_46" x="991.344" y="83.2627" width="215.219" height="217.737" filterUnits="userSpaceOnUse" color-interpolation-filters="sRGB">
<feFlood flood-opacity="0" result="BackgroundImageFix"/>
<feColorMatrix in="SourceAlpha" type="matrix" values="0 0 0 0 0 0 0 0 0 0 0 0 0 0 0 0 0 0 127 0" result="hardAlpha"/>
<feOffset/>
<feGaussianBlur stdDeviation="21"/>
<feComposite in2="hardAlpha" operator="out"/>
<feColorMatrix type="matrix" values="0 0 0 0 0.109804 0 0 0 0 0.0313726 0 0 0 0 0.996078 0 0 0 1 0"/>
<feBlend mode="normal" in2="BackgroundImageFix" result="effect1_dropShadow_196_46"/>
<feBlend mode="normal" in="SourceGraphic" in2="effect1_dropShadow_196_46" result="shape"/>
</filter>
<filter id="filter6_d_196_46" x="1150.13" y="83.2627" width="217.738" height="217.737" filterUnits="userSpaceOnUse" color-interpolation-filters="sRGB">
<feFlood flood-opacity="0" result="BackgroundImageFix"/>
<feColorMatrix in="SourceAlpha" type="matrix" values="0 0 0 0 0 0 0 0 0 0 0 0 0 0 0 0 0 0 127 0" result="hardAlpha"/>
<feOffset/>
<feGaussianBlur stdDeviation="21"/>
<feComposite in2="hardAlpha" operator="out"/>
<feColorMatrix type="matrix" values="0 0 0 0 0.109804 0 0 0 0 0.0313726 0 0 0 0 0.996078 0 0 0 1 0"/>
<feBlend mode="normal" in2="BackgroundImageFix" result="effect1_dropShadow_196_46"/>
<feBlend mode="normal" in="SourceGraphic" in2="effect1_dropShadow_196_46" result="shape"/>
</filter>
<filter id="filter7_d_196_46" x="1308.83" y="83.2627" width="217.736" height="217.737" filterUnits="userSpaceOnUse" color-interpolation-filters="sRGB">
<feFlood flood-opacity="0" result="BackgroundImageFix"/>
<feColorMatrix in="SourceAlpha" type="matrix" values="0 0 0 0 0 0 0 0 0 0 0 0 0 0 0 0 0 0 127 0" result="hardAlpha"/>
<feOffset/>
<feGaussianBlur stdDeviation="21"/>
<feComposite in2="hardAlpha" operator="out"/>
<feColorMatrix type="matrix" values="0 0 0 0 0.109804 0 0 0 0 0.0313726 0 0 0 0 0.996078 0 0 0 1 0"/>
<feBlend mode="normal" in2="BackgroundImageFix" result="effect1_dropShadow_196_46"/>
<feBlend mode="normal" in="SourceGraphic" in2="effect1_dropShadow_196_46" result="shape"/>
</filter>
<filter id="filter8_d_196_46" x="492" y="4" width="565.229" height="358.667" filterUnits="userSpaceOnUse" color-interpolation-filters="sRGB">
<feFlood flood-opacity="0" result="BackgroundImageFix"/>
<feColorMatrix in="SourceAlpha" type="matrix" values="0 0 0 0 0 0 0 0 0 0 0 0 0 0 0 0 0 0 127 0" result="hardAlpha"/>
<feOffset/>
<feGaussianBlur stdDeviation="30"/>
<feComposite in2="hardAlpha" operator="out"/>
<feColorMatrix type="matrix" values="0 0 0 0 0.0156863 0 0 0 0 0.741176 0 0 0 0 1 0 0 0 1 0"/>
<feBlend mode="normal" in2="BackgroundImageFix" result="effect1_dropShadow_196_46"/>
<feBlend mode="normal" in="SourceGraphic" in2="effect1_dropShadow_196_46" result="shape"/>
</filter>
<linearGradient id="paint0_linear_196_46" x1="993.267" y1="184.123" x2="558" y2="184.123" gradientUnits="userSpaceOnUse">
<stop stop-color="#1C08FE"/>
<stop offset="1" stop-color="#FF00AD"/>
</linearGradient>
</defs>
</svg>
