<svg xmlns="http://www.w3.org/2000/svg" xmlns:xlink="http://www.w3.org/1999/xlink" width="810" zoomAndPan="magnify" viewBox="0 0 810 809.999993" height="809.999993" preserveAspectRatio="xMidYMid meet" version="1.0"><defs><clipPath id="id1"><path d="M 619 775 L 654 775 L 654 809.21875 L 619 809.21875 Z M 619 775 " clip-rule="nonzero"/></clipPath><clipPath id="id2"><path d="M 708 136 L 809.71875 136 L 809.71875 221 L 708 221 Z M 708 136 " clip-rule="nonzero"/></clipPath></defs><path fill="rgb(100%, 60.389709%, 87.449646%)" d="M 153.4375 338.050781 C 144.210938 338.050781 136.621094 345.636719 136.621094 354.90625 C 136.621094 364.136719 144.210938 371.722656 153.4375 371.722656 C 162.707031 371.722656 170.257812 364.136719 170.257812 354.90625 C 170.257812 345.636719 162.707031 338.050781 153.4375 338.050781 " fill-opacity="1" fill-rule="nonzero"/><path fill="rgb(100%, 60.389709%, 87.449646%)" d="M 137.128906 173.863281 C 139.046875 181.527344 145.890625 186.613281 153.4375 186.613281 C 154.769531 186.613281 156.175781 186.457031 157.507812 186.144531 C 166.542969 183.875 172.015625 174.722656 169.789062 165.726562 L 136.113281 31.109375 C 133.84375 22.113281 124.730469 16.558594 115.699219 18.867188 C 106.703125 21.136719 101.226562 30.25 103.496094 39.28125 L 137.128906 173.863281 " fill-opacity="1" fill-rule="nonzero"/><path fill="rgb(100%, 60.389709%, 87.449646%)" d="M 220.75 338.050781 C 211.519531 338.050781 203.929688 345.636719 203.929688 354.90625 C 203.929688 364.136719 211.519531 371.722656 220.75 371.722656 C 230.019531 371.722656 237.566406 364.136719 237.566406 354.90625 C 237.566406 345.636719 230.019531 338.050781 220.75 338.050781 " fill-opacity="1" fill-rule="nonzero"/><g clip-path="url(#id1)"><path fill="rgb(100%, 60.389709%, 87.449646%)" d="M 636.535156 775.542969 C 627.265625 775.542969 619.71875 783.128906 619.71875 792.359375 C 619.71875 801.628906 627.265625 809.21875 636.535156 809.21875 C 645.960938 809.21875 653.351562 801.628906 653.351562 792.359375 C 653.351562 783.128906 645.960938 775.542969 636.535156 775.542969 " fill-opacity="1" fill-rule="nonzero"/></g><path fill="rgb(100%, 60.389709%, 87.449646%)" d="M 654.175781 186.144531 C 655.542969 186.457031 656.914062 186.613281 658.242188 186.613281 C 665.789062 186.613281 672.636719 181.527344 674.550781 173.863281 L 708.1875 39.28125 C 710.496094 30.25 704.980469 21.136719 695.945312 18.867188 C 686.910156 16.558594 677.796875 22.113281 675.570312 31.109375 L 641.933594 165.726562 C 639.625 174.722656 645.140625 183.875 654.175781 186.144531 " fill-opacity="1" fill-rule="nonzero"/><path fill="rgb(100%, 60.389709%, 87.449646%)" d="M 8.730469 166.433594 L 76.039062 216.925781 C 79.089844 219.191406 82.609375 220.289062 86.128906 220.289062 C 91.253906 220.289062 96.296875 217.941406 99.582031 213.558594 C 105.175781 206.128906 103.691406 195.570312 96.21875 189.976562 L 28.910156 139.523438 C 21.519531 133.929688 10.957031 135.457031 5.367188 142.886719 C -0.1875 150.320312 1.296875 160.878906 8.730469 166.433594 " fill-opacity="1" fill-rule="nonzero"/><g clip-path="url(#id2)"><path fill="rgb(100%, 60.389709%, 87.449646%)" d="M 725.550781 220.289062 C 729.070312 220.289062 732.59375 219.191406 735.640625 216.925781 L 802.953125 166.433594 C 810.382812 160.878906 811.910156 150.320312 806.316406 142.886719 C 800.761719 135.457031 790.164062 133.929688 782.730469 139.523438 L 715.460938 189.976562 C 708.03125 195.570312 706.503906 206.128906 712.058594 213.558594 C 715.382812 217.941406 720.429688 220.289062 725.550781 220.289062 " fill-opacity="1" fill-rule="nonzero"/></g><path fill="rgb(100%, 60.389709%, 87.449646%)" d="M 624.566406 338.050781 C 615.335938 338.050781 607.75 345.636719 607.75 354.90625 C 607.75 364.136719 615.335938 371.722656 624.566406 371.722656 C 633.835938 371.722656 641.386719 364.136719 641.386719 354.90625 C 641.386719 345.636719 633.835938 338.050781 624.566406 338.050781 " fill-opacity="1" fill-rule="nonzero"/><path fill="rgb(100%, 60.389709%, 87.449646%)" d="M 691.878906 338.050781 C 682.648438 338.050781 675.058594 345.636719 675.058594 354.90625 C 675.058594 364.136719 682.648438 371.722656 691.878906 371.722656 C 701.148438 371.722656 708.734375 364.136719 708.734375 354.90625 C 708.734375 345.636719 701.148438 338.050781 691.878906 338.050781 " fill-opacity="1" fill-rule="nonzero"/><path fill="rgb(100%, 60.389709%, 87.449646%)" d="M 70.054688 691.417969 L 72.597656 633.140625 L 152.539062 593.640625 L 268.191406 622.269531 C 295.058594 631.460938 324 634.980469 352.042969 632.554688 L 571.535156 613.429688 C 585.183594 612.214844 597.777344 605.449219 606.070312 594.851562 C 613.617188 585.230469 616.746094 573.457031 614.867188 561.765625 C 614.164062 557.304688 612.835938 552.964844 610.957031 548.933594 C 603.566406 532.859375 586.238281 522.144531 567.660156 521.675781 L 506.804688 517.253906 L 506.804688 359.679688 C 506.804688 350.527344 516.425781 333.472656 526.632812 315.40625 C 531.445312 306.878906 536.6875 297.609375 541.847656 287.597656 L 691.878906 287.597656 C 710.457031 287.597656 725.550781 302.695312 725.550781 321.976562 L 741.625 691.417969 Z M 497.339844 298.859375 C 485.019531 320.683594 475.046875 338.285156 473.40625 354.90625 L 456.3125 354.90625 L 456.3125 260.882812 L 463.3125 253.921875 L 485.019531 232.175781 C 491.628906 225.605469 491.628906 214.96875 485.019531 208.398438 C 478.488281 201.828125 467.8125 201.828125 461.242188 208.398438 L 427.605469 242.03125 C 424.4375 245.199219 422.679688 249.464844 422.679688 253.921875 L 422.679688 354.90625 L 389.003906 354.90625 L 389.003906 253.921875 C 389.003906 249.464844 387.242188 245.199219 384.074219 242.03125 L 350.441406 208.398438 C 343.871094 201.828125 333.230469 201.828125 326.621094 208.398438 C 320.089844 214.96875 320.089844 225.605469 326.621094 232.175781 L 348.40625 253.921875 L 355.367188 260.882812 L 355.367188 354.90625 L 338.277344 354.90625 C 336.632812 338.246094 326.621094 320.175781 314.222656 297.84375 C 312.386719 294.519531 310.46875 291.078125 308.59375 287.597656 C 305.621094 282.160156 302.609375 276.566406 299.636719 270.742188 C 296.898438 265.304688 294.160156 259.710938 291.578125 253.921875 C 280.199219 228.734375 271.242188 200.300781 271.242188 168.699219 C 271.242188 98.300781 331.121094 37.210938 402.027344 35.253906 C 438.949219 34.238281 473.40625 47.730469 499.6875 73.308594 C 525.96875 98.886719 540.441406 133.148438 540.441406 169.796875 C 540.441406 201.4375 531.796875 229.320312 520.769531 253.921875 C 518.1875 259.710938 515.449219 265.34375 512.671875 270.742188 C 509.699219 276.566406 506.6875 282.160156 503.636719 287.597656 C 501.523438 291.429688 499.375 295.222656 497.339844 298.859375 Z M 473.132812 514.832031 L 453.574219 513.382812 C 453.027344 507.164062 451.425781 500.007812 447.75 492.421875 C 444.070312 484.792969 439.105469 474.820312 338.550781 452.683594 L 338.550781 388.542969 L 473.132812 388.542969 Z M 304.875 371.722656 L 304.875 445.566406 C 296.625 443.882812 287.941406 442.164062 278.671875 440.324219 C 263.574219 427.105469 209.054688 386.039062 142.292969 415.839844 C 120.78125 425.460938 99.621094 435.203125 80.8125 444.039062 L 86.128906 321.234375 C 86.128906 302.695312 101.265625 287.597656 119.804688 287.597656 L 270.496094 287.597656 C 275.347656 297.101562 280.277344 305.980469 284.8125 314.152344 C 295.136719 332.808594 304.875 350.410156 304.875 359.679688 Z M 804.789062 696.304688 C 801.582031 693.097656 797.398438 691.417969 792.824219 691.417969 L 775.300781 691.417969 L 759.1875 321.234375 C 759.1875 284.117188 728.992188 253.921875 691.878906 253.921875 L 557.257812 253.921875 C 566.917969 229.28125 574.113281 201.242188 574.113281 169.796875 C 574.113281 123.957031 556.007812 81.132812 523.152344 49.179688 C 490.339844 17.222656 446.964844 0.289062 401.089844 1.621094 C 310.9375 4.082031 237.566406 79.058594 237.566406 168.699219 C 237.566406 200.222656 245.074219 228.734375 255.089844 253.921875 L 119.804688 253.921875 C 82.6875 253.921875 52.496094 284.117188 52.496094 320.488281 L 46.433594 460.347656 C 25.3125 470.441406 11.703125 477.167969 11.390625 477.324219 C 3.058594 481.429688 -0.382812 491.519531 3.761719 499.851562 C 6.695312 505.757812 12.640625 509.160156 18.820312 509.160156 C 21.363281 509.160156 23.90625 508.691406 26.289062 507.476562 C 26.484375 507.398438 33.371094 503.996094 44.75 498.484375 C 49.71875 496.097656 55.46875 493.320312 61.960938 490.191406 C 67.277344 487.648438 73.027344 484.910156 79.167969 482.015625 C 101.34375 471.496094 128.410156 458.941406 156.058594 446.582031 C 211.558594 421.707031 256.964844 465.941406 258.804688 467.78125 C 261.191406 470.167969 264.789062 471.925781 268.113281 472.550781 C 281.253906 475.09375 293.417969 477.558594 304.875 479.984375 C 310.703125 481.195312 316.335938 482.367188 321.695312 483.542969 C 327.5625 484.792969 333.230469 486.046875 338.550781 487.257812 C 383.488281 497.425781 410.28125 505.445312 418.609375 509.863281 C 420.410156 514.792969 420.292969 518.820312 419.980469 520.972656 C 418.023438 521.832031 415.402344 522.535156 412.195312 523.160156 C 394.363281 526.5625 358.652344 526.71875 321.695312 523.238281 C 317.3125 522.847656 312.933594 522.378906 308.515625 521.871094 C 307.300781 521.714844 306.089844 521.714844 304.875 521.871094 C 297.289062 522.613281 290.796875 528.636719 289.859375 536.617188 C 288.800781 545.847656 295.371094 554.214844 304.601562 555.308594 C 320.441406 557.148438 346.492188 559.652344 372.304688 559.652344 C 386.65625 559.652344 400.894531 558.871094 413.292969 556.796875 C 425.53125 554.761719 436.015625 551.4375 442.9375 546.355469 L 502.855469 550.695312 L 565.980469 555.269531 C 572.355469 555.429688 578.417969 558.675781 580.410156 563.015625 C 581 564.34375 581.429688 565.675781 581.664062 567.082031 C 582.132812 570.09375 580.765625 572.597656 579.550781 574.160156 C 577.007812 577.367188 572.941406 579.519531 568.601562 579.910156 L 349.109375 599.035156 C 325.722656 601.03125 301.511719 598.097656 277.65625 590 L 154.652344 559.496094 C 150.78125 558.558594 146.710938 558.949219 143.113281 560.746094 L 74.277344 594.773438 L 57.070312 603.261719 L 39.863281 611.785156 L 18.820312 622.152344 L 11.390625 625.867188 C 3.058594 629.972656 -0.382812 640.0625 3.761719 648.394531 C 6.695312 654.339844 12.640625 657.78125 18.859375 657.78125 C 21.363281 657.78125 23.90625 657.195312 26.289062 656.019531 L 38.179688 650.152344 L 36.378906 691.417969 L 18.820312 691.417969 C 14.285156 691.417969 10.097656 693.253906 6.890625 696.304688 C 3.839844 699.511719 2.003906 703.695312 2.003906 708.234375 L 2.003906 741.90625 C 2.003906 779.0625 32.117188 809.21875 69.3125 809.21875 L 569.226562 809.21875 C 578.652344 809.21875 586.042969 801.628906 586.042969 792.359375 C 586.042969 783.128906 578.652344 775.542969 569.226562 775.542969 L 69.3125 775.542969 C 50.8125 775.542969 35.675781 760.40625 35.675781 741.90625 L 35.675781 725.050781 L 776.003906 725.050781 L 776.003906 741.90625 C 776.003906 760.40625 760.867188 775.542969 742.371094 775.542969 L 703.84375 775.542969 C 694.578125 775.542969 686.988281 783.128906 686.988281 792.359375 C 686.988281 801.628906 694.578125 809.21875 703.84375 809.21875 L 742.371094 809.21875 C 779.5625 809.21875 809.679688 779.0625 809.679688 741.90625 L 809.679688 708.234375 C 809.679688 703.695312 807.957031 699.511719 804.789062 696.304688 " fill-opacity="1" fill-rule="nonzero"/><path fill="rgb(100%, 60.389709%, 87.449646%)" d="M 557.296875 338.050781 C 548.027344 338.050781 540.441406 345.636719 540.441406 354.90625 C 540.441406 364.136719 548.027344 371.722656 557.296875 371.722656 C 566.527344 371.722656 574.113281 364.136719 574.113281 354.90625 C 574.113281 345.636719 566.527344 338.050781 557.296875 338.050781 " fill-opacity="1" fill-rule="nonzero"/><path fill="rgb(100%, 60.389709%, 87.449646%)" d="M 624.566406 405.359375 C 615.335938 405.359375 607.75 412.949219 607.75 422.175781 C 607.75 431.445312 615.335938 439.035156 624.566406 439.035156 C 633.835938 439.035156 641.386719 431.445312 641.386719 422.175781 C 641.386719 412.949219 633.835938 405.359375 624.566406 405.359375 " fill-opacity="1" fill-rule="nonzero"/><path fill="rgb(100%, 60.389709%, 87.449646%)" d="M 557.296875 405.359375 C 548.027344 405.359375 540.441406 412.949219 540.441406 422.175781 C 540.441406 431.445312 548.027344 439.035156 557.296875 439.035156 C 566.527344 439.035156 574.113281 431.445312 574.113281 422.175781 C 574.113281 412.949219 566.527344 405.359375 557.296875 405.359375 " fill-opacity="1" fill-rule="nonzero"/></svg>