<svg xmlns="http://www.w3.org/2000/svg" xmlns:xlink="http://www.w3.org/1999/xlink" width="810" zoomAndPan="magnify" viewBox="0 0 810 809.999993" height="809.999993" preserveAspectRatio="xMidYMid meet" version="1.0"><defs><clipPath id="id1"><path d="M 31.902344 0 L 778.136719 0 L 778.136719 809.992188 L 31.902344 809.992188 Z M 31.902344 0 " clip-rule="nonzero"/></clipPath></defs><g clip-path="url(#id1)"><path fill="rgb(51.759338%, 47.839355%, 100%)" d="M 560.945312 418.25 C 559.320312 422.609375 553.683594 423.78125 550.390625 420.503906 L 510.222656 380.574219 C 508.71875 379.078125 506.28125 379.085938 504.785156 380.59375 L 481.425781 404.089844 C 479.929688 405.59375 479.9375 408.027344 481.441406 409.527344 L 521.609375 449.453125 C 524.90625 452.734375 523.765625 458.371094 519.417969 460.023438 C 494.007812 469.675781 464.179688 464.316406 443.644531 443.902344 C 425.808594 426.171875 419.28125 401.363281 424.113281 378.457031 C 424.386719 377.164062 424.011719 375.824219 423.078125 374.894531 L 404.621094 356.550781 L 455.691406 302.992188 L 475.242188 322.421875 C 476.179688 323.351562 477.519531 323.714844 478.808594 323.433594 C 501.6875 318.464844 526.539062 324.84375 544.378906 342.574219 C 564.910156 362.988281 570.445312 392.78125 560.945312 418.25 Z M 304.136719 369.851562 C 302.972656 367.933594 301.5625 366.183594 299.949219 364.652344 C 298.339844 363.113281 296.527344 361.789062 294.554688 360.714844 L 259.980469 341.867188 L 466.589844 125.183594 C 470.328125 121.265625 476.042969 119.945312 481.121094 121.839844 L 508.421875 132.011719 C 514.714844 134.359375 519.769531 139.179688 522.410156 145.351562 L 533.871094 172.136719 C 536.003906 177.113281 534.960938 182.882812 531.222656 186.804688 L 324.613281 403.488281 Z M 304.113281 424.488281 L 229.667969 447.136719 C 224.488281 448.710938 219.574219 444.027344 220.902344 438.78125 L 239.976562 363.339844 C 240.425781 361.558594 242.628906 360.921875 243.960938 362.191406 L 282.34375 383.117188 L 305.074219 420.457031 C 306.402344 421.722656 305.875 423.953125 304.113281 424.488281 Z M 187.664062 140.203125 C 188.875 135.367188 194.921875 133.71875 198.457031 137.230469 L 242.589844 181.097656 C 244.09375 182.59375 246.527344 182.585938 248.023438 181.078125 L 280.378906 148.535156 C 281.875 147.03125 281.867188 144.59375 280.363281 143.097656 L 236.230469 99.234375 C 232.695312 95.714844 234.3125 89.664062 239.140625 88.425781 C 262.730469 82.367188 288.808594 88.542969 307.328125 106.953125 C 325.167969 124.683594 331.695312 149.496094 326.859375 172.398438 C 326.589844 173.691406 326.960938 175.027344 327.898438 175.960938 L 356.144531 204.042969 L 305.078125 257.601562 L 275.730469 228.433594 C 274.796875 227.503906 273.453125 227.140625 272.164062 227.417969 C 249.285156 232.386719 224.4375 226.007812 206.597656 208.277344 C 188.078125 189.863281 181.75 163.828125 187.664062 140.203125 Z M 774.40625 402.109375 L 690.667969 291.601562 C 679.757812 277.210938 676.015625 258.632812 680.503906 241.140625 L 682.847656 231.988281 C 692.976562 192.644531 668.71875 150.722656 636.707031 115.046875 C 572.421875 43.390625 480.816406 2.296875 384.5625 0.117188 C 296.28125 -1.882812 183.75 20.953125 94.421875 123.378906 C -47.855469 286.523438 89.664062 488.277344 144.21875 556.078125 C 156.878906 571.820312 162.125 592.257812 158.699219 612.164062 L 131.070312 772.664062 C 127.714844 792.164062 142.730469 809.992188 162.523438 809.992188 L 491.300781 809.992188 C 506.558594 809.992188 519.679688 799.195312 522.617188 784.226562 L 532.25 735.132812 C 535.222656 719.988281 548.65625 709.171875 564.085938 709.488281 L 650.257812 711.285156 C 665.238281 711.597656 679.863281 706.769531 691.707031 697.601562 L 692.636719 696.878906 C 715.882812 678.882812 724.28125 647.609375 713.179688 620.390625 C 706.757812 604.652344 709.890625 586.625 721.246094 573.976562 L 731.941406 562.054688 C 734.125 559.625 734.199219 555.960938 732.113281 553.445312 L 717.589844 535.894531 C 715.148438 532.941406 715.722656 528.542969 718.835938 526.316406 L 735.253906 514.589844 C 737.753906 512.808594 738.6875 509.539062 737.519531 506.707031 L 721.273438 467.34375 C 717.78125 458.871094 721.761719 449.167969 730.207031 445.597656 L 766.941406 430.054688 C 777.945312 425.398438 781.625 411.628906 774.40625 402.109375 " fill-opacity="1" fill-rule="nonzero"/></g></svg>