<svg xmlns="http://www.w3.org/2000/svg" xmlns:xlink="http://www.w3.org/1999/xlink" width="810" zoomAndPan="magnify" viewBox="0 0 810 809.999993" height="809.999993" preserveAspectRatio="xMidYMid meet" version="1.0"><path fill="rgb(100%, 60.389709%, 87.449646%)" d="M 141.472656 553.847656 C 135.902344 559.417969 132.835938 566.820312 132.835938 574.699219 C 132.835938 582.578125 135.902344 589.980469 141.472656 595.550781 L 214.449219 668.53125 C 220.019531 674.101562 227.425781 677.167969 235.300781 677.167969 C 243.179688 677.167969 250.585938 674.101562 256.152344 668.53125 L 548.066406 376.613281 L 433.386719 261.933594 Z M 472.648438 387.039062 L 240.882812 618.804688 C 239.5 620.1875 237.625 620.964844 235.671875 620.964844 C 233.714844 620.964844 231.839844 620.1875 230.457031 618.804688 L 188.757812 577.105469 C 185.878906 574.226562 185.878906 569.554688 188.757812 566.679688 L 420.523438 334.914062 C 421.90625 333.53125 423.78125 332.753906 425.734375 332.753906 C 427.691406 332.753906 429.566406 333.53125 430.949219 334.914062 L 472.648438 376.613281 C 475.527344 379.492188 475.527344 384.160156 472.648438 387.039062 Z M 472.648438 387.039062 " fill-opacity="1" fill-rule="nonzero"/><path fill="rgb(100%, 60.389709%, 87.449646%)" d="M 221.136719 296.808594 C 265.851562 296.808594 302.226562 260.433594 302.226562 215.71875 C 302.226562 171.003906 265.851562 134.628906 221.136719 134.628906 C 176.421875 134.628906 140.042969 171.003906 140.042969 215.71875 C 140.042969 260.433594 176.421875 296.808594 221.136719 296.808594 Z M 221.136719 296.808594 " fill-opacity="1" fill-rule="nonzero"/><path fill="rgb(100%, 60.389709%, 87.449646%)" d="M 235.667969 603.171875 L 204.394531 571.894531 L 425.738281 350.558594 L 457.011719 381.835938 Z M 235.667969 603.171875 " fill-opacity="1" fill-rule="nonzero"/><path fill="rgb(100%, 60.389709%, 87.449646%)" d="M 625.046875 132.828125 L 677.171875 184.957031 L 527.21875 334.902344 L 475.09375 282.773438 Z M 625.046875 132.828125 " fill-opacity="1" fill-rule="nonzero"/></svg>