<svg xmlns="http://www.w3.org/2000/svg" xmlns:xlink="http://www.w3.org/1999/xlink" width="810" zoomAndPan="magnify" viewBox="0 0 810 809.999993" height="809.999993" preserveAspectRatio="xMidYMid meet" version="1.0"><defs><clipPath id="id1"><path d="M 0 21.769531 L 810 21.769531 L 810 677 L 0 677 Z M 0 21.769531 " clip-rule="nonzero"/></clipPath><clipPath id="id2"><path d="M 61 707 L 150 707 L 150 788.269531 L 61 788.269531 Z M 61 707 " clip-rule="nonzero"/></clipPath></defs><g clip-path="url(#id1)"><path fill="rgb(74.119568%, 51.368713%, 100%)" d="M 678.035156 497.367188 C 671.105469 497.929688 665.53125 503.308594 664.714844 510.214844 C 657.207031 573.417969 603.488281 621.085938 539.761719 621.085938 C 519.519531 621.085938 500.148438 616.386719 482.191406 607.128906 C 476.3125 604.089844 469.121094 605.394531 464.664062 610.300781 C 443.554688 633.554688 413.4375 646.890625 382.058594 646.890625 C 340.945312 646.890625 303.285156 624.367188 283.78125 588.105469 C 281.191406 583.296875 276.195312 580.410156 270.898438 580.410156 C 269.804688 580.410156 268.691406 580.539062 267.585938 580.792969 C 258.996094 582.796875 250.246094 583.800781 241.5625 583.800781 C 183.046875 583.800781 134.164062 539.996094 127.851562 481.902344 C 127.074219 474.742188 121.203125 469.214844 114.011719 468.871094 C 66.714844 466.625 29.671875 427.800781 29.671875 380.503906 C 29.671875 348.449219 47.105469 318.804688 75.160156 303.132812 C 81.371094 299.65625 84.1875 292.222656 81.832031 285.519531 C 77.660156 273.632812 75.550781 261.207031 75.550781 248.59375 C 75.550781 187.089844 125.582031 137.046875 187.082031 137.046875 C 206.976562 137.046875 226.519531 142.371094 243.605469 152.441406 C 247.257812 154.597656 251.667969 155.0625 255.699219 153.699219 C 259.726562 152.351562 262.957031 149.3125 264.5625 145.378906 C 287.992188 88.066406 343.117188 51.023438 405 51.023438 C 451.917969 51.023438 495.457031 72.269531 524.460938 109.316406 C 529.257812 115.433594 537.996094 116.734375 544.363281 112.285156 C 564.113281 98.46875 587.3125 91.171875 611.445312 91.171875 C 676.109375 91.171875 728.714844 143.78125 728.714844 208.453125 C 728.714844 228.816406 723.390625 248.898438 713.308594 266.539062 C 711.320312 270.011719 710.847656 274.140625 711.988281 277.980469 C 713.132812 281.8125 715.796875 285.011719 719.363281 286.824219 C 756.972656 306.003906 780.328125 344.09375 780.328125 386.238281 C 780.328125 443.851562 735.394531 492.660156 678.035156 497.367188 Z M 745.289062 268.046875 C 753.613281 249.355469 757.960938 229.011719 757.960938 208.453125 C 757.960938 127.65625 692.234375 61.925781 611.445312 61.925781 C 585.796875 61.925781 560.972656 68.527344 538.941406 81.125 C 504.644531 43.246094 456.53125 21.777344 405 21.777344 C 336.523438 21.777344 274.976562 59.800781 244.128906 119.878906 C 226.238281 111.941406 206.792969 107.800781 187.082031 107.800781 C 109.457031 107.800781 46.304688 170.964844 46.304688 248.59375 C 46.304688 260.570312 47.8125 272.40625 50.796875 283.921875 C 19.457031 305.84375 0.421875 341.855469 0.421875 380.503906 C 0.421875 439.355469 43.515625 488.339844 100.554688 496.902344 C 113.472656 563.898438 172.117188 613.046875 241.5625 613.046875 C 248.890625 613.046875 256.238281 612.476562 263.542969 611.351562 C 289.339844 651.566406 333.8125 676.136719 382.058594 676.136719 C 418.007812 676.136719 452.625 662.277344 478.632812 637.78125 C 497.957031 646.113281 518.46875 650.332031 539.761719 650.332031 C 614.410156 650.332031 677.914062 597.25 691.964844 525.089844 C 722.636719 520.011719 750.757812 504.90625 772.121094 481.84375 C 796.269531 455.761719 809.578125 421.808594 809.578125 386.238281 C 809.578125 337.941406 785.28125 293.863281 745.289062 268.046875 " fill-opacity="1" fill-rule="nonzero"/></g><path fill="rgb(74.119568%, 51.368713%, 100%)" d="M 65.085938 361.742188 C 57.042969 361.109375 49.996094 367.132812 49.375 375.183594 C 49.234375 376.945312 49.167969 378.734375 49.167969 380.503906 C 49.167969 388.574219 55.710938 395.125 63.789062 395.125 C 71.863281 395.125 78.414062 388.574219 78.414062 380.503906 C 78.414062 379.480469 78.453125 378.460938 78.527344 377.457031 C 79.152344 369.398438 73.136719 362.367188 65.085938 361.742188 " fill-opacity="1" fill-rule="nonzero"/><path fill="rgb(74.119568%, 51.368713%, 100%)" d="M 84.675781 320.15625 C 83.136719 321.007812 81.613281 321.9375 80.152344 322.910156 C 73.417969 327.375 71.582031 336.445312 76.046875 343.179688 C 78.863281 347.421875 83.507812 349.722656 88.246094 349.722656 C 91.027344 349.722656 93.828125 348.929688 96.320312 347.285156 C 97.164062 346.722656 98.050781 346.179688 98.941406 345.679688 C 105.992188 341.742188 108.511719 332.835938 104.570312 325.785156 C 100.628906 318.730469 91.71875 316.210938 84.675781 320.15625 " fill-opacity="1" fill-rule="nonzero"/><path fill="rgb(74.119568%, 51.368713%, 100%)" d="M 241.5625 535.054688 C 207.980469 535.054688 179.929688 509.941406 176.304688 476.632812 C 175.4375 468.597656 168.226562 462.792969 160.191406 463.675781 C 152.164062 464.546875 146.359375 471.757812 147.234375 479.792969 C 152.46875 527.96875 193.023438 564.300781 241.5625 564.300781 C 249.636719 564.300781 256.1875 557.757812 256.1875 549.675781 C 256.1875 541.605469 249.636719 535.054688 241.5625 535.054688 " fill-opacity="1" fill-rule="nonzero"/><path fill="rgb(74.119568%, 51.368713%, 100%)" d="M 382.058594 598.144531 C 379.804688 598.144531 377.519531 598.011719 375.273438 597.777344 C 367.230469 596.910156 360.035156 602.71875 359.164062 610.75 C 358.304688 618.777344 364.109375 625.988281 372.144531 626.859375 C 375.425781 627.207031 378.761719 627.390625 382.058594 627.390625 C 390.140625 627.390625 396.683594 620.839844 396.683594 612.765625 C 396.683594 604.683594 390.140625 598.144531 382.058594 598.144531 " fill-opacity="1" fill-rule="nonzero"/><path fill="rgb(74.119568%, 51.368713%, 100%)" d="M 334.289062 576.101562 C 329.050781 569.960938 319.8125 569.230469 313.671875 574.46875 C 307.527344 579.71875 306.796875 588.949219 312.042969 595.089844 C 314.191406 597.609375 316.492188 600.03125 318.890625 602.292969 C 321.714844 604.953125 325.324219 606.277344 328.921875 606.277344 C 332.804688 606.277344 336.683594 604.738281 339.5625 601.683594 C 345.105469 595.8125 344.832031 586.558594 338.960938 581.019531 C 337.328125 579.472656 335.753906 577.820312 334.289062 576.101562 " fill-opacity="1" fill-rule="nonzero"/><path fill="rgb(74.119568%, 51.368713%, 100%)" d="M 632.550781 491.667969 C 624.570312 490.714844 617.257812 496.445312 616.3125 504.472656 C 611.714844 543.15625 578.8125 572.335938 539.769531 572.335938 C 531.6875 572.335938 525.148438 578.878906 525.148438 586.960938 C 525.148438 595.035156 531.6875 601.585938 539.769531 601.585938 C 593.625 601.585938 639.011719 561.316406 645.347656 507.914062 C 646.304688 499.894531 640.570312 492.621094 632.550781 491.667969 " fill-opacity="1" fill-rule="nonzero"/><path fill="rgb(74.119568%, 51.368713%, 100%)" d="M 746.210938 371.605469 C 738.128906 371.605469 731.585938 378.15625 731.585938 386.230469 C 731.585938 387.363281 731.554688 388.492188 731.496094 389.621094 C 731.050781 397.679688 737.230469 404.578125 745.289062 405.019531 C 745.5625 405.035156 745.835938 405.042969 746.101562 405.042969 C 753.808594 405.042969 760.269531 399.011719 760.695312 391.21875 C 760.785156 389.574219 760.832031 387.898438 760.832031 386.230469 C 760.832031 378.15625 754.28125 371.605469 746.210938 371.605469 " fill-opacity="1" fill-rule="nonzero"/><path fill="rgb(74.119568%, 51.368713%, 100%)" d="M 677.425781 448.414062 C 676.316406 448.566406 675.1875 448.6875 674.058594 448.777344 C 666.007812 449.433594 660.023438 456.496094 660.679688 464.546875 C 661.304688 472.191406 667.699219 477.980469 675.234375 477.980469 C 675.636719 477.980469 676.039062 477.964844 676.445312 477.925781 C 678.089844 477.789062 679.757812 477.609375 681.394531 477.386719 C 689.398438 476.289062 694.996094 468.910156 693.902344 460.910156 C 692.796875 452.90625 685.394531 447.324219 677.425781 448.414062 " fill-opacity="1" fill-rule="nonzero"/><path fill="rgb(74.119568%, 51.368713%, 100%)" d="M 611.445312 110.671875 C 603.367188 110.671875 596.824219 117.214844 596.824219 125.296875 C 596.824219 133.371094 603.367188 139.917969 611.445312 139.917969 C 649.230469 139.917969 679.96875 170.660156 679.96875 208.449219 C 679.96875 216.527344 686.519531 223.070312 694.59375 223.070312 C 702.675781 223.070312 709.21875 216.527344 709.21875 208.449219 C 709.21875 154.535156 665.355469 110.671875 611.445312 110.671875 " fill-opacity="1" fill-rule="nonzero"/><path fill="rgb(74.119568%, 51.368713%, 100%)" d="M 312.707031 157.117188 C 316.277344 149.875 313.300781 141.109375 306.058594 137.535156 C 298.804688 133.964844 290.039062 136.949219 286.476562 144.191406 C 285.097656 146.988281 283.800781 149.867188 282.621094 152.753906 C 279.566406 160.234375 283.15625 168.773438 290.632812 171.820312 C 292.4375 172.566406 294.3125 172.914062 296.15625 172.914062 C 301.921875 172.914062 307.382812 169.480469 309.699219 163.8125 C 310.617188 161.550781 311.632812 159.304688 312.707031 157.117188 " fill-opacity="1" fill-rule="nonzero"/><path fill="rgb(74.119568%, 51.368713%, 100%)" d="M 383.082031 101.804688 C 383.972656 101.804688 384.878906 101.722656 385.792969 101.554688 C 388.175781 101.105469 390.613281 100.738281 393.035156 100.457031 C 401.054688 99.535156 406.8125 92.285156 405.890625 84.265625 C 404.96875 76.234375 397.726562 70.492188 389.691406 71.398438 C 386.589844 71.757812 383.460938 72.230469 380.398438 72.808594 C 372.457031 74.292969 367.230469 81.941406 368.722656 89.878906 C 370.042969 96.898438 376.179688 101.804688 383.082031 101.804688 " fill-opacity="1" fill-rule="nonzero"/><path fill="rgb(74.119568%, 51.368713%, 100%)" d="M 330.558594 126.246094 C 333.816406 126.246094 337.101562 125.167969 339.8125 122.941406 C 341.695312 121.402344 343.652344 119.910156 345.640625 118.507812 C 352.234375 113.855469 353.8125 104.730469 349.15625 98.132812 C 344.503906 91.53125 335.378906 89.953125 328.785156 94.609375 C 326.226562 96.414062 323.703125 98.332031 321.289062 100.3125 C 315.035156 105.421875 314.121094 114.640625 319.242188 120.894531 C 322.128906 124.417969 326.324219 126.246094 330.558594 126.246094 " fill-opacity="1" fill-rule="nonzero"/><path fill="rgb(74.119568%, 51.368713%, 100%)" d="M 201.707031 171.171875 C 201.707031 163.097656 195.164062 156.546875 187.082031 156.546875 C 136.335938 156.546875 95.039062 197.84375 95.039062 248.59375 C 95.039062 256.667969 101.589844 263.21875 109.664062 263.21875 C 117.746094 263.21875 124.285156 256.667969 124.285156 248.59375 C 124.285156 213.96875 152.460938 185.796875 187.082031 185.796875 C 195.164062 185.796875 201.707031 179.253906 201.707031 171.171875 " fill-opacity="1" fill-rule="nonzero"/><path fill="rgb(74.119568%, 51.368713%, 100%)" d="M 213.03125 714.3125 C 195.695312 714.3125 181.59375 702.796875 181.59375 688.628906 C 181.59375 674.46875 195.695312 662.945312 213.03125 662.945312 C 230.367188 662.945312 244.472656 674.46875 244.472656 688.628906 C 244.472656 702.796875 230.367188 714.3125 213.03125 714.3125 Z M 213.03125 633.699219 C 179.566406 633.699219 152.34375 658.34375 152.34375 688.628906 C 152.34375 718.921875 179.566406 743.5625 213.03125 743.5625 C 246.488281 743.5625 273.71875 718.921875 273.71875 688.628906 C 273.71875 658.34375 246.488281 633.699219 213.03125 633.699219 " fill-opacity="1" fill-rule="nonzero"/><g clip-path="url(#id2)"><path fill="rgb(74.119568%, 51.368713%, 100%)" d="M 105.246094 759.078125 C 97.316406 759.078125 90.621094 754.058594 90.621094 748.109375 C 90.621094 742.167969 97.316406 737.140625 105.246094 737.140625 C 113.175781 737.140625 119.871094 742.167969 119.871094 748.109375 C 119.871094 754.058594 113.175781 759.078125 105.246094 759.078125 Z M 105.246094 707.890625 C 81.058594 707.890625 61.375 725.9375 61.375 748.109375 C 61.375 770.289062 81.058594 788.324219 105.246094 788.324219 C 129.4375 788.324219 149.117188 770.289062 149.117188 748.109375 C 149.117188 725.9375 129.4375 707.890625 105.246094 707.890625 " fill-opacity="1" fill-rule="nonzero"/></g><path fill="rgb(74.119568%, 51.368713%, 100%)" d="M 405.707031 223.695312 C 380.734375 223.003906 356.628906 232.898438 339.644531 250.78125 C 331.113281 259.769531 324.578125 270.644531 320.734375 282.253906 C 318.199219 289.917969 322.347656 298.195312 330.019531 300.730469 C 337.6875 303.269531 345.957031 299.117188 348.496094 291.445312 C 351 283.90625 355.265625 276.808594 360.855469 270.925781 C 372.136719 259.039062 388.136719 252.488281 404.925781 252.929688 C 434.878906 253.738281 459.914062 277.882812 460.734375 306.75 C 461.398438 329.875 446.898438 351.183594 424.648438 359.777344 C 402.785156 368.230469 388.648438 388.339844 388.648438 411.015625 L 388.648438 430.886719 C 388.648438 438.960938 395.199219 445.511719 403.269531 445.511719 C 411.351562 445.511719 417.894531 438.960938 417.894531 430.886719 L 417.894531 411.015625 C 417.894531 400.527344 424.6875 391.121094 435.199219 387.058594 C 468.976562 374.003906 490.988281 341.398438 489.976562 305.917969 C 488.71875 261.796875 450.917969 224.90625 405.707031 223.695312 " fill-opacity="1" fill-rule="nonzero"/><path fill="rgb(74.119568%, 51.368713%, 100%)" d="M 403.269531 468.925781 C 395.199219 468.925781 388.648438 475.476562 388.648438 483.550781 L 388.648438 498.628906 C 388.648438 506.703125 395.199219 513.253906 403.269531 513.253906 C 411.351562 513.253906 417.894531 506.703125 417.894531 498.628906 L 417.894531 483.550781 C 417.894531 475.476562 411.351562 468.925781 403.269531 468.925781 " fill-opacity="1" fill-rule="nonzero"/></svg>