<svg xmlns="http://www.w3.org/2000/svg" xmlns:xlink="http://www.w3.org/1999/xlink" width="810" zoomAndPan="magnify" viewBox="0 0 810 809.999993" height="809.999993" preserveAspectRatio="xMidYMid meet" version="1.0"><path fill="rgb(51.759338%, 47.839355%, 100%)" d="M 293.625 612.5625 C 283.5 604.96875 270.84375 604.96875 263.25 612.5625 L 136.6875 713.8125 C 126.5625 721.40625 124.03125 739.125 131.625 749.25 C 139.21875 759.375 156.9375 761.90625 167.0625 754.3125 L 278.4375 665.71875 L 389.8125 754.3125 C 394.875 756.84375 399.9375 759.375 405 759.375 C 412.59375 759.375 420.1875 756.84375 425.25 749.25 C 432.84375 739.125 432.84375 721.40625 420.1875 713.8125 Z M 293.625 612.5625 " fill-opacity="1" fill-rule="nonzero"/><path fill="rgb(51.759338%, 47.839355%, 100%)" d="M 430.3125 202.5 L 405 202.5 L 405 177.1875 C 405 134.15625 372.09375 101.25 329.0625 101.25 L 151.875 101.25 C 136.6875 101.25 126.5625 111.375 126.5625 126.5625 C 126.5625 141.75 136.6875 151.875 151.875 151.875 L 329.0625 151.875 C 344.25 151.875 354.375 162 354.375 177.1875 L 354.375 202.5 L 151.875 202.5 C 108.84375 202.5 75.9375 235.40625 75.9375 278.4375 L 75.9375 531.5625 C 75.9375 574.59375 108.84375 607.5 151.875 607.5 L 430.3125 607.5 C 473.34375 607.5 506.25 574.59375 506.25 531.5625 L 506.25 278.4375 C 506.25 235.40625 473.34375 202.5 430.3125 202.5 Z M 354.375 455.625 C 326.53125 455.625 303.75 432.84375 303.75 405 L 278.4375 405 C 278.4375 432.84375 255.65625 455.625 227.8125 455.625 C 199.96875 455.625 177.1875 432.84375 177.1875 405 C 177.1875 377.15625 199.96875 354.375 227.8125 354.375 L 354.375 354.375 C 382.21875 354.375 405 377.15625 405 405 C 405 432.84375 382.21875 455.625 354.375 455.625 Z M 354.375 455.625 " fill-opacity="1" fill-rule="nonzero"/><path fill="rgb(51.759338%, 47.839355%, 100%)" d="M 721.40625 205.03125 C 713.8125 199.96875 703.6875 199.96875 696.09375 205.03125 L 569.53125 280.96875 C 561.9375 286.03125 556.875 293.625 556.875 303.75 L 556.875 506.25 C 556.875 516.375 561.9375 523.96875 569.53125 529.03125 L 696.09375 604.96875 C 698.625 607.5 703.6875 607.5 708.75 607.5 C 713.8125 607.5 716.34375 607.5 721.40625 604.96875 C 729 599.90625 734.0625 592.3125 734.0625 582.1875 L 734.0625 227.8125 C 734.0625 217.6875 729 210.09375 721.40625 205.03125 Z M 721.40625 205.03125 " fill-opacity="1" fill-rule="nonzero"/></svg>