<svg xmlns="http://www.w3.org/2000/svg" xmlns:xlink="http://www.w3.org/1999/xlink" width="810" zoomAndPan="magnify" viewBox="0 0 810 809.999993" height="809.999993" preserveAspectRatio="xMidYMid meet" version="1.0"><path fill="rgb(51.759338%, 47.839355%, 100%)" d="M 405 162 C 271.011719 162 162 271.011719 162 405 C 162 494.632812 212.542969 577.789062 291.601562 619.667969 L 291.601562 664.945312 L 465.410156 616.199219 C 474.042969 613.835938 482.96875 618.792969 485.382812 627.410156 C 487.796875 636.027344 482.777344 644.96875 474.175781 647.382812 L 291.601562 698.59375 L 291.601562 730.378906 L 401.0625 703.015625 C 409.746094 700.859375 418.542969 706.09375 420.714844 714.808594 C 422.886719 723.476562 417.605469 732.273438 408.921875 734.441406 L 292.039062 763.667969 C 293.1875 771.492188 299.652344 777.601562 307.800781 777.601562 L 388.800781 777.601562 L 388.800781 793.800781 C 388.800781 802.757812 396.058594 810 405 810 C 413.941406 810 421.199219 802.757812 421.199219 793.800781 L 421.199219 777.601562 L 502.199219 777.601562 C 511.160156 777.601562 518.398438 770.359375 518.398438 761.398438 L 518.398438 619.667969 C 597.472656 577.804688 648 494.652344 648 405 C 648 271.011719 538.988281 162 405 162 Z M 508.210938 377.929688 L 459.5625 397.371094 C 455.707031 398.910156 451.398438 398.910156 447.542969 397.371094 L 404.917969 380.328125 L 362.378906 397.355469 C 360.449219 398.132812 358.390625 398.519531 356.351562 398.519531 C 354.308594 398.519531 352.269531 398.132812 350.324219 397.355469 L 301.773438 377.914062 C 293.464844 374.59375 289.429688 365.164062 292.75 356.855469 C 296.070312 348.542969 305.484375 344.492188 313.808594 347.832031 L 356.335938 364.855469 L 398.875 347.832031 C 402.730469 346.273438 407.042969 346.292969 410.914062 347.832031 L 453.535156 364.871094 L 496.171875 347.832031 C 504.484375 344.542969 513.914062 348.542969 517.234375 356.871094 C 520.570312 365.179688 516.519531 374.609375 508.210938 377.929688 Z M 508.210938 377.929688 " fill-opacity="1" fill-rule="nonzero"/><path fill="rgb(51.759338%, 47.839355%, 100%)" d="M 81 388.800781 L 16.199219 388.800781 C 7.257812 388.800781 0 396.058594 0 405 C 0 413.941406 7.257812 421.199219 16.199219 421.199219 L 81 421.199219 C 89.941406 421.199219 97.199219 413.941406 97.199219 405 C 97.199219 396.058594 89.941406 388.800781 81 388.800781 Z M 81 388.800781 " fill-opacity="1" fill-rule="nonzero"/><path fill="rgb(51.759338%, 47.839355%, 100%)" d="M 793.800781 388.800781 L 729 388.800781 C 720.042969 388.800781 712.800781 396.058594 712.800781 405 C 712.800781 413.941406 720.042969 421.199219 729 421.199219 L 793.800781 421.199219 C 802.757812 421.199219 810 413.941406 810 405 C 810 396.058594 802.757812 388.800781 793.800781 388.800781 Z M 793.800781 388.800781 " fill-opacity="1" fill-rule="nonzero"/><path fill="rgb(51.759338%, 47.839355%, 100%)" d="M 405 97.199219 C 413.941406 97.199219 421.199219 89.941406 421.199219 81 L 421.199219 16.199219 C 421.199219 7.257812 413.941406 0 405 0 C 396.058594 0 388.800781 7.257812 388.800781 16.199219 L 388.800781 81 C 388.800781 89.941406 396.058594 97.199219 405 97.199219 Z M 405 97.199219 " fill-opacity="1" fill-rule="nonzero"/><path fill="rgb(51.759338%, 47.839355%, 100%)" d="M 175.898438 192.101562 C 180.046875 192.101562 184.195312 190.511719 187.351562 187.351562 C 193.6875 181.019531 193.6875 170.78125 187.351562 164.445312 L 141.523438 118.617188 C 135.1875 112.28125 124.949219 112.28125 118.617188 118.617188 C 112.28125 124.949219 112.28125 135.1875 118.617188 141.523438 L 164.445312 187.351562 C 167.605469 190.511719 171.753906 192.101562 175.898438 192.101562 Z M 175.898438 192.101562 " fill-opacity="1" fill-rule="nonzero"/><path fill="rgb(51.759338%, 47.839355%, 100%)" d="M 668.476562 118.617188 L 622.664062 164.445312 C 616.328125 170.78125 616.328125 181.035156 622.664062 187.351562 C 625.820312 190.511719 629.96875 192.101562 634.117188 192.101562 C 638.265625 192.101562 642.410156 190.511719 645.570312 187.351562 L 691.382812 141.523438 C 697.71875 135.1875 697.71875 124.933594 691.382812 118.617188 C 685.050781 112.296875 674.792969 112.296875 668.476562 118.617188 Z M 668.476562 118.617188 " fill-opacity="1" fill-rule="nonzero"/></svg>