<svg xmlns="http://www.w3.org/2000/svg" xmlns:xlink="http://www.w3.org/1999/xlink" width="810" zoomAndPan="magnify" viewBox="0 0 810 809.999993" height="809.999993" preserveAspectRatio="xMidYMid meet" version="1.0"><path fill="rgb(100%, 60.389709%, 87.449646%)" d="M 556.875 177.1875 C 515.007812 177.1875 480.9375 211.257812 480.9375 253.125 C 480.9375 270.335938 486.910156 286.058594 496.605469 298.8125 C 471.875 317.292969 455.625 346.527344 455.625 379.6875 L 354.375 379.6875 C 354.375 346.527344 338.125 317.292969 313.394531 298.8125 C 323.089844 286.058594 329.0625 270.335938 329.0625 253.125 C 329.0625 211.257812 294.992188 177.1875 253.125 177.1875 C 211.257812 177.1875 177.1875 211.257812 177.1875 253.125 C 177.1875 270.335938 183.160156 286.058594 192.855469 298.8125 C 168.125 317.292969 151.875 346.527344 151.875 379.6875 L 126.5625 379.6875 C 114.691406 379.6875 104.414062 387.941406 101.859375 399.507812 L 51.234375 627.320312 C 49.5625 634.8125 51.382812 642.660156 56.195312 648.632812 C 61.003906 654.632812 68.269531 658.125 75.9375 658.125 L 165.949219 658.125 C 157.242188 673.085938 151.875 690.222656 151.875 708.75 L 151.875 734.0625 C 151.875 748.035156 163.214844 759.375 177.1875 759.375 L 329.0625 759.375 C 343.035156 759.375 354.375 748.035156 354.375 734.0625 L 354.375 708.75 C 354.375 690.222656 349.007812 673.085938 340.300781 658.125 L 469.722656 658.125 C 460.992188 673.085938 455.625 690.222656 455.625 708.75 L 455.625 734.0625 C 455.625 748.035156 466.964844 759.375 480.9375 759.375 L 632.8125 759.375 C 646.785156 759.375 658.125 748.035156 658.125 734.0625 L 658.125 708.75 C 658.125 690.222656 652.757812 673.085938 644.050781 658.125 L 734.0625 658.125 C 741.730469 658.125 748.996094 654.632812 753.804688 648.632812 C 758.589844 642.660156 760.4375 634.8125 758.765625 627.320312 L 708.140625 399.507812 C 705.585938 387.941406 695.308594 379.6875 683.4375 379.6875 L 658.125 379.6875 C 658.125 346.527344 641.875 317.292969 617.144531 298.8125 C 626.839844 286.058594 632.8125 270.335938 632.8125 253.125 C 632.8125 211.257812 598.742188 177.1875 556.875 177.1875 Z M 531.5625 253.125 C 531.5625 239.179688 542.929688 227.8125 556.875 227.8125 C 570.820312 227.8125 582.1875 239.179688 582.1875 253.125 C 582.1875 267.074219 570.820312 278.4375 556.875 278.4375 C 542.929688 278.4375 531.5625 267.074219 531.5625 253.125 Z M 227.8125 253.125 C 227.8125 239.179688 239.179688 227.8125 253.125 227.8125 C 267.070312 227.8125 278.4375 239.179688 278.4375 253.125 C 278.4375 267.074219 267.070312 278.4375 253.125 278.4375 C 239.179688 278.4375 227.8125 267.074219 227.8125 253.125 Z M 253.125 329.0625 C 281.042969 329.0625 303.75 351.769531 303.75 379.6875 L 202.5 379.6875 C 202.5 351.769531 225.207031 329.0625 253.125 329.0625 Z M 227.8125 582.1875 C 227.8125 568.242188 239.179688 556.875 253.125 556.875 C 267.070312 556.875 278.4375 568.242188 278.4375 582.1875 C 278.4375 596.136719 267.070312 607.5 253.125 607.5 C 239.179688 607.5 227.8125 596.136719 227.8125 582.1875 Z M 303.75 708.75 L 202.5 708.75 C 202.5 680.832031 225.207031 658.125 253.125 658.125 C 281.042969 658.125 303.75 680.832031 303.75 708.75 Z M 531.5625 582.1875 C 531.5625 568.242188 542.929688 556.875 556.875 556.875 C 570.820312 556.875 582.1875 568.242188 582.1875 582.1875 C 582.1875 596.136719 570.820312 607.5 556.875 607.5 C 542.929688 607.5 531.5625 596.136719 531.5625 582.1875 Z M 607.5 708.75 L 506.25 708.75 C 506.25 680.832031 528.957031 658.125 556.875 658.125 C 584.792969 658.125 607.5 680.832031 607.5 708.75 Z M 663.136719 430.3125 L 702.523438 607.5 L 628.15625 607.5 C 630.988281 599.550781 632.8125 591.097656 632.8125 582.1875 C 632.8125 540.320312 598.742188 506.25 556.875 506.25 C 515.007812 506.25 480.9375 540.320312 480.9375 582.1875 C 480.9375 591.097656 482.761719 599.550781 485.59375 607.5 L 324.378906 607.5 C 327.238281 599.550781 329.0625 591.097656 329.0625 582.1875 C 329.0625 540.320312 294.992188 506.25 253.125 506.25 C 211.257812 506.25 177.1875 540.320312 177.1875 582.1875 C 177.1875 591.097656 179.011719 599.550781 181.84375 607.5 L 107.503906 607.5 L 146.886719 430.3125 Z M 506.25 379.6875 C 506.25 351.769531 528.957031 329.0625 556.875 329.0625 C 584.792969 329.0625 607.5 351.769531 607.5 379.6875 Z M 506.25 379.6875 " fill-opacity="1" fill-rule="nonzero"/><path fill="rgb(100%, 60.389709%, 87.449646%)" d="M 455.625 50.625 L 354.375 50.625 C 312.507812 50.625 278.4375 84.695312 278.4375 126.5625 C 278.4375 168.429688 312.507812 202.5 354.375 202.5 L 376.269531 202.5 L 410.871094 244.011719 C 415.707031 249.835938 422.84375 253.125 430.3125 253.125 C 431.273438 253.125 432.261719 253.074219 433.222656 252.949219 C 441.703125 251.960938 449.121094 246.773438 452.941406 239.128906 L 472.152344 200.675781 C 506.125 193.109375 531.5625 162.757812 531.5625 126.5625 C 531.5625 84.695312 497.492188 50.625 455.625 50.625 Z M 455.625 151.875 C 446.03125 151.875 437.273438 157.292969 432.96875 165.871094 L 424.996094 181.871094 L 407.582031 160.988281 C 402.773438 155.214844 395.632812 151.875 388.117188 151.875 L 354.375 151.875 C 340.429688 151.875 329.0625 140.511719 329.0625 126.5625 C 329.0625 112.617188 340.429688 101.25 354.375 101.25 L 455.625 101.25 C 469.570312 101.25 480.9375 112.617188 480.9375 126.5625 C 480.9375 140.511719 469.570312 151.875 455.625 151.875 Z M 455.625 151.875 " fill-opacity="1" fill-rule="nonzero"/></svg>