<svg xmlns="http://www.w3.org/2000/svg" xmlns:xlink="http://www.w3.org/1999/xlink" width="810" zoomAndPan="magnify" viewBox="0 0 810 809.999993" height="809.999993" preserveAspectRatio="xMidYMid meet" version="1.0"><path fill="rgb(87.838745%, 31.759644%, 69.799805%)" d="M 379.261719 344.757812 C 335.988281 344.757812 300.90625 309.0625 300.90625 309.0625 C 300.90625 309.0625 335.988281 273.375 379.261719 273.375 C 422.539062 273.375 457.617188 309.0625 457.617188 309.0625 C 457.617188 309.0625 422.539062 344.757812 379.261719 344.757812 Z M 351.429688 488.894531 C 331.726562 516.488281 296.199219 534.910156 255.636719 534.910156 C 215.070312 534.910156 179.546875 516.488281 159.84375 488.894531 C 154.648438 481.617188 161.648438 471.957031 170.222656 474.480469 C 195.273438 481.855469 224.46875 486.085938 255.636719 486.085938 C 286.804688 486.085938 316 481.855469 341.046875 474.480469 C 349.621094 471.957031 356.621094 481.617188 351.429688 488.894531 Z M 53.652344 309.0625 C 53.652344 309.0625 88.734375 273.375 132.007812 273.375 C 175.285156 273.375 210.363281 309.0625 210.363281 309.0625 C 210.363281 309.0625 175.285156 344.757812 132.007812 344.757812 C 88.734375 344.757812 53.652344 309.0625 53.652344 309.0625 Z M 481.332031 150.078125 C 477.042969 137.941406 462.753906 132.765625 451.550781 139.109375 C 396.878906 170.03125 329.078125 188.34375 255.636719 188.34375 C 182.191406 188.34375 114.398438 170.03125 59.722656 139.109375 C 48.515625 132.769531 34.230469 137.941406 29.9375 150.078125 C 15.050781 192.144531 6.734375 239.058594 6.734375 288.535156 C 6.734375 469.71875 118.171875 616.59375 255.636719 616.59375 C 393.101562 616.59375 504.539062 469.71875 504.539062 288.535156 C 504.539062 239.058594 496.21875 192.144531 481.332031 150.078125 " fill-opacity="1" fill-rule="nonzero"/><path fill="rgb(87.838745%, 31.759644%, 69.799805%)" d="M 49.417969 143.0625 C 47.738281 143.0625 46.054688 143.363281 44.441406 143.96875 C 40.589844 145.410156 37.597656 148.445312 36.234375 152.304688 C 21.089844 195.101562 13.414062 240.933594 13.414062 288.535156 C 13.414062 374.714844 38.820312 455.664062 84.957031 516.46875 C 130.675781 576.730469 191.289062 609.914062 255.636719 609.914062 C 319.980469 609.914062 380.597656 576.730469 426.3125 516.46875 C 472.449219 455.664062 497.859375 374.714844 497.859375 288.535156 C 497.859375 240.933594 490.179688 195.101562 475.042969 152.304688 C 473.671875 148.445312 470.679688 145.410156 466.832031 143.96875 C 462.886719 142.488281 458.511719 142.835938 454.835938 144.921875 C 396.882812 177.699219 328.003906 195.023438 255.636719 195.023438 C 183.269531 195.023438 114.386719 177.699219 56.4375 144.921875 C 54.261719 143.6875 51.84375 143.0625 49.417969 143.0625 Z M 255.636719 623.269531 C 220.882812 623.269531 187.191406 614.308594 155.5 596.640625 C 125.050781 579.667969 97.738281 555.414062 74.316406 524.542969 C 51 493.8125 32.703125 458.058594 19.9375 418.273438 C 6.746094 377.171875 0.0585938 333.515625 0.0585938 288.535156 C 0.0585938 239.414062 7.992188 192.082031 23.640625 147.851562 C 26.328125 140.261719 32.203125 134.285156 39.765625 131.460938 C 47.414062 128.601562 55.890625 129.265625 63.011719 133.296875 C 118.960938 164.9375 185.566406 181.664062 255.636719 181.664062 C 325.703125 181.664062 392.3125 164.9375 448.257812 133.296875 C 455.386719 129.269531 463.855469 128.59375 471.511719 131.460938 C 479.070312 134.285156 484.949219 140.261719 487.628906 147.851562 C 503.28125 192.082031 511.210938 239.414062 511.210938 288.535156 C 511.210938 333.515625 504.527344 377.171875 491.335938 418.273438 C 478.566406 458.058594 460.269531 493.8125 436.957031 524.542969 C 413.535156 555.414062 386.222656 579.667969 355.773438 596.640625 C 324.078125 614.308594 290.390625 623.269531 255.636719 623.269531 " fill-opacity="1" fill-rule="nonzero"/><path fill="rgb(87.838745%, 31.759644%, 69.799805%)" d="M 63.578125 309.054688 C 74.464844 318.316406 101.320312 338.078125 132.007812 338.078125 C 162.792969 338.078125 189.570312 318.332031 200.4375 309.074219 C 189.546875 299.816406 162.691406 280.054688 132.007812 280.054688 C 101.226562 280.054688 74.441406 299.796875 63.578125 309.054688 Z M 132.007812 351.4375 C 86.457031 351.4375 50.402344 315.285156 48.890625 313.742188 C 46.335938 311.144531 46.335938 306.988281 48.890625 304.382812 C 50.402344 302.84375 86.457031 266.699219 132.007812 266.699219 C 177.558594 266.699219 213.613281 302.84375 215.128906 304.382812 C 217.679688 306.988281 217.679688 311.144531 215.128906 313.742188 C 213.613281 315.285156 177.558594 351.4375 132.007812 351.4375 " fill-opacity="1" fill-rule="nonzero"/><path fill="rgb(86.669922%, 54.508972%, 76.469421%)" d="M 637.578125 422.800781 C 597.210938 407.207031 577.351562 361.273438 577.351562 361.273438 C 577.351562 361.273438 622.945312 340.617188 663.3125 356.21875 C 703.675781 371.8125 723.535156 417.746094 723.535156 417.746094 C 723.535156 417.746094 677.949219 438.390625 637.578125 422.800781 Z M 779.132812 257.015625 C 716.988281 266.164062 647.140625 258.816406 578.640625 232.351562 C 549.71875 221.175781 517.753906 207.300781 493.433594 191.367188 C 498.328125 218.207031 506.011719 245.800781 506.011719 273.941406 C 506.011719 353.617188 486.910156 431.019531 449.917969 493.242188 C 458.8125 494.644531 466.808594 495.457031 475.652344 498.875 C 513.484375 513.496094 539.988281 543.476562 548.417969 576.324219 C 550.636719 584.976562 540.636719 591.464844 533.542969 586.023438 C 512.835938 570.117188 487.128906 555.652344 458.054688 544.417969 C 445.46875 539.558594 435.511719 535.546875 423.234375 532.414062 C 404.691406 555.433594 375.371094 575.042969 353.207031 590.421875 C 371.835938 608.332031 399.714844 622.328125 424.28125 631.820312 C 552.503906 681.355469 709.394531 584.503906 774.703125 415.5 C 792.527344 369.34375 801.683594 322.589844 802.964844 277.984375 C 803.332031 265.113281 791.875 255.140625 779.132812 257.015625 " fill-opacity="1" fill-rule="nonzero"/><path fill="rgb(87.838745%, 31.759644%, 69.799805%)" d="M 310.839844 309.0625 C 321.738281 318.320312 348.582031 338.078125 379.261719 338.078125 C 410.046875 338.078125 436.832031 318.332031 447.695312 309.074219 C 436.800781 299.816406 409.949219 280.054688 379.261719 280.054688 C 348.585938 280.054688 321.742188 299.804688 310.839844 309.0625 Z M 379.261719 351.4375 C 333.710938 351.4375 297.660156 315.285156 296.144531 313.742188 C 293.59375 311.144531 293.59375 306.988281 296.144531 304.382812 C 297.660156 302.84375 333.710938 266.699219 379.261719 266.699219 C 424.816406 266.699219 460.867188 302.84375 462.382812 304.382812 C 464.941406 306.988281 464.941406 311.144531 462.382812 313.742188 C 460.867188 315.285156 424.816406 351.4375 379.261719 351.4375 " fill-opacity="1" fill-rule="nonzero"/><path fill="rgb(87.838745%, 31.759644%, 69.799805%)" d="M 167.441406 480.746094 C 166.316406 480.746094 165.617188 481.453125 165.273438 481.9375 C 164.863281 482.511719 164.324219 483.675781 165.277344 485.007812 C 184.601562 512.078125 218.378906 528.230469 255.636719 528.230469 C 292.894531 528.230469 326.671875 512.078125 345.996094 485.007812 C 346.949219 483.675781 346.40625 482.511719 346 481.9375 C 345.570312 481.335938 344.597656 480.394531 342.933594 480.886719 C 316.542969 488.660156 286.355469 492.765625 255.636719 492.765625 C 224.917969 492.765625 194.730469 488.660156 168.335938 480.886719 C 168.011719 480.789062 167.714844 480.746094 167.441406 480.746094 Z M 255.636719 541.589844 C 235.046875 541.589844 214.761719 536.972656 196.972656 528.242188 C 179.613281 519.726562 164.894531 507.457031 154.410156 492.769531 C 150.378906 487.128906 150.375 479.839844 154.394531 474.191406 C 158.445312 468.503906 165.402344 466.097656 172.109375 468.078125 C 197.292969 475.492188 226.175781 479.40625 255.636719 479.40625 C 285.09375 479.40625 313.976562 475.492188 339.160156 468.078125 C 345.871094 466.097656 352.828125 468.503906 356.878906 474.191406 C 360.898438 479.839844 360.890625 487.128906 356.863281 492.769531 C 346.378906 507.457031 331.660156 519.726562 314.296875 528.242188 C 296.507812 536.972656 276.222656 541.589844 255.636719 541.589844 " fill-opacity="1" fill-rule="nonzero"/><path fill="rgb(87.838745%, 31.759644%, 69.799805%)" d="M 363.976562 591.085938 C 382.847656 606.777344 408.007812 618.378906 426.6875 625.589844 C 486.710938 648.777344 555.214844 639.664062 619.582031 599.933594 C 684.53125 559.835938 737.40625 493.480469 768.472656 413.09375 C 785.625 368.691406 794.988281 323.167969 796.285156 277.789062 C 796.40625 273.703125 794.710938 269.789062 791.632812 267.058594 C 788.488281 264.261719 784.285156 263.007812 780.105469 263.625 C 762.59375 266.199219 744.753906 267.480469 726.730469 267.480469 C 676.960938 267.480469 625.796875 257.722656 576.230469 238.574219 C 546.082031 226.933594 521.921875 215.863281 502.902344 204.976562 C 503.28125 206.800781 503.660156 208.617188 504.03125 210.417969 C 508.289062 230.960938 512.695312 252.203125 512.695312 273.941406 C 512.695312 314.476562 507.859375 354.125 498.316406 391.78125 C 489.476562 426.648438 476.792969 459.015625 460.578125 488.125 C 466.261719 489.066406 471.902344 490.265625 478.0625 492.644531 C 497.261719 500.066406 514.523438 511.679688 527.964844 526.230469 C 541.089844 540.4375 550.402344 557.183594 554.894531 574.660156 C 556.609375 581.375 553.996094 588.179688 548.207031 591.996094 C 542.375 595.84375 535.019531 595.574219 529.476562 591.3125 C 508.652344 575.324219 483.121094 561.257812 455.648438 550.648438 L 452.519531 549.433594 C 442.722656 545.636719 434.722656 542.546875 425.632812 539.972656 C 408.476562 559.9375 384.261719 577.035156 363.976562 591.085938 Z M 494.328125 651.46875 C 469.273438 651.46875 445 646.984375 421.875 638.046875 C 399.9375 629.574219 369.417969 615.265625 348.582031 595.234375 L 342.703125 589.582031 L 349.402344 584.933594 C 350.785156 583.96875 352.195312 582.996094 353.636719 582.003906 C 374.851562 567.328125 401.253906 549.0625 418.039062 528.222656 L 420.730469 524.882812 L 424.894531 525.941406 C 436.511719 528.917969 446.167969 532.652344 457.34375 536.984375 L 460.460938 538.1875 C 489.117188 549.257812 515.792969 563.964844 537.605469 580.726562 C 538.988281 581.785156 540.230469 581.261719 540.847656 580.851562 C 541.4375 580.464844 542.363281 579.574219 541.957031 577.980469 C 533.679688 545.769531 507.996094 518.527344 473.25 505.101562 C 466.460938 502.480469 460.226562 501.550781 453.007812 500.464844 C 451.648438 500.261719 450.273438 500.058594 448.886719 499.839844 L 439.148438 498.304688 L 444.183594 489.832031 C 479.75 429.996094 499.335938 353.328125 499.335938 273.941406 C 499.335938 253.574219 495.078125 233.011719 490.949219 213.125 C 489.550781 206.378906 488.109375 199.398438 486.855469 192.566406 L 484.066406 177.246094 L 497.089844 185.777344 C 516.894531 198.75 544.355469 211.945312 581.046875 226.125 C 646.402344 251.367188 714.566406 259.769531 778.160156 250.410156 C 786.253906 249.222656 794.398438 251.648438 800.507812 257.074219 C 806.535156 262.4375 809.867188 270.128906 809.644531 278.175781 C 808.292969 325.070312 798.636719 372.085938 780.925781 417.90625 C 764.71875 459.863281 742.742188 498.167969 715.625 531.761719 C 689.371094 564.269531 659.417969 591.027344 626.597656 611.292969 C 593.625 631.644531 559.402344 644.433594 524.878906 649.296875 C 514.582031 650.742188 504.390625 651.46875 494.328125 651.46875 " fill-opacity="1" fill-rule="nonzero"/><path fill="rgb(87.838745%, 31.759644%, 69.799805%)" d="M 586.609375 364.839844 C 593.4375 377.398438 611.363281 405.511719 639.988281 416.574219 C 668.703125 427.660156 700.804688 418.902344 714.277344 414.171875 C 707.453125 401.617188 689.527344 373.507812 660.902344 362.445312 C 632.183594 351.351562 600.089844 360.117188 586.609375 364.839844 Z M 671.011719 435.335938 C 659.460938 435.335938 647.15625 433.660156 635.171875 429.035156 C 592.679688 412.617188 572.078125 365.90625 571.222656 363.925781 C 569.78125 360.578125 571.28125 356.695312 574.597656 355.191406 C 576.5625 354.300781 623.226562 333.570312 665.714844 349.984375 C 708.207031 366.402344 728.808594 413.113281 729.664062 415.09375 C 731.113281 418.441406 729.609375 422.324219 726.289062 423.828125 C 724.882812 424.464844 700.417969 435.335938 671.011719 435.335938 " fill-opacity="1" fill-rule="nonzero"/></svg>