<svg xmlns="http://www.w3.org/2000/svg" xmlns:xlink="http://www.w3.org/1999/xlink" width="810" zoomAndPan="magnify" viewBox="0 0 810 809.999993" height="809.999993" preserveAspectRatio="xMidYMid meet" version="1.0"><path fill="rgb(74.119568%, 51.368713%, 100%)" d="M 37.96875 506.25 C 30.984375 506.25 25.3125 500.578125 25.3125 493.59375 L 25.3125 88.59375 C 25.3125 67.660156 42.347656 50.625 63.28125 50.625 L 746.71875 50.625 C 767.652344 50.625 784.6875 67.660156 784.6875 88.59375 L 784.6875 126.5625 C 784.6875 133.546875 779.015625 139.21875 772.03125 139.21875 C 765.046875 139.21875 759.375 133.546875 759.375 126.5625 L 759.375 88.59375 C 759.375 81.632812 753.679688 75.9375 746.71875 75.9375 L 63.28125 75.9375 C 56.320312 75.9375 50.625 81.632812 50.625 88.59375 L 50.625 493.59375 C 50.625 500.578125 44.953125 506.25 37.96875 506.25 Z M 37.96875 506.25 " fill-opacity="1" fill-rule="nonzero"/><path fill="rgb(74.119568%, 51.368713%, 100%)" d="M 405 784.6875 L 265.78125 784.6875 C 258.796875 784.6875 253.125 779.015625 253.125 772.03125 C 253.125 765.046875 258.796875 759.375 265.78125 759.375 L 291.09375 759.375 C 312.027344 759.375 329.0625 742.339844 329.0625 721.40625 L 329.0625 658.125 C 329.0625 651.140625 334.734375 645.46875 341.71875 645.46875 C 348.703125 645.46875 354.375 651.140625 354.375 658.125 L 354.375 721.40625 C 354.375 735.65625 349.640625 748.792969 341.695312 759.375 L 405 759.375 C 411.984375 759.375 417.65625 765.046875 417.65625 772.03125 C 417.65625 779.015625 411.984375 784.6875 405 784.6875 Z M 405 784.6875 " fill-opacity="1" fill-rule="nonzero"/><path fill="rgb(74.119568%, 51.368713%, 100%)" d="M 392.34375 658.125 L 63.28125 658.125 C 42.347656 658.125 25.3125 641.089844 25.3125 620.15625 L 25.3125 544.21875 C 25.3125 537.234375 30.984375 531.5625 37.96875 531.5625 L 392.34375 531.5625 C 399.328125 531.5625 405 537.234375 405 544.21875 C 405 551.203125 399.328125 556.875 392.34375 556.875 L 50.625 556.875 L 50.625 620.15625 C 50.625 627.117188 56.320312 632.8125 63.28125 632.8125 L 392.34375 632.8125 C 399.328125 632.8125 405 638.484375 405 645.46875 C 405 652.453125 399.328125 658.125 392.34375 658.125 Z M 392.34375 658.125 " fill-opacity="1" fill-rule="nonzero"/><path fill="rgb(74.119568%, 51.368713%, 100%)" d="M 544.21875 227.8125 L 670.78125 227.8125 C 677.765625 227.8125 683.4375 222.140625 683.4375 215.15625 C 683.4375 208.171875 677.765625 202.5 670.78125 202.5 L 544.21875 202.5 C 537.234375 202.5 531.5625 208.171875 531.5625 215.15625 C 531.5625 222.140625 537.234375 227.8125 544.21875 227.8125 Z M 544.21875 227.8125 " fill-opacity="1" fill-rule="nonzero"/><path fill="rgb(74.119568%, 51.368713%, 100%)" d="M 594.84375 734.0625 L 620.15625 734.0625 C 627.140625 734.0625 632.8125 728.390625 632.8125 721.40625 C 632.8125 714.421875 627.140625 708.75 620.15625 708.75 L 594.84375 708.75 C 587.859375 708.75 582.1875 714.421875 582.1875 721.40625 C 582.1875 728.390625 587.859375 734.0625 594.84375 734.0625 Z M 594.84375 734.0625 " fill-opacity="1" fill-rule="nonzero"/><path fill="rgb(74.119568%, 51.368713%, 100%)" d="M 721.40625 784.6875 L 493.59375 784.6875 C 458.6875 784.6875 430.3125 756.3125 430.3125 721.40625 L 430.3125 215.15625 C 430.3125 180.25 458.6875 151.875 493.59375 151.875 L 721.40625 151.875 C 756.3125 151.875 784.6875 180.25 784.6875 215.15625 L 784.6875 721.40625 C 784.6875 756.3125 756.3125 784.6875 721.40625 784.6875 Z M 493.59375 177.1875 C 472.660156 177.1875 455.625 194.222656 455.625 215.15625 L 455.625 721.40625 C 455.625 742.339844 472.660156 759.375 493.59375 759.375 L 721.40625 759.375 C 742.339844 759.375 759.375 742.339844 759.375 721.40625 L 759.375 215.15625 C 759.375 194.222656 742.339844 177.1875 721.40625 177.1875 Z M 493.59375 177.1875 " fill-opacity="1" fill-rule="nonzero"/></svg>